<svg xmlns="http://www.w3.org/2000/svg" xmlns:xlink="http://www.w3.org/1999/xlink" width="500" zoomAndPan="magnify" viewBox="0 0 375 374.999991" height="500" preserveAspectRatio="xMidYMid meet" version="1.0"><defs><g/><clipPath id="fa5f15e9f4"><path d="M 309.257812 207.871094 L 329.507812 207.871094 L 329.507812 228.121094 L 309.257812 228.121094 Z M 309.257812 207.871094 " clip-rule="nonzero"/></clipPath></defs><g fill="#000000" fill-opacity="1"><g transform="translate(74.438488, 227.249985)"><g><path d="M 71.65625 0 L 51.5 0 L 51.5 -30.265625 L 28.1875 -30.265625 L 28.1875 0 L 8.03125 0 L 8.03125 -74.25 L 28.1875 -74.25 L 28.1875 -46.71875 L 51.5 -46.71875 L 51.5 -74.25 L 71.65625 -74.25 Z M 71.65625 0 "/></g></g></g><g fill="#000000" fill-opacity="1"><g transform="translate(154.108279, 227.249985)"><g><path d="M 47.84375 0 L 45.34375 -7.15625 L 44.1875 -7.15625 C 42.519531 -4.519531 40.207031 -2.5 37.25 -1.09375 C 34.289062 0.3125 30.8125 1.015625 26.8125 1.015625 C 20.476562 1.015625 15.550781 -0.816406 12.03125 -4.484375 C 8.507812 -8.160156 6.75 -13.351562 6.75 -20.0625 L 6.75 -57.53125 L 26.609375 -57.53125 L 26.609375 -26.109375 C 26.609375 -22.347656 27.140625 -19.5 28.203125 -17.5625 C 29.273438 -15.632812 31.03125 -14.671875 33.46875 -14.671875 C 36.882812 -14.671875 39.320312 -16.015625 40.78125 -18.703125 C 42.238281 -21.398438 42.96875 -25.945312 42.96875 -32.34375 L 42.96875 -57.53125 L 62.8125 -57.53125 L 62.8125 0 Z M 47.84375 0 "/></g></g></g><g fill="#000000" fill-opacity="1"><g transform="translate(223.774916, 227.249985)"><g><path d="M 42 -42.65625 L 29.765625 -42.65625 L 29.765625 0 L 9.90625 0 L 9.90625 -42.65625 L 2.28125 -42.65625 L 2.28125 -52.40625 L 10.3125 -57.28125 L 10.3125 -58.25 C 10.3125 -65.832031 11.859375 -71.28125 14.953125 -74.59375 C 18.054688 -77.914062 23.023438 -79.578125 29.859375 -79.578125 C 32.503906 -79.578125 35 -79.375 37.34375 -78.96875 C 39.695312 -78.5625 42.429688 -77.847656 45.546875 -76.828125 L 41.28125 -63.984375 C 38.84375 -64.660156 36.457031 -65 34.125 -65 C 32.601562 -65 31.492188 -64.53125 30.796875 -63.59375 C 30.109375 -62.664062 29.765625 -61.15625 29.765625 -59.0625 L 29.765625 -57.53125 L 42 -57.53125 Z M 42 -42.65625 "/></g></g></g><g fill="#000000" fill-opacity="1"><g transform="translate(266.732634, 227.249985)"><g><path d="M 26.8125 0 L 6.953125 0 L 6.953125 -57.53125 L 26.8125 -57.53125 Z M 6.453125 -71.859375 C 6.453125 -74.835938 7.28125 -77.050781 8.9375 -78.5 C 10.59375 -79.957031 13.269531 -80.6875 16.96875 -80.6875 C 20.65625 -80.6875 23.34375 -79.941406 25.03125 -78.453125 C 26.726562 -76.960938 27.578125 -74.765625 27.578125 -71.859375 C 27.578125 -66.035156 24.039062 -63.125 16.96875 -63.125 C 9.957031 -63.125 6.453125 -66.035156 6.453125 -71.859375 Z M 6.453125 -71.859375 "/></g></g></g><g clip-path="url(#fa5f15e9f4)"><path fill="#cfe1b9" d="M 319.382812 207.871094 C 313.789062 207.871094 309.257812 212.40625 309.257812 217.996094 C 309.257812 223.589844 313.789062 228.121094 319.382812 228.121094 C 324.972656 228.121094 329.507812 223.589844 329.507812 217.996094 C 329.507812 212.40625 324.972656 207.871094 319.382812 207.871094 " fill-opacity="1" fill-rule="nonzero"/></g></svg>