<svg id="Layer_1" data-name="Layer 1" xmlns="http://www.w3.org/2000/svg" viewBox="0 0 824.79 305.2"><title>Hufi logo</title><path d="M259.81,463.4h31.6V585.8h2.4c8.8-18.8,32-35.6,64.4-35.6,48.39,0,78.39,36.4,78.39,82.4V763.4H405V634.6c0-33.2-25.2-54.8-54.39-54.8-32,0-59.2,23.6-59.2,57.2V763.4h-31.6Z" transform="translate(-259.81 -463.4)"/><path d="M500.61,686.2V555.4h31.6V685c0,33.2,24.4,54.8,53.59,54.8,32.8,0,58.4-25.2,58.4-59.6V555.4h31.6v208H644.2V733h-2.4c-8.8,18.8-31.2,35.6-63.59,35.6C529.81,768.6,500.61,732.2,500.61,686.2Z" transform="translate(-259.81 -463.4)"/><path d="M759,582.2H719.8V555.4H759V522.6c0-42,25.2-59.2,63.2-59.2h27.6V491h-28c-22,0-31.2,9.6-31.2,32v32.4h60.8v26.8H790.6V763.4H759Z" transform="translate(-259.81 -463.4)"/><path d="M932.6,582.2H893.4V555.4h70.8v208H932.6Zm-7.2-87.6c0-12.8,9.6-22.8,22.8-22.8,13.6,0,23.2,10,23.2,22.8,0,13.2-9.6,23.2-23.2,23.2C935,517.8,925.4,507.8,925.4,494.6Z" transform="translate(-259.81 -463.4)"/><path d="M1039.39,746.2c0-12.4,10.4-22.4,22.8-22.4a22.4,22.4,0,0,1,0,44.8C1049.79,768.6,1039.39,758.6,1039.39,746.2Z" transform="translate(-259.81 -463.4)"/></svg>