<svg xmlns="http://www.w3.org/2000/svg" xmlns:xlink="http://www.w3.org/1999/xlink" width="1200" zoomAndPan="magnify" viewBox="0 0 900 470.25" height="627" preserveAspectRatio="xMidYMid meet" version="1.0"><defs><g/><clipPath id="ba8b11d283"><path d="M 825.351562 308.839844 L 899.003906 308.839844 L 899.003906 382.492188 L 825.351562 382.492188 Z M 825.351562 308.839844 " clip-rule="nonzero"/></clipPath></defs><g fill="#ffffff" fill-opacity="1"><g transform="translate(-25.138053, 380.968757)"><g><path d="M 259.515625 0 L 186.5 0 L 186.5 -109.625 L 102.078125 -109.625 L 102.078125 0 L 29.0625 0 L 29.0625 -268.890625 L 102.078125 -268.890625 L 102.078125 -169.203125 L 186.5 -169.203125 L 186.5 -268.890625 L 259.515625 -268.890625 Z M 259.515625 0 "/></g></g></g><g fill="#ffffff" fill-opacity="1"><g transform="translate(263.423118, 380.968757)"><g><path d="M 173.25 0 L 164.234375 -25.9375 L 160.015625 -25.9375 C 154.003906 -16.375 145.632812 -9.046875 134.90625 -3.953125 C 124.175781 1.128906 111.578125 3.671875 97.109375 3.671875 C 74.179688 3.671875 56.34375 -2.976562 43.59375 -16.28125 C 30.84375 -29.582031 24.46875 -48.375 24.46875 -72.65625 L 24.46875 -208.390625 L 96.375 -208.390625 L 96.375 -94.53125 C 96.375 -80.925781 98.304688 -70.628906 102.171875 -63.640625 C 106.035156 -56.648438 112.378906 -53.15625 121.203125 -53.15625 C 133.585938 -53.15625 142.414062 -58.023438 147.6875 -67.765625 C 152.957031 -77.515625 155.59375 -93.976562 155.59375 -117.15625 L 155.59375 -208.390625 L 227.515625 -208.390625 L 227.515625 0 Z M 173.25 0 "/></g></g></g><g fill="#ffffff" fill-opacity="1"><g transform="translate(515.753247, 380.968757)"><g><path d="M 152.109375 -154.5 L 107.78125 -154.5 L 107.78125 0 L 35.859375 0 L 35.859375 -154.5 L 8.28125 -154.5 L 8.28125 -189.8125 L 37.34375 -207.46875 L 37.34375 -210.953125 C 37.34375 -238.421875 42.953125 -258.160156 54.171875 -270.171875 C 65.390625 -282.191406 83.378906 -288.203125 108.140625 -288.203125 C 117.703125 -288.203125 126.742188 -287.46875 135.265625 -286 C 143.796875 -284.53125 153.703125 -281.957031 164.984375 -278.28125 L 149.53125 -231.734375 C 140.695312 -234.191406 132.050781 -235.421875 123.59375 -235.421875 C 118.070312 -235.421875 114.054688 -233.734375 111.546875 -230.359375 C 109.035156 -226.984375 107.78125 -221.5 107.78125 -213.90625 L 107.78125 -208.390625 L 152.109375 -208.390625 Z M 152.109375 -154.5 "/></g></g></g><g fill="#ffffff" fill-opacity="1"><g transform="translate(671.34455, 380.968757)"><g><path d="M 97.109375 0 L 25.203125 0 L 25.203125 -208.390625 L 97.109375 -208.390625 Z M 23.359375 -260.25 C 23.359375 -271.039062 26.359375 -279.070312 32.359375 -284.34375 C 38.367188 -289.613281 48.0625 -292.25 61.4375 -292.25 C 74.800781 -292.25 84.546875 -289.550781 90.671875 -284.15625 C 96.804688 -278.757812 99.875 -270.789062 99.875 -260.25 C 99.875 -239.15625 87.0625 -228.609375 61.4375 -228.609375 C 36.050781 -228.609375 23.359375 -239.15625 23.359375 -260.25 Z M 23.359375 -260.25 "/></g></g></g><g clip-path="url(#ba8b11d283)"><path fill="#cfe1b9" d="M 862.179688 308.839844 C 841.839844 308.839844 825.351562 325.328125 825.351562 345.664062 C 825.351562 366.003906 841.839844 382.492188 862.179688 382.492188 C 882.515625 382.492188 899.003906 366.003906 899.003906 345.664062 C 899.003906 325.328125 882.515625 308.839844 862.179688 308.839844 " fill-opacity="1" fill-rule="nonzero"/></g></svg>