<svg xmlns="http://www.w3.org/2000/svg" xmlns:xlink="http://www.w3.org/1999/xlink" width="500" zoomAndPan="magnify" viewBox="0 0 375 374.999991" height="500" preserveAspectRatio="xMidYMid meet" version="1.0"><defs><g/></defs><rect x="-37.5" width="450" fill="#ffffff" y="-37.499999" height="449.999989" fill-opacity="1"/><rect x="-37.5" width="450" fill="#ffffff" y="-37.499999" height="449.999989" fill-opacity="1"/><rect x="-37.5" width="450" fill="#ffffff" y="-37.499999" height="449.999989" fill-opacity="1"/><g fill="#000000" fill-opacity="1"><g transform="translate(69.05003, 210.7817)"><g><path d="M 7.433594 0 L 11.707031 0 L 11.707031 -29.914062 L 57.507812 -29.914062 L 57.507812 0 L 61.78125 0 L 61.78125 -65.03125 L 57.507812 -65.03125 L 57.507812 -34.09375 L 11.707031 -34.09375 L 11.707031 -65.03125 L 7.433594 -65.03125 Z M 7.433594 0 "/></g></g></g><g fill="#000000" fill-opacity="1"><g transform="translate(145.688796, 210.7817)"><g><path d="M 34.558594 1.113281 C 50.261719 1.113281 61.78125 -8.640625 61.78125 -24.527344 L 61.78125 -65.03125 L 57.414062 -65.03125 L 57.414062 -24.527344 C 57.414062 -10.960938 47.75 -2.972656 34.558594 -2.972656 C 21.367188 -2.972656 11.796875 -10.960938 11.796875 -24.527344 L 11.796875 -65.03125 L 7.433594 -65.03125 L 7.433594 -24.527344 C 7.433594 -8.640625 18.953125 1.113281 34.558594 1.113281 Z M 34.558594 1.113281 "/></g></g></g><g fill="#000000" fill-opacity="1"><g transform="translate(222.420454, 210.7817)"><g><path d="M 7.433594 0 L 11.796875 0 L 11.796875 -30.191406 L 40.039062 -30.191406 L 40.039062 -33.910156 L 11.796875 -33.910156 L 11.796875 -60.945312 L 53.699219 -60.945312 L 53.699219 -65.03125 L 7.433594 -65.03125 Z M 7.433594 0 "/></g></g></g><g fill="#000000" fill-opacity="1"><g transform="translate(286.704236, 210.7817)"><g><path d="M 7.433594 0 L 11.796875 0 L 11.796875 -65.03125 L 7.433594 -65.03125 Z M 7.433594 0 "/></g></g></g></svg>