<svg xmlns="http://www.w3.org/2000/svg" height="1000" width="1000" version="1.1" xmlns:xlink="http://www.w3.org/1999/xlink" xmlns:svgjs="http://svgjs.com/svgjs"><rect fill="#f3f4fb" width="1000" height="1000"></rect><g><path d="M604.29 691.1C599.36 688.58 595.37 690.36 589.81 691.52 589.18 691.62 588.55 691.83 587.92 691.94 571.85 695.09 555.68 686.48 549.07 671.57L511.69 681.33C511.16 681.44 510.85 681.96 510.85 682.38L511.69 705.59C512.74 723.54 530.27 745.28 533.74 749.37 534.05 749.79 534.68 749.89 535.1 749.58L562.09 734.78C562.72 734.46 562.82 733.52 562.3 732.99L549.07 720.6 549.38 720.71C566.29 725.22 584.35 723.12 599.88 714.93L605.03 712.2C607.97 710.63 610.28 708 611.22 704.85 611.22 704.85 611.22 704.85 611.22 704.75 612.8 699.5 609.12 693.51 604.29 691.1Z" fill="#cfd5c8" stroke-linecap="round" stroke-linejoin="round" opacity="1" stroke-width="1.5" stroke="#000000"></path><path d="M510.74 681.44L511.48 700.86 548.96 671.46 510.74 681.44Z" fill="#ffffff00" opacity="0" stroke-width="1.5" stroke="#ffffff00"></path><path d="M518.83 725.64C524.39 726.8 531.74 728.27 536.05 724.38 538.25 722.39 539.41 719.66 541.3 717.45 544.24 713.99 548.96 712.52 553.58 712.2 558.2 711.89 562.82 712.52 567.34 713.04 575.53 713.88 583.93 713.78 591.38 710.21 598.83 706.85 605.03 700.44 604.92 692.36" stroke="#000000" stroke-width="1.5" stroke-linecap="round" stroke-linejoin="round" opacity="1" fill="none"></path><path d="M552.53 694.46C554.44 694.46 556 692.9 556 690.99 556 689.08 554.44 687.53 552.53 687.53 550.62 687.53 549.07 689.08 549.07 690.99 549.07 692.9 550.62 694.46 552.53 694.46Z" fill="#000000" opacity="1" stroke-width="1.5" stroke="#000000"></path><path d="M563.35 701.39C565.26 701.39 566.81 699.83 566.81 697.92 566.81 696.01 565.26 694.46 563.35 694.46 561.43 694.46 559.88 696.01 559.88 697.92 559.88 699.83 561.43 701.39 563.35 701.39Z" fill="#000000" opacity="1" stroke-width="1.5" stroke="#000000"></path><path d="M440.29 730.89C437.14 726.38 432.73 726.06 427.27 724.49 426.64 724.28 426.01 724.17 425.38 723.96 409.63 719.24 399.34 704.22 400.39 687.84L362.8 679.13C362.27 679.02 361.75 679.23 361.54 679.76L351.56 700.65C344.22 717.03 349.88 743.91 351.04 748.95 351.14 749.47 351.56 749.79 352.09 749.79H382.43C383.17 749.79 383.69 749.06 383.48 748.32L379.49 736.77C378.97 735.3 380.75 734.15 381.91 735.09 389.57 741.39 398.5 746.85 407.95 749.89 408.05 749.89 408.16 750 408.26 750H434.83C435.04 750 435.25 750 435.35 749.89 437.03 748.95 438.61 747.9 440.08 746.33 443.96 742.34 443.44 735.3 440.29 730.89Z" fill="#cfd5c8" opacity="1" stroke-width="1.5" stroke="#000000"></path><path d="M361.96 679.02L353.56 696.56 400.39 687.84 361.96 679.02Z" fill="#ffffff00" opacity="0" stroke-width="1.5" stroke="#ffffff00"></path><path d="M348.73 721.97C353.14 725.64 358.81 730.16 364.48 728.79 367.31 728.06 369.62 726.17 372.35 725.12 376.55 723.44 381.49 724.38 385.69 726.17 389.89 727.95 393.77 730.68 397.55 733.31 404.38 737.82 411.94 741.6 420.13 741.92 428.32 742.34 436.82 739.82 440.39 732.47" stroke="#000000" stroke-width="1.5" stroke-linecap="round" stroke-linejoin="round" opacity="1" fill="none"></path><path d="M394.51 710.31C396.42 710.31 397.97 708.76 397.97 706.85 397.97 704.93 396.42 703.38 394.51 703.38 392.6 703.38 391.04 704.93 391.04 706.85 391.04 708.76 392.6 710.31 394.51 710.31Z" fill="#000000" opacity="1" stroke-width="1.5" stroke="#000000"></path><path d="M400.91 721.44C402.82 721.44 404.38 719.89 404.38 717.98 404.38 716.06 402.82 714.51 400.91 714.51 399 714.51 397.45 716.06 397.45 717.98 397.45 719.89 399 721.44 400.91 721.44Z" fill="#000000" opacity="1" stroke-width="1.5" stroke="#000000"></path><path d="M391.78 698.87C393.69 698.87 395.24 697.31 395.24 695.4 395.24 693.49 393.69 691.94 391.78 691.94 389.87 691.94 388.31 693.49 388.31 695.4 388.31 697.31 389.87 698.87 391.78 698.87Z" fill="#000000" opacity="1" stroke-width="1.5" stroke="#000000"></path><path d="M588.13 310.37C583.82 303.97 575 302.29 568.7 306.7 566.81 308.06 565.34 309.53 564.4 311.42L554.42 328.64 538.15 317.09C536.36 315.83 534.37 314.99 532.27 314.68 524.6 313.42 517.46 318.56 516.2 326.12 514.94 333.79 520.09 340.93 527.65 342.19 529.85 342.61 531.95 342.4 534.05 341.66L548.54 338.51 556.21 336.83 563.87 335.15 578.36 332C580.46 331.79 582.56 330.95 584.35 329.8 590.75 325.6 592.54 316.78 588.13 310.37ZM529.54 337.04C524.81 336.2 521.66 331.79 522.5 327.17 523.34 322.45 527.75 319.3 532.37 320.14 533.74 320.35 534.89 320.98 535.94 321.61L551.69 332.84 533.53 336.83C532.16 337.15 530.9 337.25 529.54 337.04ZM580.46 325.91C579.31 326.75 578.05 327.17 576.79 327.28L558.62 331.27 568.28 314.57C568.91 313.42 569.75 312.47 570.91 311.74 574.9 309.11 580.15 310.06 582.88 314.05 585.4 317.93 584.35 323.29 580.46 325.91Z" fill="#000000" opacity="1" stroke-width="1.5" stroke="#000000"></path><path d="M612.17 439.94L547.7 454.01C544.45 454.75 541.3 452.65 540.56 449.39L519.04 350.9C518.3 347.65 520.4 344.5 523.66 343.76L588.13 329.69C591.38 328.96 594.53 331.06 595.26 334.31L616.79 432.8C617.42 435.95 615.42 439.21 612.17 439.94Z" fill="#e9f5db" opacity="1" stroke-width="1.5" stroke="#000000"></path><path d="M550.33 440.89C551.06 443.09 550.96 444.77 550.96 444.77 550.85 445.82 550.85 445.93 550.75 446.98 550.43 447.92 550.12 448.87 549.8 449.81 549.28 450.65 548.75 451.39 548.12 452.23 547.49 452.96 546.76 453.7 546.02 454.22H545.92C543.4 454.01 541.09 452.12 540.67 449.39L537.2 433.64C537.62 433.54 538.15 433.54 538.57 433.43 538.67 433.43 538.67 433.43 538.78 433.43 540.35 433.22 541.82 433.43 543.29 434.06 544.24 434.27 545.18 434.69 545.92 435.32 547.18 436.06 548.23 437 549.07 438.26 550.01 439.84 549.91 439.84 550.33 440.89Z" fill="#8a8a8a" opacity="1" stroke-width="1.5" stroke="#000000"></path><path d="M566.6 387.13C573.33 387.13 578.78 381.68 578.78 374.95 578.78 368.22 573.33 362.77 566.6 362.77 559.87 362.77 554.42 368.22 554.42 374.95 554.42 381.68 559.87 387.13 566.6 387.13Z" fill="#8a8a8a" opacity="1" stroke-width="1.5" stroke="#000000"></path><path d="M587.81 349.85C591.91 349.85 595.47 347.86 597.64 345L595.37 334.31C594.64 331.06 591.49 328.96 588.26 329.61L576.84 332.11C576.05 333.89 575.53 335.68 575.53 337.67 575.53 344.39 580.99 349.85 587.81 349.85Z" fill="#8a8a8a" opacity="1" stroke-width="1.5" stroke="#000000"></path><path d="M590.33 420.62C597.06 420.62 602.51 415.17 602.51 408.44 602.51 401.71 597.06 396.26 590.33 396.26 583.6 396.26 578.15 401.71 578.15 408.44 578.15 415.17 583.6 420.62 590.33 420.62Z" fill="#8a8a8a" opacity="1" stroke-width="1.5" stroke="#000000"></path><path d="M550.75 423.14C557.48 423.14 562.93 417.69 562.93 410.96 562.93 404.23 557.48 398.78 550.75 398.78 544.02 398.78 538.57 404.23 538.57 410.96 538.57 417.69 544.02 423.14 550.75 423.14Z" fill="#8a8a8a" opacity="1" stroke-width="1.5" stroke="#000000"></path><path d="M587.18 441.83C587.18 435.11 581.72 429.65 575 429.65 568.28 429.65 562.82 435.11 562.82 441.83 562.82 444.98 563.98 447.82 565.97 450.02L586.76 445.51C586.97 444.35 587.18 443.09 587.18 441.83Z" fill="#8a8a8a" opacity="1" stroke-width="1.5" stroke="#000000"></path><path d="M595.06 378.83C595.06 385.55 600.51 391.01 607.23 391.01 607.34 391.01 607.34 391.01 607.63 390.93L602.58 367.68C597.99 369.59 595.06 373.9 595.06 378.83Z" fill="#8a8a8a" opacity="1" stroke-width="1.5" stroke="#000000"></path><path d="M613.11 423.25C606.39 423.25 600.93 428.71 600.93 435.43 600.93 437.84 601.67 440.05 602.82 441.94L612.38 439.94C615.63 439.21 617.63 435.85 616.89 432.59L614.79 423.25C614.27 423.25 613.64 423.25 613.11 423.25Z" fill="#8a8a8a" opacity="1" stroke-width="1.5" stroke="#000000"></path><path d="M526.39 368.33C525.13 368.33 523.97 368.54 522.92 368.86L528.49 392.59C534.26 391.64 538.67 386.6 538.67 380.51 538.67 373.9 533.21 368.33 526.39 368.33Z" fill="#8a8a8a" opacity="1" stroke-width="1.5" stroke="#000000"></path><path d="M540.35 351.43C547.07 351.43 552.53 345.97 552.53 339.25 552.53 338.51 552.64 338.2 552.43 337.46L528.59 342.71C530.17 347.75 534.89 351.43 540.35 351.43Z" fill="#8a8a8a" opacity="1" stroke-width="1.5" stroke="#000000"></path><path d="M556.94 638.6C552.11 633.03 546.34 628.62 542.77 621.9 538.36 613.71 537.83 603.53 538.67 593.87 539.62 584.31 541.51 574.76 541.61 565.1 541.72 554.7 539.72 544.2 535.52 534.96 529.33 521 518.83 509.97 511.48 496.64 506.75 487.93 503.18 477.74 500.77 466.72L416.45 456.64C415.82 459.58 414.35 462.94 413.3 466.82 410.36 477.43 406.69 490.24 403.12 496.64 395.77 509.87 385.27 520.89 379.07 534.96 374.98 544.2 372.88 554.6 372.98 565.1 373.09 574.76 375.19 584.21 375.92 593.87 376.87 603.42 376.13 613.71 371.83 621.9 368.26 628.41 362.38 633.03 357.65 638.6 349.04 648.47 343.48 661.7 341.7 675.56L429.89 696.77 454.04 520.58C454.67 516.38 459.82 516.38 460.34 520.58L484.49 696.77 572.69 675.56C571.22 661.7 565.55 648.47 556.94 638.6Z" fill="#cfe1b9" opacity="1" stroke-width="1.5" stroke="#000000"></path><path d="M468.53 337.57H430.31 410.26C409.52 337.57 408.68 337.57 408.05 337.57 407.32 337.78 406.27 337.78 405.43 337.88 400.28 333.68 396.82 327.17 396.82 319.51 396.82 308.9 402.91 300.19 411.83 297.25 408.37 294.1 406.27 289.37 406.27 284.44 406.27 275.09 412.99 267.64 421.39 267.64 422.54 267.64 423.59 267.64 424.64 267.95 426.64 257.66 434.93 250 444.91 250 454.46 250 462.34 256.82 464.96 266.48 467.9 264.38 471.47 263.02 475.25 263.02 485.86 263.02 494.47 272.68 494.47 284.33 494.47 288.74 493.1 292.63 491.21 296.09 498.67 300.08 501.82 308.59 501.82 318.25 501.82 318.56 501.82 319.09 501.71 319.61 500.87 326.12 496.78 331.48 491 334.21L484.07 337.46 468.53 337.57Z" fill="#000000" opacity="1" stroke-width="1.5" stroke="#000000"></path><path d="M575.32 594.08L594.22 597.54C594.22 597.54 594.32 597.54 594.32 597.44L548.33 484.04C548.33 483.94 548.23 484.04 548.23 484.04L560.3 605.84C560.3 605.84 560.3 605.94 560.41 605.84L575.32 594.08Z" fill="#000000" opacity="1" stroke-width="1.5" stroke="#000000"></path><path d="M548.23 484.04L594.32 597.54C594.43 597.65 594.53 597.75 594.64 597.75L667.61 579.69C667.82 579.69 667.92 579.48 667.82 579.27L621.72 465.77C621.62 465.67 621.51 465.56 621.41 465.56L548.44 483.62C548.33 483.73 548.23 483.94 548.23 484.04Z" fill="#e9f5db" opacity="1" stroke-width="1.5" stroke="#000000"></path><path d="M633.9 542.52L620.67 530.87C620.25 530.55 620.36 529.92 620.78 529.61L635.79 520.47C635.9 520.37 635.9 520.26 635.9 520.16 635.9 520.05 635.79 519.95 635.69 519.95L618.15 521C617.63 521 617.21 520.58 617.31 520.05L621.41 502.94C621.41 502.83 621.41 502.73 621.3 502.62 621.2 502.62 621.09 502.62 620.99 502.73L609.12 515.96C608.81 516.38 608.18 516.27 607.86 515.85L598.62 500.84C598.52 500.73 598.41 500.73 598.31 500.73 598.2 500.73 598.1 500.84 598.1 500.94L599.15 518.48C599.15 519 598.73 519.42 598.2 519.32L581.2 515.22C581.09 515.22 580.99 515.22 580.88 515.33 580.78 515.43 580.88 515.54 580.99 515.64L594.22 527.3C594.64 527.61 594.53 528.24 594.11 528.56L579.1 537.8C578.99 537.9 578.99 538.01 578.99 538.11 578.99 538.22 579.1 538.32 579.2 538.32L596.94 537.27C597.47 537.27 597.89 537.69 597.68 538.22L593.59 555.44C593.59 555.54 593.59 555.65 593.69 555.75 593.69 555.75 593.69 555.75 593.8 555.75 593.9 555.75 594.01 555.75 594.01 555.65L605.66 542.42C605.97 542 606.6 542.1 606.92 542.52L616.16 557.54C616.26 557.64 616.37 557.64 616.47 557.64 616.58 557.64 616.68 557.54 616.68 557.43L615.63 539.9C615.63 539.37 616.05 538.95 616.58 539.06L633.69 543.15C633.8 543.15 633.9 543.15 634.01 543.05 634.11 542.94 634.01 542.63 633.9 542.52Z" fill="#e9f5db" opacity="1" stroke-width="1.5" stroke="#000000"></path><path d="M569.44 478.9L565.87 464.51C563.45 454.64 569.44 444.67 579.31 442.25 589.18 439.84 599.15 445.82 601.56 455.69L605.13 470.08" stroke="#000000" stroke-width="1.5" stroke-linecap="round" stroke-linejoin="round" opacity="1" fill="none"></path><path d="M465.59 317.93L436.61 317.41 433.15 316.57C420.86 316.57 408.68 321.29 399.76 329.9L375.4 353.32 367.94 363.08 399.86 392.69 414.25 382.09 413.2 466.93H500.77L502.66 353.95C502.76 337.25 491.74 323.08 476.72 318.35 473.15 317.2 469.48 317.93 465.59 317.93Z" fill="#e9f5db" opacity="1" stroke-width="1.5" stroke="#000000"></path><path d="M556.63 452.12L518.62 460.42 508.85 456.01 503.39 463.78 465.49 471.97C463.81 472.28 462.23 471.13 461.81 469.24L445.12 392.69C444.7 390.8 445.64 389.12 447.32 388.7L538.46 368.86C540.14 368.54 541.72 369.7 542.14 371.59L558.83 448.13C559.04 450.13 558.1 451.81 556.63 452.12Z" fill="#212121" opacity="1" stroke-width="1.5" stroke="#000000"></path><path d="M548.33 400.99L507.59 409.91 500.35 376.84 485.23 380.09 492.37 413.17 451.52 422.09 455.2 439.21 496.15 430.28 503.39 463.78 518.62 460.42 511.27 426.92 552.11 418 548.33 400.99Z" fill="#000000" opacity="1" stroke-width="1.5" stroke="#000000"></path><path d="M524.81 352.79C520.51 346.39 511.69 344.71 505.39 349.12 503.5 350.48 502.03 351.95 501.08 353.84L491.11 371.06 474.83 359.51C473.05 358.25 471.05 357.41 468.95 357.1 461.29 355.84 454.15 360.98 452.89 368.54 451.63 376.21 456.77 383.35 464.33 384.61 466.54 385.03 468.64 384.82 470.74 384.08L485.23 380.93 492.89 379.25 500.56 377.57 515.05 374.42C517.15 374.21 519.25 373.37 521.03 372.22 527.44 368.02 529.12 359.3 524.81 352.79ZM466.12 379.46C461.39 378.62 458.24 374.21 459.08 369.59 459.92 364.87 464.33 361.72 468.95 362.56 470.32 362.77 471.47 363.4 472.52 364.03L488.27 375.26 470.11 379.25C468.74 379.57 467.48 379.78 466.12 379.46ZM517.15 368.33C515.99 369.17 514.73 369.59 513.47 369.7L495.31 373.69 504.97 356.99C505.6 355.84 506.44 354.89 507.59 354.16 511.58 351.53 516.83 352.48 519.56 356.47 522.08 360.35 521.03 365.71 517.15 368.33Z" fill="#000000" opacity="1" stroke-width="1.5" stroke="#000000"></path><path d="M490.79 409.91C490.48 409.7 490.48 409.28 490.79 408.97 492.58 407.6 494.15 405.71 493.21 403.82 492.68 402.67 490.9 401.3 489.64 401.41 488.27 401.51 487.43 401.51 486.07 401.72 454.78 406.97 480.19 402.88 456.14 406.76 455.62 406.87 455.2 406.13 455.72 405.71L464.96 398.57C466.33 397.52 467.38 395.53 466.75 393.95 466.33 392.8 465.49 392.17 464.33 392.17 463.07 392.17 461.29 392.59 460.03 393.01 417.4 403.19 389.78 408.44 382.33 409.81 381.8 409.91 381.38 409.18 381.91 408.86L401.44 391.64 376.03 353.84C375.82 353.53 375.4 353.53 375.19 353.74L353.35 374.53C345.48 382.09 340.44 392.48 340.02 403.4 340.02 404.03 340.02 404.56 340.02 405.19 340.02 432.49 364.58 452.96 391.15 448.55 392.3 448.34 393.46 448.13 394.51 447.82 406.58 444.88 479.98 426.61 484.91 425.03 486.38 424.51 488.17 423.88 489.11 422.72 489.95 421.67 490.37 419.89 489.53 418.52 489.43 418.21 489.43 417.89 489.74 417.79 491.21 417.05 492.47 415.58 492.47 414.01 492.79 412.43 492.05 410.75 490.79 409.91Z" fill="#dd8387" opacity="1" stroke-width="1.5" stroke="#000000"></path><path d="M489.32 418L468.43 423.35" stroke="#000000" stroke-width="1.5" stroke-linecap="round" stroke-linejoin="round" opacity="1" fill="none"></path><path d="M490.16 409.39L467.17 414.22" stroke="#000000" stroke-width="1.5" stroke-linecap="round" stroke-linejoin="round" opacity="1" fill="none"></path><path d="M414.25 381.98V366.55" stroke="#000000" stroke-width="1.5" stroke-linecap="round" stroke-linejoin="round" opacity="1" fill="none"></path><path d="M574.9 445.19H573.01L576.68 431.65C577.31 429.02 575.42 426.61 572.69 426.61 570.8 426.61 569.33 427.87 568.7 429.65L562.61 452.33C562.51 452.75 561.98 452.75 561.88 452.33L555.79 429.65C555.26 427.87 553.79 426.61 551.8 426.61 549.07 426.61 547.07 429.34 547.7 431.75L547.07 429.55C546.55 427.76 545.08 426.5 543.08 426.5 540.35 426.5 538.46 429.23 539.3 431.75L538.46 429.55C537.94 427.76 536.47 426.5 534.58 426.5 531.85 426.5 529.85 429.13 530.59 431.65L536.68 453.8C538.57 461.36 545.39 467.03 553.58 467.03 558.73 467.03 563.24 464.83 566.39 461.36 567.23 460.42 567.97 459.47 568.6 458.42L577.21 453.38C578.57 452.65 579.31 451.18 579.31 449.6 579.31 447.19 577.31 445.19 574.9 445.19Z" fill="#dd8387" opacity="1" stroke-width="1.5" stroke="#000000"></path><path d="M544.66 452.33L538.88 429.97" stroke="#000000" stroke-width="1.5" stroke-linecap="round" stroke-linejoin="round" opacity="1" fill="none"></path><path d="M553.06 452.33L547.28 430.28" stroke="#000000" stroke-width="1.5" stroke-linecap="round" stroke-linejoin="round" opacity="1" fill="none"></path><path d="M455.51 346.7L476.72 318.25C473.15 317.09 469.37 316.57 465.49 316.57H436.3 433.15L455.51 346.7Z" fill="#dd8387" opacity="1" stroke-width="1.5" stroke="#000000"></path><path d="M465.59 316.57H447.74C448.37 317.41 449.11 318.25 449.95 318.98 454.57 323.6 460.97 326.44 468.11 326.44 469.06 326.44 470 326.44 470.84 326.33L476.83 318.25C473.26 317.2 469.48 316.57 465.59 316.57Z" fill="#ffffff00" opacity="0" stroke-width="1.5" stroke="#ffffff00"></path><path d="M465.17 275.72C462.44 284.02 454.88 289.9 445.75 289.9 445.12 289.9 444.38 289.9 443.75 289.79 443.86 290.53 443.96 291.16 443.96 291.89 443.96 297.67 439.24 302.5 433.36 302.5 433.15 302.5 432.83 302.5 432.62 302.5 433.78 306.28 435.77 309.43 438.4 312.16 440.18 313.94 442.39 315.52 444.8 316.67 447.64 318.04 450.89 318.77 454.25 318.77 458.24 318.77 462.02 317.72 465.28 315.94 466.96 314.99 468.53 313.84 469.9 312.47 474.31 308.27 476.93 302.39 476.93 295.88 477.25 287.17 472.31 279.5 465.17 275.72Z" fill="#dd8387" opacity="1" stroke-width="1.5" stroke="#000000"></path><path d="M463.18 299.14H466.96C468.32 299.14 469.48 297.98 469.48 296.62 469.48 295.25 468.32 294.1 466.96 294.1H463.18" stroke="#000000" stroke-width="1.5" stroke-linecap="round" stroke-linejoin="round" opacity="1" fill="none"></path><path d="M465.38 304.49C462.02 304.91 458.56 303.65 456.46 301.03" stroke="#000000" stroke-width="1.5" stroke-linecap="round" stroke-linejoin="round" opacity="1" fill="none"></path><path d="M460.87 291.37C461.79 291.37 462.55 290.61 462.55 289.69 462.55 288.77 461.79 288.01 460.87 288.01 459.94 288.01 459.19 288.77 459.19 289.69 459.19 290.61 459.94 291.37 460.87 291.37Z" fill="#000000" opacity="1" stroke-width="1.5" stroke="#000000"></path><path d="M468.01 291.37C468.93 291.37 469.69 290.61 469.69 289.69 469.69 288.77 468.93 288.01 468.01 288.01 467.08 288.01 466.33 288.77 466.33 289.69 466.33 290.61 467.08 291.37 468.01 291.37Z" fill="#000000" opacity="1" stroke-width="1.5" stroke="#000000"></path><path d="M457.09 502.73V482.36" stroke="#000000" stroke-width="1.5" stroke-linecap="round" stroke-linejoin="round" opacity="1" fill="none"></path><path d="M380.96 409.91C363.74 409.91 349.78 423.88 349.78 441.1V472.28" stroke="#000000" stroke-width="1.5" stroke-linecap="round" stroke-linejoin="round" opacity="1" fill="none"></path><path d="M419.18 473.12H332.14V569.09H419.18V473.12Z" fill="#e9f5db" opacity="1" stroke-width="1.5" stroke="#000000"></path><path d="M398.29 472.28V446.87" stroke="#000000" stroke-width="1.5" stroke-linecap="round" stroke-linejoin="round" opacity="1" fill="none"></path><path d="M394.72 514.59C382.43 514.59 372.46 504.62 372.46 492.34 372.46 491.92 372.14 491.5 371.62 491.5 371.09 491.5 370.78 491.81 370.78 492.34 370.78 504.62 360.8 514.59 348.52 514.59 348.1 514.59 347.68 514.91 347.68 515.43 347.68 515.96 347.99 516.27 348.52 516.27 360.8 516.27 370.78 526.25 370.78 538.53 370.78 538.95 371.09 539.37 371.62 539.37 372.14 539.37 372.46 539.06 372.46 538.53 372.46 526.25 382.43 516.27 394.72 516.27 395.14 516.27 395.56 515.96 395.56 515.43 395.56 514.91 395.14 514.59 394.72 514.59Z" fill="#cfe1b9" opacity="1" stroke-width="1.5" stroke="#000000"></path><path d="M402.8 493.91C397.13 493.91 392.51 489.29 392.51 483.62 392.51 483.2 392.2 482.78 391.67 482.78 391.15 482.78 390.83 483.1 390.83 483.62 390.83 489.29 386.21 493.91 380.54 493.91 380.12 493.91 379.7 494.23 379.7 494.75 379.7 495.28 380.02 495.59 380.54 495.59 386.21 495.59 390.83 500.21 390.83 505.88 390.83 506.3 391.15 506.72 391.67 506.72 392.2 506.72 392.51 506.4 392.51 505.88 392.51 500.21 397.13 495.59 402.8 495.59 403.22 495.59 403.64 495.28 403.64 494.75 403.64 494.23 403.22 493.91 402.8 493.91Z" fill="#000000" opacity="1" stroke-width="1.5" stroke="#000000"></path><path d="M355.34 546.2H392.3" stroke="#000000" stroke-width="1.5" stroke-linecap="round" stroke-linejoin="round" opacity="1" fill="none"></path><path d="M355.34 553.55H392.3" stroke="#000000" stroke-width="1.5" stroke-linecap="round" stroke-linejoin="round" opacity="1" fill="none"></path><path d="M573.11 444.77L568.6 458.42" stroke="#000000" stroke-width="1.5" stroke-linecap="round" stroke-linejoin="round" opacity="1" fill="none"></path><path d="M444.38 316.46C447.22 317.83 451 318.67 454.36 318.67 458.35 318.67 462.13 317.62 465.38 315.83" stroke="#000000" stroke-width="1.5" stroke-linecap="round" stroke-linejoin="round" opacity="1" fill="none"></path></g></svg>