<svg xmlns="http://www.w3.org/2000/svg" height="1200" width="1600" version="1.1" xmlns:xlink="http://www.w3.org/1999/xlink" xmlns:svgjs="http://svgjs.com/svgjs"><rect fill="#ffffff" width="1600" height="1200"></rect><g><path d="M1321.42 510.66C1320.29 481.89 1317.59 452.27 1309.24 424.61 1277.73 322.31 1175.37 264.18 1072.75 248.52 1016.44 239.92 959.52 238.47 902.77 238.81 848.46 239.15 793.97 241.88 739.83 247.07 682.21 252.52 624.77 260.43 568.02 271.24 516.67 281.11 463.83 291.41 414.83 309.46 385.41 320.27 359.39 333.54 335.28 353.2 312.82 371.59 296.63 395.67 286.1 422.14 275.22 449.29 276.18 479.25 282.27 507.34 287.06 529.64 296.81 550.4 304.03 571.94 306.99 580.62 309.52 589.55 311.26 598.58 313.26 624.71 308.47 650.83 308.64 677.05 308.82 701.9 313.26 727.43 322.83 750.5 333.1 775.35 347.12 798.42 364.61 818.42 369.4 833.23 377.67 846.67 390.55 857.31 409.7 873.14 432.5 881.48 455.74 890.08 492.38 903.61 529.98 913.83 568.28 921.4 649.31 937.57 732.35 943.7 815.03 944.98 898.59 946.25 982.76 942.85 1065.27 930.59 1106.87 924.46 1147.78 913.31 1185.29 894.08 1204.27 884.38 1224.9 871.61 1238.91 855.87 1252.31 840.72 1260.84 821.82 1259.01 801.48 1258.06 790.16 1255.18 779.18 1253.27 768.03 1252.49 759.35 1252.49 750.58 1253.1 742.07 1254.23 736.29 1255.71 730.58 1257.71 725.14 1267.28 706.41 1280.69 690.16 1291.57 672.37 1308.37 644.96 1316.2 615.43 1320.12 583.94 1322.9 559.6 1322.47 535.08 1321.42 510.66Z" fill="#e3e9ee" opacity="1" stroke-width="3" stroke="none"></path></g><g><path d="M1299.48 719.05C1270.66 719.05 1249.98 677.02 1229.96 636.33 1213.95 603.91 1197.41 570.28 1182.6 574.42 1173.26 577.09 1172.86 589.36 1173.26 607.78 1173.66 624.72 1174.06 642.33 1160.58 648.47 1145.77 655.28 1121.62 646.34 1088.53 622.05 1073.08 610.54 1058.34 598.12 1044.37 584.83L1050.91 578.16C1064.58 591.15 1079.02 603.31 1094.14 614.58 1123.36 636.06 1145.51 645 1156.71 639.93 1164.59 636.33 1164.32 621.92 1163.92 607.91 1163.52 590.16 1163.12 570.15 1180.06 565.35 1202.35 559.08 1219.02 592.83 1238.24 632.06 1256.12 668.35 1276.4 709.58 1299.48 709.58V719.05 719.05Z" fill="#dd8387" stroke-linejoin="round" opacity="1" stroke-width="3" stroke="none"></path><path d="M300.52 787.23C300.12 749.61 348.15 731.2 386.71 716.39 413.66 705.98 439.15 696.24 435.95 684.9 432.74 673.56 416.33 673.42 393.65 674.36 373.77 675.29 353.35 676.22 349.22 660.75 348.74 658.75 348.67 656.65 349.01 654.61 349.35 652.57 350.11 650.62 351.22 648.87 359.63 634.73 390.31 618.72 445.15 600.17 484.78 586.83 522.67 577.09 523.07 576.95L525.34 586.03C483.98 596.57 373.5 629.12 359.23 653.54 357.62 656.21 358.02 657.81 358.16 658.34 360.29 666.48 376.97 665.68 393.12 665.02 414.73 664.08 439.41 662.88 444.89 682.36 450.36 701.84 422.47 712.65 390.05 725.06 352.29 739.6 309.46 756.01 309.86 787.1L300.52 787.23Z" fill="#dd8387" stroke-linejoin="round" opacity="1" stroke-width="3" stroke="none"></path><path d="M1083.06 430.99C1085.04 430.55 1087.09 430.6 1089.05 431.13 1091 431.68 1092.79 432.69 1094.26 434.1 1095.72 435.5 1096.82 437.23 1097.45 439.17 1098.09 441.09 1098.23 443.14 1097.87 445.13 1086.13 514.51 1036.5 751.48 913.08 731.73 799 713.45 820.21 474.08 828.89 404.84 829.13 402.83 829.87 400.91 831.03 399.26 832.19 397.59 833.76 396.26 835.56 395.34 837.37 394.43 839.37 393.97 841.4 394.03 843.43 394.08 845.4 394.63 847.16 395.63 915.35 433.92 1000.74 449.8 1083.06 430.99Z" fill="#b9cfe1" opacity="1" stroke-width="3" stroke="none"></path><path d="M938.96 732.12C930.4 733.21 921.72 733.04 913.21 731.6 799.13 713.32 820.35 474.08 829.02 404.7 829.26 402.7 830.01 400.78 831.17 399.12 832.33 397.46 833.89 396.12 835.69 395.2 837.5 394.29 839.51 393.84 841.53 393.89 843.56 393.95 845.54 394.49 847.3 395.5 856.77 400.83 866.65 405.9 876.65 410.31 867.85 490.63 834.62 673.94 938.96 732.12Z" fill="#9db4c7" opacity="1" stroke-width="3" stroke="none"></path><path d="M877.32 581.62C877.32 581.62 872.12 649.54 925.75 657.54 983.26 665.95 999.4 599.64 999.4 599.64 955.51 607.78 914.95 601.64 877.32 581.62ZM1016.88 539.6C1016.88 539.6 1013.01 514.24 995 511.58 975.52 508.77 964.71 531.86 964.71 531.86 982.47 530.35 1000.34 533 1016.88 539.6ZM928.15 526.52C928.15 526.52 924.15 501.17 906.27 498.5 886.79 495.7 875.98 518.78 875.98 518.78 893.74 517.27 911.61 519.93 928.15 526.52V526.52Z" fill="#ffffff" stroke-linejoin="round" opacity="1" stroke-width="3" stroke="none"></path><path d="M720.68 395.63C722.44 394.63 724.41 394.07 726.44 394 728.47 393.95 730.48 394.37 732.3 395.27 734.11 396.18 735.69 397.5 736.87 399.14 738.06 400.79 738.82 402.7 739.09 404.7 748.7 474.35 772.45 715.32 648.76 733.46 534.41 750.28 482.91 515.58 470.37 446.86 469.98 444.88 470.1 442.82 470.72 440.89 471.33 438.94 472.41 437.19 473.87 435.78 475.32 434.36 477.09 433.32 479.06 432.77 481 432.21 483.07 432.16 485.05 432.59 561.63 448.73 647.83 438.19 720.68 395.63Z" fill="#cfe1b9" opacity="1" stroke-width="3" stroke="none"></path><path d="M673.47 726.13C665.6 729.78 657.23 732.21 648.63 733.33 534.28 750.14 482.78 515.45 470.24 446.73 469.85 444.74 469.97 442.69 470.58 440.75 471.2 438.82 472.28 437.06 473.73 435.64 475.19 434.23 476.96 433.2 478.92 432.64 480.87 432.08 482.94 432.03 484.91 432.45 495.59 434.72 495.45 434.59 506.39 436.32 522.27 515.58 558.59 726.13 673.47 726.13Z" fill="#c5dbab" opacity="1" stroke-width="3" stroke="none"></path><path d="M628.21 583.89C574.71 591.9 576.98 649.27 576.98 649.27 616.14 635.46 657.59 629.35 699.06 631.26 699.06 631.26 685.72 575.49 628.21 583.89ZM603.4 531.86C603.4 531.86 592.59 508.77 573.11 511.58 555.1 514.24 551.23 539.6 551.23 539.6 567.77 532.99 585.64 530.34 603.4 531.86V531.86ZM692.12 518.78C692.12 518.78 681.32 495.7 661.84 498.5 643.96 501.17 639.95 526.52 639.95 526.52 656.51 519.93 674.36 517.27 692.12 518.78V518.78Z" fill="#ffffff" stroke-linejoin="round" opacity="1" stroke-width="3" stroke="none"></path></g></svg>