<svg xmlns="http://www.w3.org/2000/svg" height="1200" width="1600" version="1.1" xmlns:xlink="http://www.w3.org/1999/xlink" xmlns:svgjs="http://svgjs.com/svgjs"><rect fill="#ffffff" width="1600" height="1200"></rect><g><path d="M1265.21 603.44C1265.21 603.44 1264.97 603.24 1265.21 603.44L1202.7 603.24C1202.46 603.24 1202.46 603.24 1202.46 603.44V647.21C1202.46 647.42 1202.46 647.42 1202.22 647.42H1150.28C1150.04 647.42 1150.04 647.42 1150.04 647.62V691.39C1150.04 691.6 1150.04 691.6 1149.8 691.6H1097.87C1097.62 691.6 1097.62 691.6 1097.62 691.8V735.78C1097.62 735.98 1097.62 735.98 1097.38 735.98H1045.45C1045.21 735.98 1045.21 735.98 1045.21 736.19V779.96C1045.21 780.16 1045.21 780.16 1044.97 780.16H993.03C992.79 780.16 992.79 780.16 992.79 780.37V824.14C992.79 824.34 992.79 824.34 992.55 824.34H940.62C940.38 824.34 940.38 824.34 940.38 824.55V868.32C940.38 868.52 940.38 868.52 940.14 868.52H888.2C887.96 868.52 887.96 868.52 887.96 868.73V912.5C887.96 912.7 887.96 912.7 887.72 912.7H835.79C835.55 912.7 835.55 912.7 835.55 912.91V956.68C835.55 956.88 835.55 956.88 835.31 956.88H783.37C783.13 956.88 783.13 956.88 783.13 957.09V1061.4C783.13 1061.6 783.13 1061.6 783.37 1061.6L1264.97 1061.6C1265.21 1061.6 1265.21 1061.6 1265.21 1061.4V603.44 603.44Z" fill="#e5a2a4" opacity="1" stroke-width="1" stroke="#2c2c2c"></path></g><g><path d="M335.16 604.5C335.16 603.24 335.16 603.24 336.43 603.24H782.17C783.43 603.24 783.43 603.24 783.43 604.5V1060.34C783.43 1061.6 783.43 1061.6 782.17 1061.6H336.43C335.16 1061.6 335.16 1061.6 335.16 1060.34V604.5 604.5Z" fill="#b9cfe1" opacity="1" stroke-width="1" stroke="#2c2c2c"></path></g><g><path d="M695.01 813.72C694.79 813.72 694.79 813.72 695.01 813.72 669.7 825.37 652.9 845.98 652.9 869.5 653.12 882.49 658.05 895.04 666.56 904.67V904.9C657.83 914.53 652.9 927.08 652.9 940.07V1061.27C652.9 1061.49 652.9 1061.49 653.12 1061.49H736.68C736.91 1061.49 736.91 1061.49 736.91 1061.27V940.07C736.68 927.08 731.76 914.53 723.02 904.9V904.67C731.76 895.04 736.68 882.49 736.91 869.5 736.91 845.98 720.11 825.37 695.01 813.72Z" fill="#e9f5db" opacity="1" stroke-width="1" stroke="#2c2c2c"></path><path d="M552.31 813.72C552.08 813.72 552.08 813.72 552.31 813.72 526.99 825.37 510.19 845.98 510.19 869.5 510.41 882.49 515.34 895.04 524.08 904.67V904.9C515.34 914.53 510.41 927.08 510.19 940.07V1061.27C510.19 1061.49 510.19 1061.49 510.41 1061.49H593.98C594.2 1061.49 594.2 1061.49 594.2 1061.27V940.07C593.98 927.08 589.05 914.53 580.54 904.9V904.67C589.27 895.04 594.2 882.49 594.2 869.5 594.2 845.98 577.4 825.37 552.31 813.72Z" fill="#e9f5db" opacity="1" stroke-width="1" stroke="#2c2c2c"></path><path d="M694.79 813.72V1061.49" stroke="#000000" stroke-width="1" stroke-linecap="round" stroke-linejoin="round" opacity="1" fill="none"></path><path d="M552.08 813.72V1061.49" stroke="#000000" stroke-width="1" stroke-linecap="round" stroke-linejoin="round" opacity="1" fill="none"></path></g><g><path d="M675.99 604.19C803.83 604.19 907.46 500.55 907.46 372.72 907.46 244.88 803.83 141.24 675.99 141.24 548.15 141.24 444.51 244.88 444.51 372.72 444.51 500.55 548.15 604.19 675.99 604.19Z" fill="#cfe1b9" opacity="1" stroke-width="1" stroke="#2c2c2c"></path></g></svg>