<svg xmlns="http://www.w3.org/2000/svg" height="1000" width="1000" version="1.1" xmlns:xlink="http://www.w3.org/1999/xlink" xmlns:svgjs="http://svgjs.com/svgjs"><rect fill="#f3f4fb" width="1000" height="1000"></rect><g><path d="M749.98 499.95C750.02 557.67 730.06 613.57 693.55 658.24 657.04 702.9 606.2 733.57 549.66 745.02 493.08 756.47 434.34 748.03 383.29 721.09 332.28 694.15 292.15 650.4 269.71 597.26 247.24 544.12 243.87 484.85 260.14 429.48 276.41 374.14 311.33 326.11 358.98 293.57 406.62 261.02 464.05 245.96 521.55 250.92 579.01 255.88 633 280.59 674.34 320.83 698.3 344.12 717.3 371.98 730.31 402.75 743.28 433.49 749.98 466.56 749.98 499.95V499.95Z" fill="#cfe1b9" opacity="1" stroke-width="2" stroke="#272d30"></path><path d="M749.98 499.95C750.02 549.62 735.2 598.18 707.52 639.41 679.79 680.64 640.41 712.69 594.43 731.44 548.42 750.19 497.9 754.84 449.23 744.73 400.59 734.63 356.07 710.28 321.33 674.76L674.34 320.83C698.33 344.08 717.37 371.95 730.38 402.72 743.36 433.49 750.06 466.56 749.98 499.95V499.95Z" fill="#cfe1b900" opacity="0" stroke-width="2" stroke="#ffffff00"></path><path d="M500.03 722.58C622.97 722.58 722.65 622.93 722.65 499.95 722.65 377.02 622.97 277.33 500.03 277.33 377.06 277.33 277.41 377.02 277.41 499.95 277.41 622.93 377.06 722.58 500.03 722.58Z" stroke="#272d30" stroke-width="2" stroke-linecap="round" stroke-linejoin="round" opacity="1" fill="none"></path><path d="M500.03 636.08C575.18 636.08 636.12 575.14 636.12 499.95 636.12 424.8 575.18 363.86 500.03 363.86 424.84 363.86 363.94 424.8 363.94 499.95 363.94 575.14 424.84 636.08 500.03 636.08Z" fill="#aaaaaa" opacity="0.4" stroke-width="2" stroke="#272d30"></path><path d="M525.55 484.32C526.76 484.32 527.96 484.07 529.1 483.61 530.23 483.15 531.26 482.44 532.11 481.59 533 480.71 533.67 479.68 534.13 478.54 534.63 477.44 534.84 476.2 534.84 475V474.11C534.84 465.89 531.79 457.95 526.3 451.81 520.8 445.68 513.22 441.78 505.03 440.9 504.96 440.9 504.89 440.86 504.82 440.79 504.74 440.72 504.74 440.65 504.74 440.54V434.48C504.67 432.03 503.68 429.73 501.94 427.99 500.21 426.29 497.83 425.33 495.42 425.33 492.98 425.33 490.64 426.29 488.86 427.99 487.13 429.73 486.13 432.03 486.1 434.48V440.54C486.1 440.65 486.06 440.72 485.99 440.79 485.92 440.86 485.85 440.9 485.78 440.9 477.84 441.75 470.5 445.4 465.04 451.21 459.58 456.99 456.36 464.58 455.97 472.52 455.61 480.46 458.09 488.29 462.95 494.6 467.84 500.88 474.83 505.24 482.62 506.83L504.43 511.33C508.01 512.08 511.2 514.13 513.36 517.08 515.52 520.02 516.48 523.67 516.12 527.29 515.77 530.94 514.03 534.3 511.34 536.75 508.61 539.2 505.1 540.58 501.45 540.58H489.36C485.46 540.58 481.7 539.02 478.94 536.22 476.17 533.45 474.61 529.73 474.58 525.8V524.91C474.58 522.46 473.62 520.09 471.85 518.32 470.11 516.58 467.74 515.59 465.25 515.59 462.81 515.59 460.43 516.58 458.7 518.32 456.92 520.09 455.97 522.46 455.97 524.91V525.8C455.97 534.02 459.01 541.96 464.51 548.09 470 554.23 477.59 558.13 485.78 559.01 485.85 559.01 485.92 559.05 485.99 559.12 486.06 559.19 486.1 559.26 486.1 559.37V565.43C486.13 567.88 487.13 570.18 488.86 571.92 490.64 573.62 492.98 574.58 495.42 574.58 497.83 574.58 500.21 573.62 501.94 571.92 503.68 570.18 504.67 567.88 504.74 565.43V559.37C504.74 559.26 504.74 559.19 504.82 559.12 504.89 559.05 504.96 559.01 505.03 559.01 512.97 558.16 520.31 554.51 525.77 548.7 531.23 542.88 534.42 535.33 534.81 527.39 535.2 519.45 532.71 511.62 527.82 505.31 522.97 499.03 515.98 494.67 508.18 493.08L486.38 488.58C482.8 487.83 479.61 485.81 477.45 482.87 475.29 479.89 474.29 476.24 474.65 472.62 475.04 468.97 476.74 465.6 479.47 463.16 482.16 460.68 485.71 459.33 489.36 459.33H501.45C505.35 459.36 509.11 460.89 511.87 463.69 514.64 466.45 516.19 470.21 516.19 474.11V475C516.19 476.2 516.44 477.41 516.9 478.54 517.4 479.68 518.07 480.71 518.92 481.59 519.81 482.44 520.84 483.15 521.97 483.61 523.11 484.07 524.31 484.32 525.55 484.32V484.32Z" fill="#cfe1b9" opacity="1" stroke-width="2" stroke="#272d30"></path></g></svg>