<svg xmlns="http://www.w3.org/2000/svg" height="1200" width="1600" version="1.1" xmlns:xlink="http://www.w3.org/1999/xlink" xmlns:svgjs="http://svgjs.com/svgjs"><rect fill="#ffffff" width="1600" height="1200"></rect><g><path d="M1082.57 387.4L1294.95 175.02" stroke="#000000" stroke-width="1.5" stroke-linecap="round" stroke-linejoin="round" opacity="1" fill="none"></path><path d="M1134.01 236.38C1158.15 236.38 1177.73 216.8 1177.73 192.66 1177.73 168.52 1158.15 148.93 1134.01 148.93 1109.87 148.93 1090.28 168.52 1090.28 192.66 1090.28 216.8 1109.87 236.38 1134.01 236.38Z" fill="#cfe1b9" opacity="1" stroke-width="1.5" stroke="none"></path><path d="M1259.31 390.71C1283.45 390.71 1303.03 371.12 1303.03 346.98 1303.03 322.84 1283.45 303.26 1259.31 303.26 1235.17 303.26 1215.58 322.84 1215.58 346.98 1215.58 371.12 1235.17 390.71 1259.31 390.71Z" fill="#cfe1b9" opacity="1" stroke-width="1.5" stroke="none"></path></g><g><path d="M352.71 760.38C372.97 741.57 404.81 738.67 427.96 756.04 456.91 777.75 487.3 789.32 527.82 789.32 574.13 789.32 605.97 763.27 605.97 721.3V719.86C605.97 674.99 565.45 648.94 497.43 648.94H493.09C465.59 648.94 440.99 630.13 435.2 604.08 430.86 583.82 436.65 562.11 451.12 547.63L561.11 437.64H394.68C365.73 437.64 342.58 414.49 342.58 385.54 342.58 356.6 365.73 333.44 394.68 333.44H653.73C689.91 333.44 718.86 362.39 718.86 398.57 718.86 415.94 711.62 433.3 698.6 444.88L577.03 560.66C652.29 573.69 726.09 612.76 726.09 716.96V718.41C726.09 824.06 649.39 900.76 524.93 900.76 455.46 900.76 401.91 881.95 358.5 851.56 328.1 828.4 325.21 784.98 352.71 760.38Z" fill="#cfe1b9" opacity="1" stroke-width="1.5" stroke="none"></path></g><g><path d="M996 332.37C839.33 332.37 712.37 459.33 712.37 616 712.37 772.67 839.33 899.63 996 899.63 1152.67 899.63 1279.63 772.67 1279.63 616 1279.63 459.33 1152.67 332.37 996 332.37ZM996 773.21C909.02 773.21 838.79 702.98 838.79 616 838.79 529.02 909.02 458.79 996 458.79 1082.98 458.79 1153.21 529.02 1153.21 616 1153.21 702.98 1082.44 773.21 996 773.21Z" fill="#b9cfe1" opacity="1" stroke-width="1.5" stroke="none"></path></g><g><path d="M419.38 780.39C417.52 779.77 416.7 777.92 417.32 776.06 425.37 752.53 412.77 726.93 389.24 718.88 365.71 710.83 340.11 723.42 332.06 746.95 331.44 748.81 329.58 749.64 327.73 749.02 325.87 748.4 325.04 746.54 325.66 744.68 334.95 717.64 364.47 703.19 391.51 712.48 418.55 721.77 433 751.29 423.72 778.33 423.1 780.19 421.24 781.01 419.38 780.39Z" fill="#000000" opacity="1" stroke-width="1.5" stroke="none"></path><path d="M436.1 782.46L416.7 775.85 404.72 771.72 344.65 751.29 332.68 747.16 301.51 736.42 286.24 731.26 214.61 940.37 391.51 1001.06 463.14 791.75 436.1 782.46Z" fill="#b9cfe1" opacity="1" stroke-width="1.5" stroke="none"></path><path d="M259.61 879.48L280.87 903.22 312.25 897.64 333.51 921.38 364.88 915.6 386.35 939.55" stroke="#000000" stroke-width="1.5" stroke-linecap="round" stroke-linejoin="round" opacity="1" fill="none"></path><path d="M251.35 903.22L272.61 927.16 303.99 921.38 325.25 945.33 356.63 939.55 378.1 963.49" stroke="#000000" stroke-width="1.5" stroke-linecap="round" stroke-linejoin="round" opacity="1" fill="none"></path><path d="M348.37 889.8C377.1 889.8 400.39 866.51 400.39 837.78 400.39 809.07 377.1 785.76 348.37 785.76 319.64 785.76 296.35 809.07 296.35 837.78 296.35 866.51 319.64 889.8 348.37 889.8Z" fill="#ffffff" opacity="1" stroke-width="1.5" stroke="none"></path><path d="M338.25 825.6C342.36 825.6 345.69 822.28 345.69 818.17 345.69 814.08 342.36 810.74 338.25 810.74 334.15 810.74 330.82 814.08 330.82 818.17 330.82 822.28 334.15 825.6 338.25 825.6Z" fill="#828282" opacity="1" stroke-width="1.5" stroke="none"></path><path d="M366.95 833.44C371.06 833.44 374.38 830.12 374.38 826.01 374.38 821.93 371.06 818.58 366.95 818.58 362.84 818.58 359.52 821.93 359.52 826.01 359.52 830.12 362.84 833.44 366.95 833.44Z" fill="#828282" opacity="1" stroke-width="1.5" stroke="none"></path><path d="M346.72 850.78C350.83 850.78 354.15 847.46 354.15 843.35 354.15 839.27 350.83 835.92 346.72 835.92 342.61 835.92 339.29 839.27 339.29 843.35 339.29 847.46 342.61 850.78 346.72 850.78Z" stroke="#000000" stroke-width="1.5" stroke-linecap="round" stroke-linejoin="round" opacity="1" fill="none"></path><path d="M318.64 829.52C314.1 845.83 323.8 862.76 340.11 867.3 356.42 871.84 373.35 862.14 377.89 845.83" stroke="#000000" stroke-width="1.5" stroke-linecap="round" stroke-linejoin="round" opacity="1" fill="none"></path></g><g><path d="M556.46 780.02L606.63 828.53 608.3 898.86 609 931.38 609.41 948.2 673.07 948.75 809.97 950.01 829.99 788.36 910.05 789.06 903.93 700.52C901.29 652.15 862.37 613.1 813.87 611.57H787.74 773.42L742.43 638.53 711.43 611.71H670.15C626.23 611.71 588.15 642.01 578.28 684.95L556.46 780.02Z" fill="#ffffff" opacity="1" stroke-width="1.5" stroke="none"></path><path d="M608.3 898.86L609 931.38 608.44 950.14 673.07 948.75 624.29 856.47 608.3 898.86Z" fill="#000000" opacity="1" stroke-width="1.5" stroke="none"></path><path d="M711.29 611.71L742.29 665.5 758.83 636.86 773.42 611.57 742.15 611.71H711.29Z" fill="#dd8387" opacity="1" stroke-width="1.5" stroke="none"></path><path d="M722.41 611.71C725.47 618.38 730.33 623.94 736.17 628.25 737.01 628.94 738.12 629.64 739.09 630.47 740.9 631.44 742.84 632.42 744.79 633.25 748.96 635.2 753.82 636.31 758.97 636.72L773.84 611.57 742.15 611.71H722.41Z" fill="#000000" opacity="1" stroke-width="1.5" stroke="none"></path><path d="M742.29 665.5L770.08 646.32 793.85 662.3 773.42 611.57" stroke="#000000" stroke-width="1.5" stroke-linecap="round" stroke-linejoin="round" opacity="1" fill="none"></path><path d="M689.33 579.6C690.17 585.16 693.78 589.61 698.37 591.83 698.51 591.83 698.51 591.97 698.64 591.97 700.45 598.09 703.51 603.51 707.4 608.09 710.74 611.98 714.77 615.32 719.35 617.96 721.58 619.21 723.8 620.19 726.03 621.02 727.97 621.85 730.06 622.41 732.42 622.96 737.56 624.08 742.98 624.22 748.54 623.38 773.28 619.63 790.1 596.42 786.35 571.96 784.54 560.14 778.28 550.13 769.67 543.32 768 542.07 765.5 543.6 763.69 542.63 754.93 538.04 745.48 534.99 734.78 536.65 721.3 538.6 715.18 545.97 708.51 555.97 706.98 558.2 700.87 559.31 699.9 561.95H699.76C699.48 562.09 699.06 562.23 698.78 562.37H698.64C692.11 565.42 688.22 572.23 689.33 579.6Z" fill="#dd8387" opacity="1" stroke-width="1.5" stroke="none"></path><path d="M747.15 570.01C745.23 570.01 743.68 568.47 743.68 566.54 743.68 564.62 745.23 563.06 747.15 563.06 749.07 563.06 750.63 564.62 750.63 566.54 750.63 568.47 749.07 570.01 747.15 570.01Z" fill="#000000" opacity="1" stroke-width="1.5" stroke="none"></path><path d="M763.69 567.37C761.77 567.37 760.22 565.83 760.22 563.89 760.22 561.98 761.77 560.42 763.69 560.42 765.61 560.42 767.17 561.98 767.17 563.89 767.17 565.83 765.61 567.37 763.69 567.37Z" fill="#000000" opacity="1" stroke-width="1.5" stroke="none"></path><path d="M699.9 561.95C700.87 561.67 701.84 561.39 702.81 561.25 707.26 560.56 711.57 561.81 714.91 564.31 722.83 559.31 728.94 551.66 732.14 542.77 738.95 547.49 747.29 549.86 756.05 548.75 761.33 548.05 765.78 546.1 769.81 543.46 760.36 535.96 747.85 532.34 735.06 534.29 718.52 536.51 705.59 547.49 699.9 561.95Z" fill="#000000" opacity="1" stroke-width="1.5" stroke="none"></path><path d="M746.6 583.77C749.24 588.63 753.96 591.55 759.52 591.55" stroke="#000000" stroke-width="1.5" stroke-linecap="round" stroke-linejoin="round" opacity="1" fill="none"></path><path d="M754.93 575.15L761.47 574.18C763.55 573.9 765.5 575.29 765.91 577.52 766.19 579.6 764.8 581.55 762.58 581.96L756.05 582.94" stroke="#000000" stroke-width="1.5" stroke-linecap="round" stroke-linejoin="round" opacity="1" fill="none"></path><path d="M698.23 591.97C699.62 592.67 701.15 593.08 702.81 593.36 704.34 593.64 706.01 593.64 707.68 593.22" stroke="#000000" stroke-width="1.5" stroke-linecap="round" stroke-linejoin="round" opacity="1" fill="none"></path><path d="M661.4 721.23L641.38 808.38" stroke="#000000" stroke-width="1.5" stroke-linecap="round" stroke-linejoin="round" opacity="1" fill="none"></path><path d="M742.18 665.44L742.22 665.44 713.66 645.95 690.03 661.94 711.15 611.48" stroke="#000000" stroke-width="1.5" stroke-linecap="round" stroke-linejoin="round" opacity="1" fill="none"></path><path d="M765.64 714.28C761.49 714.28 758.13 710.93 758.13 706.78 758.13 702.63 761.49 699.27 765.64 699.27 769.79 699.27 773.14 702.63 773.14 706.78 773.14 710.93 769.79 714.28 765.64 714.28Z" fill="#8c8c8c" opacity="1" stroke-width="1.5" stroke="none"></path><path d="M761.19 763.2C757.05 763.2 753.68 759.85 753.68 755.7 753.68 751.56 757.05 748.19 761.19 748.19 765.34 748.19 768.69 751.56 768.69 755.7 768.69 759.85 765.34 763.2 761.19 763.2Z" fill="#8c8c8c" opacity="1" stroke-width="1.5" stroke="none"></path><path d="M756.88 812.41C752.74 812.41 749.38 809.06 749.38 804.9 749.38 800.76 752.74 797.4 756.88 797.4 761.04 797.4 764.39 800.76 764.39 804.9 764.39 809.06 761.04 812.41 756.88 812.41Z" fill="#8c8c8c" opacity="1" stroke-width="1.5" stroke="none"></path><path d="M752.57 861.33C748.43 861.33 745.07 857.98 745.07 853.82 745.07 849.68 748.43 846.32 752.57 846.32 756.73 846.32 760.08 849.68 760.08 853.82 760.08 857.98 756.73 861.33 752.57 861.33Z" fill="#8c8c8c" opacity="1" stroke-width="1.5" stroke="none"></path><path d="M748.12 910.25C743.98 910.25 740.62 906.9 740.62 902.75 740.62 898.61 743.98 895.24 748.12 895.24 752.28 895.24 755.63 898.61 755.63 902.75 755.63 906.9 752.28 910.25 748.12 910.25Z" fill="#8c8c8c" opacity="1" stroke-width="1.5" stroke="none"></path><path d="M829.99 774.46L826.24 725.68 864.87 781.97 829.99 774.46Z" fill="#000000" opacity="1" stroke-width="1.5" stroke="none"></path><path d="M742.68 665.82L716.91 948.64" stroke="#000000" stroke-width="1.5" stroke-linecap="round" stroke-linejoin="round" opacity="1" fill="none"></path><path d="M893.37 774.6L917.97 660.49C919.08 653.68 922 647.57 926.03 642.42 933.81 630.47 947.43 622.69 961.75 621.99 963.7 621.85 965.64 621.99 967.59 621.99 973.29 622.13 978.85 622.13 983.57 619.35 984.96 618.52 986.21 617.54 987.32 616.43 989.96 614.35 992.47 611.98 995.94 611.71 998.58 611.43 1001.08 612.26 1003.31 614.35 1005.95 616.85 1007.48 620.46 1007.34 623.94 1007.2 626.72 1006.36 629.5 1004.7 632.14H1014.43C1021.38 632.14 1027.21 637.84 1027.21 644.93 1027.21 647.7 1026.38 650.21 1024.85 652.29 1024.57 652.71 1024.57 653.4 1024.85 653.82 1025.41 654.65 1025.96 655.63 1026.52 656.6 1027.77 659.8 1027.63 663.27 1026.24 666.47 1025.68 667.86 1024.85 668.97 1023.88 670.08 1023.46 670.5 1023.46 671.19 1023.74 671.75 1024.29 672.58 1024.85 673.42 1025.13 674.53 1026.38 677.73 1026.24 681.2 1024.85 684.4 1023.46 687.46 1020.96 689.96 1017.76 691.21L993.44 700.52C991.91 701.08 990.38 701.35 988.85 701.35 987.18 701.35 985.24 700.94 983.71 700.24 983.43 700.1 983.15 699.96 982.88 699.83 979.54 702.47 975.93 704.55 971.9 705.94L939.93 886.49C935.2 906.78 917.41 921.1 896.56 921.1 875.16 921.1 857.79 906.08 853.34 886.77L829.99 788.36V774.46L893.37 774.6Z" fill="#dd8387" opacity="1" stroke-width="1.5" stroke="none"></path><path d="M878.77 839.23L893.37 774.6" stroke="#000000" stroke-width="1.5" stroke-linecap="round" stroke-linejoin="round" opacity="1" fill="none"></path><path d="M1004.7 632.14H975.23C962.31 633.25 963.7 644.79 963.7 644.79 963.7 651.18 968.84 656.46 975.37 656.46H1014.7" stroke="#000000" stroke-width="1.5" stroke-linecap="round" stroke-linejoin="round" opacity="1" fill="none"></path><path d="M967.03 679.39C969.39 685.37 975.93 688.29 982.04 686.2L1018.87 672.17" stroke="#000000" stroke-width="1.5" stroke-linecap="round" stroke-linejoin="round" opacity="1" fill="none"></path><path d="M992.61 656.46L973.7 664.24C967.73 666.61 964.81 673.14 966.89 679.26" stroke="#000000" stroke-width="1.5" stroke-linecap="round" stroke-linejoin="round" opacity="1" fill="none"></path><path d="M976.62 686.76C976.62 693.99 978.43 697.46 982.88 699.83" stroke="#000000" stroke-width="1.5" stroke-linecap="round" stroke-linejoin="round" opacity="1" fill="none"></path><path d="M948.41 649.37C957.3 653.68 964.25 661.88 966.89 671.47" stroke="#000000" stroke-width="1.5" stroke-linecap="round" stroke-linejoin="round" opacity="1" fill="none"></path><path d="M971.9 705.94C960.78 708.86 948.41 707.89 938.12 702.47" stroke="#000000" stroke-width="1.5" stroke-linecap="round" stroke-linejoin="round" opacity="1" fill="none"></path><path d="M534.08 878.15L556.6 779.74 641.38 808.38 623.03 888.57C625.54 885.51 629.29 883.43 633.6 883.43 640.13 883.43 645.55 888.02 646.8 894.27 646.8 894.55 647.22 894.55 647.36 894.27 648.61 888.16 654.03 883.43 660.56 883.43 667.09 883.43 672.51 888.02 673.77 894.27 673.77 894.55 674.18 894.55 674.32 894.27 675.57 887.88 681.41 883.15 688.08 883.57 695.31 883.99 701.01 890.24 701.01 897.47V952.92C701.01 960.01 695.31 965.85 688.08 965.85 680.99 965.85 675.16 960.15 675.16 952.92V914.98C675.16 914.42 674.46 914.42 674.32 914.84L661.26 954.45C660.01 958.34 656.25 961.12 652.22 961.12 645.69 961.12 641.1 954.73 643.19 948.62L641.38 954.45C640.13 958.34 636.38 961.12 632.35 961.12 625.81 961.12 621.23 954.73 623.31 948.62L621.51 954.45C620.25 958.34 616.5 961.12 612.47 961.12 605.94 961.12 601.35 954.73 603.44 948.62L603.58 948.2 589.82 948.06C553.12 948.06 525.88 913.87 534.08 878.15Z" fill="#dd8387" opacity="1" stroke-width="1.5" stroke="none"></path><path d="M603.44 948.62L620.95 892.32C622.76 887.18 627.76 883.43 633.6 883.43" stroke="#000000" stroke-width="1.5" stroke-linecap="round" stroke-linejoin="round" opacity="1" fill="none"></path><path d="M643.19 948.62L654.86 912.06" stroke="#000000" stroke-width="1.5" stroke-linecap="round" stroke-linejoin="round" opacity="1" fill="none"></path><path d="M634.71 912.06L623.31 948.62" stroke="#000000" stroke-width="1.5" stroke-linecap="round" stroke-linejoin="round" opacity="1" fill="none"></path><path d="M694.34 963.9V955.15C694.34 951.53 691.42 948.48 687.66 948.48 684.05 948.48 680.99 951.39 680.99 955.15V963.76" stroke="#000000" stroke-width="1.5" stroke-linecap="round" stroke-linejoin="round" opacity="1" fill="none"></path><path d="M645.55 940.97C648.33 942.78 650.28 945.97 650.55 949.31 650.83 952.65 648.47 956.82 646.11 958.9" stroke="#000000" stroke-width="1.5" stroke-linecap="round" stroke-linejoin="round" opacity="1" fill="none"></path><path d="M625.68 940.97C628.46 942.78 630.12 945.97 630.4 949.31 630.68 952.65 628.59 956.82 626.23 958.9" stroke="#000000" stroke-width="1.5" stroke-linecap="round" stroke-linejoin="round" opacity="1" fill="none"></path><path d="M605.94 940.97C608.72 942.78 610.66 945.97 610.94 949.31 611.22 952.65 609.14 957.09 606.77 959.18" stroke="#000000" stroke-width="1.5" stroke-linecap="round" stroke-linejoin="round" opacity="1" fill="none"></path><path d="M623.03 888.57L579.53 847.57" stroke="#000000" stroke-width="1.5" stroke-linecap="round" stroke-linejoin="round" opacity="1" fill="none"></path><path d="M829.99 774.46L826.24 725.68" stroke="#000000" stroke-width="1.5" stroke-linecap="round" stroke-linejoin="round" opacity="1" fill="none"></path><path d="M774.95 609.34C768.28 616.57 759.1 621.71 748.54 623.38 742.98 624.22 737.56 624.08 732.42 622.96 730.06 622.41 727.97 621.85 726.03 621.02 723.8 620.19 721.58 619.21 719.35 617.96 714.77 615.32 710.74 611.98 707.4 608.09" stroke="#000000" stroke-width="1.5" stroke-linecap="round" stroke-linejoin="round" opacity="1" fill="none"></path></g><g><path d="M1172.58 786.6L1221.5 797.27 1234.06 791.6 1241.09 801.6 1289.87 812.14C1292.03 812.54 1294.06 811.06 1294.6 808.62L1316.09 710.11C1316.63 707.68 1315.41 705.52 1313.25 704.98L1195.96 679.44C1193.79 679.03 1191.77 680.52 1191.23 682.95L1169.74 781.46C1169.47 784.03 1170.69 786.19 1172.58 786.6Z" fill="#cfe1b9" opacity="1" stroke-width="1.5" stroke="none"></path><path d="M1183.25 720.79L1235.68 732.27 1245.01 689.71 1264.47 693.89 1255.28 736.46 1307.85 747.95 1303.12 769.97 1250.41 758.49 1241.09 801.6 1221.5 797.27 1230.95 754.16 1178.39 742.68 1183.25 720.79Z" fill="#8c9680" opacity="1" stroke-width="1.5" stroke="none"></path><path d="M1213.52 658.76C1219.06 650.52 1230.41 648.35 1238.52 654.03 1240.95 655.79 1242.85 657.68 1244.06 660.11L1256.9 682.27 1277.85 667.41C1280.14 665.79 1282.71 664.71 1285.41 664.3 1295.28 662.68 1304.47 669.3 1306.09 679.03 1307.71 688.89 1301.09 698.08 1291.36 699.71 1288.52 700.25 1285.82 699.98 1283.12 699.03L1264.47 694.98 1254.6 692.81 1244.74 690.65 1226.09 686.6C1223.39 686.33 1220.68 685.25 1218.39 683.76 1210.14 678.35 1207.98 667.14 1213.52 658.76ZM1289.06 693.08C1295.14 692 1299.2 686.33 1298.12 680.38 1297.03 674.3 1291.36 670.25 1285.41 671.33 1283.66 671.6 1282.17 672.41 1280.82 673.22L1260.55 687.68 1283.93 692.81C1285.68 693.22 1287.31 693.49 1289.06 693.08ZM1223.39 678.76C1224.87 679.84 1226.5 680.38 1228.12 680.52L1251.49 685.65 1239.06 664.17C1238.25 662.68 1237.17 661.46 1235.68 660.52 1230.55 657.14 1223.79 658.35 1220.28 663.49 1217.04 668.49 1218.39 675.38 1223.39 678.76Z" fill="#8c9680" opacity="1" stroke-width="1.5" stroke="none"></path></g><g><path d="M1172.95 896C1181.09 896 1187.69 889.4 1187.69 881.26 1187.69 873.12 1181.09 866.52 1172.95 866.52 1164.81 866.52 1158.21 873.12 1158.21 881.26 1158.21 889.4 1164.81 896 1172.95 896Z" fill="#cfe1b9" opacity="1" stroke-width="1.5" stroke="none"></path><path d="M1172.95 888.25C1176.81 888.25 1179.94 885.12 1179.94 881.26 1179.94 877.4 1176.81 874.27 1172.95 874.27 1169.09 874.27 1165.96 877.4 1165.96 881.26 1165.96 885.12 1169.09 888.25 1172.95 888.25Z" fill="#ffffff" opacity="1" stroke-width="1.5" stroke="none"></path><path d="M1297.23 896C1305.37 896 1311.96 889.4 1311.96 881.26 1311.96 873.12 1305.37 866.52 1297.23 866.52 1289.09 866.52 1282.49 873.12 1282.49 881.26 1282.49 889.4 1289.09 896 1297.23 896Z" fill="#cfe1b9" opacity="1" stroke-width="1.5" stroke="none"></path><path d="M1297.23 888.25C1301.09 888.25 1304.21 885.12 1304.21 881.26 1304.21 877.4 1301.09 874.27 1297.23 874.27 1293.37 874.27 1290.24 877.4 1290.24 881.26 1290.24 885.12 1293.37 888.25 1297.23 888.25Z" fill="#ffffff" opacity="1" stroke-width="1.5" stroke="none"></path><path d="M1312.93 858.63H1175.85C1174.4 850.74 1169.42 822.44 1166.23 797.18 1164.64 784.73 1160.49 776.22 1153.78 771.72 1150.32 769.57 1147.14 768.95 1145.2 768.74 1143.95 768.6 1142.98 767.71 1142.85 766.53 1141.39 756.29 1135.65 714.28 1135.65 714.28 1135.03 711.38 1133.57 709.65 1130.74 709.37H1113.92C1113.92 709.37 1111.71 709.79 1111.15 711.52L1104.99 727.09C1104.23 729.02 1105.06 731.38 1107 732.21 1109.01 733.04 1111.36 732.07 1112.12 730.06L1117.52 716.36C1117.66 716.01 1118 715.81 1118.35 715.81H1125.48C1128.38 715.81 1129.84 717.95 1130.25 720.79L1148.87 862.51C1149.07 864.17 1150.53 865.41 1152.19 865.41H1167.55L1169.76 882.16H1176.27L1178.48 865.41H1291.76L1293.97 882.16H1300.48L1302.69 865.41H1313.14C1315.01 865.41 1316.6 863.82 1316.53 861.95 1316.39 860.02 1314.8 858.63 1312.93 858.63ZM1143.95 776.56C1143.88 775.94 1144.37 775.46 1144.99 775.46 1148.24 775.8 1157.03 778.5 1159.52 798.08 1162.36 820.57 1166.65 845.41 1168.59 856.35 1168.79 857.52 1167.9 858.63 1166.65 858.63H1157.03C1155.92 858.63 1154.96 857.8 1154.82 856.69L1143.95 776.56Z" fill="#000000" opacity="1" stroke-width="1.5" stroke="none"></path><path d="M1178.41 865.41L1167.96 869.08 1167.41 865.41H1178.41Z" fill="#000000" opacity="1" stroke-width="1.5" stroke="none"></path><path d="M1302.69 865.41L1292.24 869.08 1291.62 865.41H1302.69Z" fill="#000000" opacity="1" stroke-width="1.5" stroke="none"></path></g><g><path d="M1390.74 563.43L1359.35 583.97 1321.76 594.99C1313.06 597.54 1304.02 592.51 1301.5 583.92L1268.65 471.85C1266.1 463.15 1271.13 454.11 1279.72 451.59L1317.77 440.44 1356.31 449.42C1365.01 446.87 1369.85 432.85 1372.37 441.44L1405.22 553.51C1407.74 562.1 1399.45 560.88 1390.74 563.43Z" fill="#313e22" opacity="1" stroke-width="1.5" stroke="none"></path><path d="M1432.9 562.41L1360.62 583.6C1351.92 586.15 1342.89 581.11 1340.37 572.53L1307.51 460.45C1304.96 451.75 1310 442.71 1318.58 440.2L1390.86 419.01C1399.57 416.46 1408.6 421.49 1411.12 430.08L1443.97 542.15C1446.49 550.74 1441.49 559.89 1432.9 562.41Z" fill="#cfe1b9" opacity="1" stroke-width="1.5" stroke="none"></path><path d="M1360.58 516.84C1374.17 512.85 1381.95 498.61 1377.97 485.03 1373.98 471.44 1359.74 463.66 1346.16 467.64 1332.57 471.63 1324.79 485.86 1328.77 499.45 1332.76 513.04 1346.99 520.82 1360.58 516.84Z" fill="#313e22" opacity="1" stroke-width="1.5" stroke="none"></path><path d="M1356.43 502.68C1362.2 500.99 1365.5 494.94 1363.81 489.18 1362.12 483.41 1356.07 480.11 1350.31 481.8 1344.54 483.49 1341.24 489.53 1342.93 495.3 1344.62 501.07 1350.66 504.37 1356.43 502.68Z" fill="#cfe1b9" opacity="1" stroke-width="1.5" stroke="none"></path><path d="M1403.77 539.96C1412.29 537.46 1417.18 528.53 1414.68 520 1412.18 511.47 1403.24 506.6 1394.72 509.09 1386.19 511.59 1381.31 520.52 1383.81 529.05 1386.31 537.58 1395.24 542.46 1403.77 539.96Z" fill="#313e22" opacity="1" stroke-width="1.5" stroke="none"></path><path d="M1401.15 531.02C1404.74 529.97 1406.79 526.21 1405.74 522.62 1404.69 519.04 1400.93 516.98 1397.34 518.03 1393.76 519.08 1391.7 522.84 1392.75 526.43 1393.8 530.01 1397.57 532.07 1401.15 531.02Z" fill="#cfe1b9" opacity="1" stroke-width="1.5" stroke="none"></path><path d="M1399.46 476.71C1407.98 474.21 1412.87 465.28 1410.37 456.76 1407.88 448.24 1398.93 443.35 1390.42 445.85 1381.89 448.35 1377.01 457.29 1379.51 465.8 1382.01 474.33 1390.94 479.21 1399.46 476.71Z" fill="#313e22" opacity="1" stroke-width="1.5" stroke="none"></path><path d="M1396.85 467.78C1400.43 466.73 1402.49 462.96 1401.44 459.37 1400.39 455.79 1396.62 453.73 1393.04 454.78 1389.45 455.83 1387.39 459.6 1388.44 463.18 1389.5 466.77 1393.26 468.83 1396.85 467.78Z" fill="#cfe1b9" opacity="1" stroke-width="1.5" stroke="none"></path></g></svg>