<svg xmlns="http://www.w3.org/2000/svg" height="1200" width="1600" version="1.1" xmlns:xlink="http://www.w3.org/1999/xlink" xmlns:svgjs="http://svgjs.com/svgjs"><rect fill="#f3f4fb" width="1600" height="1200"></rect><g><path d="M518.26 951.03C518.26 951.47 518.26 951.47 518.26 951.03L1083.3 951.47C1083.74 951.47 1083.74 951.47 1083.74 951.03L1140.15 315.26V314.83C1140.15 314.83 1140.15 314.83 1139.72 314.83L462.28 314.83H461.85C461.85 314.83 461.85 314.83 461.85 315.26L518.26 951.03Z" fill="#ffffff" opacity="1" stroke-width="1" stroke="none"></path><path d="M502.21 345.2L582.49 345.2" stroke="#000000" stroke-width="1" stroke-linecap="round" stroke-linejoin="round" opacity="1" fill="none"></path><path d="M502.21 367.34L582.49 367.34" stroke="#000000" stroke-width="1" stroke-linecap="round" stroke-linejoin="round" opacity="1" fill="none"></path><path d="M502.21 389.9H582.49" stroke="#000000" stroke-width="1" stroke-linecap="round" stroke-linejoin="round" opacity="1" fill="none"></path><path d="M662.34 337.39C662.34 337.39 662.34 337.83 662.34 337.39 662.34 337.83 662.78 337.83 662.78 337.83H683.61C684.04 337.83 684.04 337.83 684.04 337.39 684.48 281.84 729.18 237.14 784.73 237.14H817.27C872.82 237.14 917.09 281.84 917.52 337.39 917.52 337.83 917.52 337.83 917.96 337.83H938.79 939.22C939.22 337.83 939.22 337.83 939.22 337.39 938.79 270.13 884.54 215.45 817.27 215.45L784.73 215.45C717.46 215.45 662.78 269.69 662.34 337.39Z" fill="#e9f5db" opacity="1" stroke-width="1" stroke="none"></path><path d="M928.81 337.39C928.81 275.77 878.9 226.29 817.71 226.29H785.16C723.54 226.29 674.06 276.2 674.06 337.39" stroke="#000000" stroke-width="1" stroke-linecap="round" stroke-linejoin="round" opacity="1" fill="none"></path><path d="M672.76 373.41C666.29 373.41 661.04 368.16 661.04 361.7 661.04 355.23 666.29 349.98 672.76 349.98 679.23 349.98 684.48 355.23 684.48 361.7 684.48 368.16 679.23 373.41 672.76 373.41Z" stroke="#000000" stroke-width="1" stroke-linecap="round" stroke-linejoin="round" opacity="1" fill="none"></path><path d="M928.81 373.41C922.34 373.41 917.09 368.16 917.09 361.7 917.09 355.23 922.34 349.98 928.81 349.98 935.27 349.98 940.52 355.23 940.52 361.7 940.52 368.16 935.27 373.41 928.81 373.41Z" stroke="#000000" stroke-width="1" stroke-linecap="round" stroke-linejoin="round" opacity="1" fill="none"></path></g><g><path d="M1132.78 435.9C1190.99 435.9 1238.17 388.71 1238.17 330.51 1238.17 272.31 1190.99 225.12 1132.78 225.12 1074.58 225.12 1027.39 272.31 1027.39 330.51 1027.39 388.71 1074.58 435.9 1132.78 435.9Z" fill="#cfe1b9" opacity="1" stroke-width="1" stroke="none"></path><path d="M1149.42 319.42C1149.42 309.12 1141.1 305.95 1129.61 305.95 1118.12 305.95 1111.79 312.29 1111.79 320.61 1111.79 328.93 1118.12 332.89 1130.41 332.89 1142.69 332.89 1149.03 338.04 1149.03 346.76 1149.03 355.08 1143.88 359.43 1130.41 359.43 1116.94 359.43 1111.79 358.64 1111.79 351.51" stroke="#000000" stroke-width="1" stroke-linecap="round" stroke-linejoin="round" opacity="1" fill="none"></path><path d="M1130.8 291.29V305.95" stroke="#000000" stroke-width="1" stroke-linecap="round" stroke-linejoin="round" opacity="1" fill="none"></path><path d="M1130.8 359.43V375.28" stroke="#000000" stroke-width="1" stroke-linecap="round" stroke-linejoin="round" opacity="1" fill="none"></path></g><g><path d="M774.42 779.57L790.68 643.17H804.91L781.76 780.59C781.42 782.4 779.95 783.64 778.15 783.64 776.12 783.64 774.42 781.94 774.42 779.91 774.42 779.8 774.42 779.69 774.42 779.57Z" fill="#cfe1b9" opacity="1" stroke-width="1" stroke="none"></path><path d="M789.78 650.96L803.22 652.88 804.46 645.65 790.57 644.53 789.78 650.96Z" fill="#000000" opacity="0.15" stroke-width="1" stroke="none"></path><path d="M715.48 778.9L759.4 633.46 772.84 637.52 722.48 781.15C721.92 782.62 720.56 783.64 718.98 783.64 716.95 783.64 715.25 781.94 715.25 779.91 715.37 779.57 715.37 779.23 715.48 778.9Z" fill="#cfe1b9" opacity="1" stroke-width="1" stroke="none"></path><path d="M756.92 641.59L770.02 645.54 771.94 640.01 759.18 634.14 756.92 641.59Z" fill="#000000" opacity="0.15" stroke-width="1" stroke="none"></path><path d="M766.29 450.2H736.37C712.09 450.2 692.56 469.84 692.56 494.01 692.56 496.83 692.78 499.65 693.35 502.36L704.64 560.52C714.69 611.78 759.52 648.7 811.68 648.7H832.01C848.27 648.7 863.96 642.15 875.37 630.64L886.55 619.35 896.94 569.89 904.61 557.13C905.4 555.77 904.5 553.97 902.81 553.97H840.93L819.25 488.47C811.8 465.67 790.46 450.2 766.29 450.2Z" fill="#cfe1b9" opacity="1" stroke-width="1" stroke="none"></path><path d="M851.66 648.82L899.87 781.38C900.44 782.74 901.68 783.64 903.15 783.64 905.07 783.64 906.65 782.06 906.65 780.14 906.65 779.8 906.65 779.46 906.53 779.12L867.92 643.17 851.66 648.82Z" fill="#cfe1b9" opacity="1" stroke-width="1" stroke="none"></path><path d="M855.38 659.2L870.4 652.09 868.59 645.65 853.24 652.99 855.38 659.2Z" fill="#000000" opacity="0.15" stroke-width="1" stroke="none"></path><path d="M834.04 657.17C796.21 657.17 765.61 626.46 765.5 588.74V578.58C765.5 576.21 763.58 574.4 761.32 574.4H694.25C688.04 574.4 682.96 569.32 682.96 563.11 682.96 556.9 688.04 551.82 694.25 551.82H761.21C776 551.82 787.97 563.79 787.97 578.58V588.74C788.42 614.15 809.2 634.36 834.61 633.91 859.45 633.57 879.43 613.47 879.77 588.74V578.58C879.77 563.79 891.74 551.82 906.53 551.82 912.74 551.82 917.83 556.9 917.83 563.11 917.83 569.32 912.74 574.4 906.53 574.4 904.16 574.4 902.36 576.32 902.36 578.58V588.74C902.47 626.57 871.76 657.17 834.04 657.17Z" fill="#000000" opacity="1" stroke-width="1" stroke="none"></path><path d="M694.25 563.11H761.21C769.79 563.11 776.68 570 776.68 578.58V588.74C776.68 620.36 802.31 645.99 833.93 645.99 865.55 645.99 891.18 620.36 891.18 588.74V578.58C891.18 570 898.07 563.11 906.65 563.11" stroke="#000000" stroke-width="1" stroke-linecap="round" stroke-linejoin="round" opacity="1" fill="none"></path></g><g><path d="M717.85 1023.17C730.08 1023.17 740 1013.24 740 1001.01 740 988.78 730.08 978.85 717.85 978.85 705.61 978.85 695.69 988.78 695.69 1001.01 695.69 1013.24 705.61 1023.17 717.85 1023.17Z" fill="#000000" opacity="1" stroke-width="1" stroke="none"></path><path d="M311.35 221.15C323.58 221.15 333.5 211.22 333.5 198.99 333.5 186.76 323.58 176.83 311.35 176.83 299.11 176.83 289.19 186.76 289.19 198.99 289.19 211.22 299.11 221.15 311.35 221.15Z" fill="#000000" opacity="1" stroke-width="1" stroke="none"></path><path d="M346.02 726.67C358.26 726.67 368.18 716.75 368.18 704.52 368.18 692.28 358.26 682.36 346.02 682.36 333.79 682.36 323.87 692.28 323.87 704.52 323.87 716.75 333.79 726.67 346.02 726.67Z" fill="#000000" opacity="1" stroke-width="1" stroke="none"></path><path d="M1294.65 260.83C1306.89 260.83 1316.81 250.91 1316.81 238.68 1316.81 226.44 1306.89 216.52 1294.65 216.52 1282.42 216.52 1272.5 226.44 1272.5 238.68 1272.5 250.91 1282.42 260.83 1294.65 260.83Z" fill="#000000" opacity="1" stroke-width="1" stroke="none"></path></g><g><path d="M1247.2 998.35C1247.2 998.49 1247.2 998.49 1247.06 998.49L1103.54 1028.54 1097.81 1029.69 941.85 1062.31C941.7 1062.31 941.7 1062.31 941.7 1062.17L912.94 925.37V925.23C912.94 925.23 912.94 925.23 913.08 925.23L931.26 921.51 1218.44 861.41H1218.58C1218.58 861.41 1218.58 861.41 1218.58 861.55L1247.2 998.35Z" fill="#cfe1b9" opacity="1" stroke-width="1" stroke="none"></path><path d="M1086.8 960.57C1094.81 998.35 1070.48 1035.55 1032.71 1043.42L1010.1 1048.14C972.32 1056.01 935.26 1031.83 927.25 994.06 919.38 956.28 943.56 919.22 981.34 911.21L1003.95 906.48C1041.72 898.61 1078.78 922.8 1086.8 960.57Z" fill="#555555" opacity="1" stroke-width="1" stroke="none"></path><path d="M912.94 925.52L1091.38 824.49 1218.58 861.55" stroke="#000000" stroke-width="1" stroke-linecap="round" stroke-linejoin="round" opacity="1" fill="none"></path><path d="M1108.12 955.28C1108.12 955.14 1108.12 955.14 1108.26 955.14L1210.43 934.53C1210.57 934.53 1210.57 934.53 1210.57 934.67L1212.57 944.69C1212.57 944.83 1212.57 944.83 1212.43 944.83L1110.26 965.29C1110.12 965.29 1110.12 965.29 1110.12 965.15L1108.12 955.28Z" fill="#000000" opacity="1" stroke-width="1" stroke="none"></path><path d="M1100.39 922.8C1100.39 922.65 1100.39 922.65 1100.53 922.65L1143.46 914.07C1143.6 914.07 1143.6 914.07 1143.6 914.21L1145.61 924.23C1145.61 924.37 1145.61 924.37 1145.46 924.37L1102.54 932.96C1102.39 932.96 1102.39 932.96 1102.39 932.81L1100.39 922.8Z" fill="#000000" opacity="1" stroke-width="1" stroke="none"></path><path d="M1111.98 974.45C1111.98 974.31 1111.98 974.31 1112.12 974.31L1214.29 953.7C1214.43 953.7 1214.43 953.7 1214.43 953.85L1216.44 963.86C1216.44 964.01 1216.44 964.01 1216.29 964.01L1114.27 984.47C1114.13 984.47 1114.13 984.47 1114.13 984.33L1111.98 974.45Z" fill="#000000" opacity="1" stroke-width="1" stroke="none"></path><path d="M1115.84 993.63C1115.84 993.48 1115.84 993.48 1115.99 993.48L1218.15 972.88C1218.3 972.88 1218.3 972.88 1218.3 973.02L1220.3 983.04C1220.3 983.18 1220.3 983.18 1220.16 983.18L1117.99 1003.79C1117.85 1003.79 1117.85 1003.79 1117.85 1003.64L1115.84 993.63Z" fill="#000000" opacity="1" stroke-width="1" stroke="none"></path><path d="M1096.38 1029.69C1096.53 1029.69 1096.53 1029.83 1096.38 1029.69 1096.53 1029.83 1096.53 1029.97 1096.38 1029.97L941.7 1062.31C941.56 1062.31 941.56 1062.31 941.56 1062.17L912.8 925.37V925.23C912.8 925.23 912.8 925.23 912.94 925.23L931.11 921.51C946.57 990.48 1019.83 1030.11 1096.38 1029.69Z" fill="#000000" opacity="0.15" stroke-width="1" stroke="none"></path><path d="M1191.83 905.91C1191.83 905.91 1191.97 905.91 1191.83 905.91 1191.97 905.91 1191.97 906.05 1191.97 906.05 1193.11 912.49 1189.11 918.65 1182.81 919.93 1176.37 921.22 1170.22 917.22 1168.79 910.92V910.78C1168.79 910.78 1168.79 910.78 1168.93 910.78L1191.83 905.91Z" fill="#555555" opacity="1" stroke-width="1" stroke="none"></path><path d="M1169.93 905.05C1171.59 905.05 1172.94 903.71 1172.94 902.05 1172.94 900.39 1171.59 899.04 1169.93 899.04 1168.27 899.04 1166.93 900.39 1166.93 902.05 1166.93 903.71 1168.27 905.05 1169.93 905.05Z" fill="#555555" opacity="1" stroke-width="1" stroke="none"></path><path d="M1187.39 901.48C1189.05 901.48 1190.39 900.13 1190.39 898.47 1190.39 896.81 1189.05 895.47 1187.39 895.47 1185.73 895.47 1184.38 896.81 1184.38 898.47 1184.38 900.13 1185.73 901.48 1187.39 901.48Z" fill="#555555" opacity="1" stroke-width="1" stroke="none"></path></g><g><path d="M947.05 990.84C945.26 982.4 950.61 974.17 959.05 972.38L1053.98 952.25C1062.43 950.45 1070.65 955.8 1072.44 964.24 1074.23 972.68 1068.89 980.91 1060.44 982.7L965.51 1002.84C957.07 1004.63 948.84 999.28 947.05 990.84Z" fill="#000000" opacity="1" stroke-width="1" stroke="none"></path><path d="M963.32 977.11L963.39 977.01C963.39 977.01 963.48 976.99 963.5 977.08L967.38 982.07 973.74 981.63C973.74 981.63 973.83 981.62 973.84 981.7L973.86 981.79 973.88 981.88 970.28 987.19 972.63 993.14 972.65 993.23 972.57 993.25 966.47 991.54 961.6 995.58 961.51 995.59 961.5 995.51 961.14 989.13 955.78 985.72 955.76 985.63 955.74 985.54C955.74 985.54 955.73 985.45 955.81 985.44L961.79 983.17 963.32 977.11Z" fill="#ffffff" opacity="1" stroke-width="1" stroke="none"></path><path d="M985.69 972.37L985.76 972.26C985.76 972.26 985.84 972.25 985.86 972.33L989.74 977.33 996.12 976.98C996.12 976.98 996.21 976.96 996.23 977.05L996.25 977.13 996.26 977.22 992.75 982.51 995.02 988.49 995.04 988.57 994.95 988.59 988.86 986.88 983.98 990.92 983.9 990.94 983.88 990.85 983.53 984.47 978.16 981.06 978.15 980.97 978.13 980.88C978.13 980.88 978.11 980.8 978.2 980.78L984.17 978.51 985.69 972.37Z" fill="#ffffff" opacity="1" stroke-width="1" stroke="none"></path><path d="M1008.05 967.63L1008.12 967.52C1008.12 967.52 1008.21 967.5 1008.23 967.59L1012.1 972.59 1018.49 972.23C1018.49 972.23 1018.57 972.21 1018.59 972.3L1018.61 972.39 1018.63 972.48 1015.11 977.77 1017.38 983.74 1017.4 983.83 1017.31 983.85 1011.22 982.14 1006.35 986.17 1006.26 986.19 1006.24 986.11 1005.98 979.71 1000.53 976.32 1000.51 976.23 1000.49 976.14C1000.49 976.14 1000.47 976.05 1000.56 976.04L1006.55 973.85 1008.05 967.63Z" fill="#ffffff" opacity="1" stroke-width="1" stroke="none"></path><path d="M1030.42 962.88L1030.48 962.78C1030.48 962.78 1030.57 962.76 1030.59 962.85L1034.47 967.84 1040.85 967.49C1040.85 967.49 1040.94 967.47 1040.96 967.56L1040.97 967.65 1040.99 967.73 1037.48 973.02 1039.74 979 1039.76 979.09 1039.68 979.11 1033.58 977.4 1028.71 981.43 1028.62 981.45 1028.61 981.36 1028.34 974.96 1022.89 971.57 1022.87 971.48 1022.86 971.4C1022.86 971.4 1022.84 971.31 1022.92 971.29L1028.92 969.11 1030.42 962.88Z" fill="#ffffff" opacity="1" stroke-width="1" stroke="none"></path><path d="M1052.78 958.14L1052.85 958.03C1052.85 958.03 1052.93 958.01 1052.95 958.1L1056.83 963.1 1063.21 962.75C1063.21 962.75 1063.3 962.73 1063.32 962.81L1063.34 962.9 1063.36 962.99 1059.84 968.28 1062.11 974.26 1062.13 974.34 1062.04 974.36 1055.95 972.65 1051.08 976.69 1050.99 976.71 1050.97 976.62 1050.7 970.22 1045.26 966.83 1045.24 966.74 1045.22 966.65C1045.22 966.65 1045.2 966.57 1045.29 966.55L1051.28 964.37 1052.78 958.14Z" fill="#ffffff" opacity="1" stroke-width="1" stroke="none"></path></g><g><path d="M527.6 845.39C517.4 845.39 509.12 837.12 509.12 826.92 509.12 816.71 517.4 808.44 527.6 808.44 537.8 808.44 546.08 816.71 546.08 826.92 546.08 837.12 537.8 845.39 527.6 845.39Z" stroke="#000000" stroke-width="1" stroke-linecap="round" stroke-linejoin="round" opacity="1" fill="none"></path><path d="M546.08 917.5L551.1 940.19C552.5 946.22 559.73 948.43 564.15 944.21L606.53 905.24 610.34 902.43 628.62 893.4 644.09 880.94C645.09 880.14 645.49 878.53 644.49 877.53 644.49 877.53 646.9 875.72 647.5 874.11 648.1 872.31 645.89 871.1 645.09 871.5 649.11 868.89 645.09 865.48 642.88 866.88 641.88 867.49 642.68 867.09 639.47 868.89 639.47 868.89 638.46 866.08 635.25 867.69L620.83 876.32C620.83 876.32 620.83 876.24 620.87 876.32 620.79 876.32 620.79 876.32 620.87 876.36 620.85 876.28 625.49 873.43 627.5 870.46 628.42 867.89 624.6 864.27 623.12 865.12 605.73 875.92 606.53 875.32 605.73 876.32L593.67 893.19 546.08 917.5Z" fill="#e5a2a4" opacity="1" stroke-width="1" stroke="none"></path><path d="M639.47 869.09L625.41 877.73" stroke="#000000" stroke-width="1" stroke-linecap="round" stroke-linejoin="round" opacity="1" fill="none"></path><path d="M644.49 877.73C643.48 876.52 642.48 876.73 640.87 877.53L629.22 884.96" stroke="#000000" stroke-width="1" stroke-linecap="round" stroke-linejoin="round" opacity="1" fill="none"></path><path d="M645.49 871.5L627.82 881.14" stroke="#000000" stroke-width="1" stroke-linecap="round" stroke-linejoin="round" opacity="1" fill="none"></path><path d="M624.2 876.32L631.23 887.97" stroke="#000000" stroke-width="1" stroke-linecap="round" stroke-linejoin="round" opacity="1" fill="none"></path><path d="M610.75 889.98V890.18L614.76 896.81C614.76 896.81 614.76 896.81 614.96 896.81H615.16L656.14 871.91C656.14 871.91 656.34 871.7 656.14 871.7L645.89 854.83C645.89 854.83 645.69 854.63 645.69 854.83L626.21 866.48C626.21 866.48 626.21 866.48 626.21 866.68V866.88C626.61 867.49 627.82 869.09 626.01 871.1 623.8 873.51 621.39 875.72 619.9 877.01 617.57 879.34 615.37 886.16 610.75 889.98Z" fill="#cfe1b9" opacity="1" stroke-width="1" stroke="none"></path><path d="M461.52 813.86C461.92 831.34 485.02 838.57 494.5 824.23 494.86 824.11 508.52 817.68 510.73 820.49 513.94 828.12 522.38 833.34 531.41 831.54 546.88 828.52 552.1 808.04 538.65 798.4 538.65 798.4 538.44 798.2 538.65 798.2 543.47 788.36 535.83 780.32 528.2 780.93H528C528 780.93 528 780.93 528 780.72 527.8 769.28 519.16 758.23 503.1 758.23 483.82 758.23 473.37 780.32 485.22 794.98V795.18C485.22 795.18 485.02 795.39 485.02 795.18 474.18 792.37 461.12 800.81 461.52 813.86Z" fill="#000000" opacity="1" stroke-width="1" stroke="none"></path><path d="M527.6 851.02C524.04 851.02 521.17 848.15 521.17 844.59 521.17 841.04 524.04 838.16 527.6 838.16 531.15 838.16 534.03 841.04 534.03 844.59 534.03 848.15 531.15 851.02 527.6 851.02Z" fill="#000000" opacity="1" stroke-width="1" stroke="none"></path><path d="M490.44 828.72V863.87C490.44 864.07 490.44 864.07 490.64 864.07H524.39C524.59 864.07 524.59 864.07 524.59 863.87V838.97 838.77C531.01 834.55 535.23 827.32 535.23 818.88V815.07C535.23 815.07 535.23 814.87 535.43 814.87L543.87 810.05C543.87 810.05 543.87 810.05 543.87 809.85V809.65L535.23 800.21C535.23 800.21 535.23 800.21 535.23 800 535.03 792.37 530.61 785.54 526.8 782.93 525.79 782.13 524.39 782.33 523.58 783.34 523.18 783.94 522.58 784.74 521.98 785.54 518.96 789.96 514.14 796.79 508.92 803.82 496.07 821.9 493.86 825.71 490.4 828.6 490.44 828.52 490.44 828.52 490.44 828.72Z" fill="#e5a2a4" opacity="1" stroke-width="1" stroke="none"></path><path d="M327.76 939.79C327.36 940.19 327.36 940.79 327.96 940.99L364.32 953.04 380.58 942.2 442.64 909.66 450.48 905.65 459.51 938.78C451.08 942.2 454.29 953.85 462.53 953.85H561.74C568.97 953.85 573.59 944.21 565.56 938.78L576.2 921.11C581.83 911.67 580.42 899.62 572.59 891.79L565.76 884.96 566.96 881.34C571.18 868.89 561.94 855.84 548.69 855.84H462.13C448.27 855.84 434.81 860.26 423.76 868.49L327.76 939.79Z" fill="#cfe1b9" opacity="1" stroke-width="1" stroke="none"></path><path d="M442.84 909.06V909.26H443.05L450.28 905.45C450.28 905.45 450.48 905.24 450.28 905.24L447.26 895 447.06 894.8C447.06 894.8 446.86 894.8 446.86 895L442.84 909.06Z" fill="#000000" opacity="0.15" stroke-width="1" stroke="none"></path><path d="M524.69 838.67C524.75 838.69 524.71 838.69 524.69 838.69 524.77 838.69 524.71 838.69 524.71 838.65 522.36 840.09 521.35 840.49 518.14 840.9 518.14 840.9 517.94 840.9 517.94 841.1 517.94 841.1 517.94 841.3 518.14 841.3L524.57 843.1H524.57C524.57 843.1 524.57 843.1 524.57 843.08 524.97 841.5 524.97 840.49 524.71 838.67Z" fill="#000000" opacity="1" stroke-width="1" stroke="none"></path><path d="M493.05 845.39C482.85 845.39 474.58 837.12 474.58 826.92 474.58 816.71 482.85 808.44 493.05 808.44 503.26 808.44 511.53 816.71 511.53 826.92 511.53 837.12 503.26 845.39 493.05 845.39Z" stroke="#000000" stroke-width="1" stroke-linecap="round" stroke-linejoin="round" opacity="1" fill="none"></path><path d="M565.76 884.76L561.14 881.14" stroke="#000000" stroke-width="1" stroke-linecap="round" stroke-linejoin="round" opacity="1" fill="none"></path><path d="M459.51 938.58H565.56" stroke="#000000" stroke-width="1" stroke-linecap="round" stroke-linejoin="round" opacity="1" fill="none"></path><path d="M523.98 818.28C524.99 812.06 538.44 813.86 538.44 818.28 538.44 823.1 523.18 823.3 523.98 818.28Z" fill="#cfe1b9" opacity="1" stroke-width="1" stroke="none"></path><path d="M524.18 818.08C530.21 819.69 534.03 819.49 538.44 817.88" stroke="#000000" stroke-width="1" stroke-linecap="round" stroke-linejoin="round" opacity="1" fill="none"></path><path d="M327.76 939.79L449.67 944.81C459.11 944.81 457.51 953.65 457.51 953.65L453.89 974.33 454.49 983.57C454.69 985.58 453.09 987.39 451.08 987.59 449.07 987.79 447.26 986.38 446.86 984.38L445.46 976.54 445.66 973.33C445.66 973.33 445.66 973.13 445.46 973.13H445.25L435.61 987.59 430.39 999.04C429.79 1000.24 428.59 1001.04 427.38 1000.84 426.98 1000.84 426.98 1000.84 426.78 1000.84H426.58C426.58 1000.84 426.58 1000.84 426.38 1001.04L425.77 1003.66C424.97 1007.47 419.15 1005.87 419.75 1002.85L422.36 983.17 427.98 969.91V969.71C427.98 969.71 427.98 969.71 427.78 969.71H336.2C320.73 969.31 314.51 948.63 327.76 939.79Z" fill="#e5a2a4" opacity="1" stroke-width="1" stroke="none"></path><path d="M434.61 970.52L428.38 984.98 426.38 1000.64" stroke="#000000" stroke-width="1" stroke-linecap="round" stroke-linejoin="round" opacity="1" fill="none"></path><path d="M445.66 972.93L446.26 964.49" stroke="#000000" stroke-width="1" stroke-linecap="round" stroke-linejoin="round" opacity="1" fill="none"></path><path d="M450.68 984.78C449.67 984.78 448.87 983.97 448.87 982.97 448.87 981.97 449.67 981.16 450.68 981.16 451.68 981.16 452.48 981.97 452.48 982.97 452.48 983.97 451.68 984.78 450.68 984.78Z" stroke="#000000" stroke-width="1" stroke-linecap="round" stroke-linejoin="round" opacity="1" fill="none"></path><path d="M540.05 855.64C539.85 855.84 539.85 855.84 539.85 855.84 541.86 866.88 565.76 884.76 565.76 884.76L566.96 881.14C571.18 868.69 561.94 855.64 548.69 855.64H540.05Z" fill="#000000" opacity="0.15" stroke-width="1" stroke="none"></path><path d="M493.05 851.02C489.5 851.02 486.63 848.15 486.63 844.59 486.63 841.04 489.5 838.16 493.05 838.16 496.61 838.16 499.48 841.04 499.48 844.59 499.48 848.15 496.61 851.02 493.05 851.02Z" fill="#000000" opacity="1" stroke-width="1" stroke="none"></path><path d="M510.81 805.03C510.81 805.03 510.81 805.03 510.81 805.03 510.81 805.03 510.81 805.03 510.81 805.03 514.75 801.41 521.17 801.41 525.19 805.23 525.19 805.23 525.19 805.23 525.33 805.55V805.55C520.97 808.84 514.54 808.64 510.75 805.03Z" fill="#ede6d9" opacity="1" stroke-width="1" stroke="none"></path><path d="M515.77 805.93C515.27 804.46 516.03 802.88 517.52 802.35 518.98 801.85 520.57 802.64 521.09 804.1 521.59 805.57 520.81 807.17 519.34 807.68 517.88 808.18 516.27 807.4 515.77 805.93Z" fill="#2c2c2c" opacity="1" stroke-width="1" stroke="none"></path><path d="M510.73 805.05V805.05H510.73C515.15 803.22 520.57 803.02 525.35 805.55H525.35V805.55C523.18 799.2 512.13 800.41 510.73 805.05Z" fill="#000000" opacity="1" stroke-width="1" stroke="none"></path><path d="M512.54 799.2C512.54 799.4 512.54 799.4 512.74 799.4L524.79 800C524.99 800 524.99 800 524.99 799.8L525.19 795.39C525.19 795.18 525.19 795.18 524.99 795.18L512.94 794.58C512.74 794.58 512.74 794.58 512.74 794.78L512.54 799.2Z" fill="#000000" opacity="1" stroke-width="1" stroke="none"></path><path d="M619.54 877.01C617.57 879.34 615.37 886.16 610.75 889.98" stroke="#000000" stroke-width="1" stroke-linecap="round" stroke-linejoin="round" opacity="1" fill="none"></path><path d="M619.78 877.17L620.83 876" stroke="#000000" stroke-width="1" stroke-linecap="round" stroke-linejoin="round" opacity="1" fill="none"></path></g></svg>