<svg xmlns="http://www.w3.org/2000/svg" xmlns:xlink="http://www.w3.org/1999/xlink" width="1000" zoomAndPan="magnify" viewBox="0 0 750 374.999991" height="500" preserveAspectRatio="xMidYMid meet" version="1.0"><defs><g/><clipPath id="535a6292b0"><path d="M 570 112.5 L 705 112.5 L 705 262.5 L 570 262.5 Z M 570 112.5 " clip-rule="nonzero"/></clipPath></defs><g fill="#000000" fill-opacity="1"><g transform="translate(68.994756, 270.374982)"><g><path d="M 147.453125 0 L 105.96875 0 L 105.96875 -62.28125 L 58 -62.28125 L 58 0 L 16.515625 0 L 16.515625 -152.796875 L 58 -152.796875 L 58 -96.140625 L 105.96875 -96.140625 L 105.96875 -152.796875 L 147.453125 -152.796875 Z M 147.453125 0 "/></g></g><g transform="translate(232.969801, 270.374982)"><g><path d="M 98.453125 0 L 93.328125 -14.734375 L 90.921875 -14.734375 C 87.503906 -9.296875 82.75 -5.128906 76.65625 -2.234375 C 70.5625 0.648438 63.40625 2.09375 55.1875 2.09375 C 42.15625 2.09375 32.015625 -1.6875 24.765625 -9.25 C 17.523438 -16.8125 13.90625 -27.488281 13.90625 -41.28125 L 13.90625 -118.40625 L 54.765625 -118.40625 L 54.765625 -53.71875 C 54.765625 -45.976562 55.859375 -40.125 58.046875 -36.15625 C 60.242188 -32.1875 63.851562 -30.203125 68.875 -30.203125 C 75.90625 -30.203125 80.914062 -32.96875 83.90625 -38.5 C 86.90625 -44.039062 88.40625 -53.398438 88.40625 -66.578125 L 88.40625 -118.40625 L 129.28125 -118.40625 L 129.28125 0 Z M 98.453125 0 "/></g></g><g transform="translate(376.356521, 270.374982)"><g><path d="M 86.421875 -87.78125 L 61.234375 -87.78125 L 61.234375 0 L 20.375 0 L 20.375 -87.78125 L 4.703125 -87.78125 L 4.703125 -107.859375 L 21.21875 -117.890625 L 21.21875 -119.875 C 21.21875 -135.476562 24.40625 -146.691406 30.78125 -153.515625 C 37.15625 -160.347656 47.378906 -163.765625 61.453125 -163.765625 C 66.890625 -163.765625 72.023438 -163.34375 76.859375 -162.5 C 81.703125 -161.664062 87.332031 -160.207031 93.75 -158.125 L 84.96875 -131.671875 C 79.945312 -133.066406 75.035156 -133.765625 70.234375 -133.765625 C 67.097656 -133.765625 64.8125 -132.804688 63.375 -130.890625 C 61.945312 -128.972656 61.234375 -125.859375 61.234375 -121.546875 L 61.234375 -118.40625 L 86.421875 -118.40625 Z M 86.421875 -87.78125 "/></g></g><g transform="translate(464.771364, 270.374982)"><g><path d="M 55.1875 0 L 14.3125 0 L 14.3125 -118.40625 L 55.1875 -118.40625 Z M 13.265625 -147.875 C 13.265625 -154.007812 14.972656 -158.570312 18.390625 -161.5625 C 21.804688 -164.5625 27.3125 -166.0625 34.90625 -166.0625 C 42.5 -166.0625 48.035156 -164.523438 51.515625 -161.453125 C 55.003906 -158.390625 56.75 -153.863281 56.75 -147.875 C 56.75 -135.894531 49.46875 -129.90625 34.90625 -129.90625 C 20.476562 -129.90625 13.265625 -135.894531 13.265625 -147.875 Z M 13.265625 -147.875 "/></g></g></g><g clip-path="url(#535a6292b0)"><path fill="#ccd6dd" d="M 700 125 C 670.832031 112.5 637.5 112.5 637.5 112.5 C 637.5 112.5 604.167969 112.5 575 125 C 562.5 187.5 575 241.667969 637.5 262.5 C 700 241.667969 712.5 187.5 700 125 Z M 700 125 " fill-opacity="1" fill-rule="nonzero"/></g><path fill="#7ed957" d="M 637.5 253.683594 C 589.214844 236.371094 570.671875 195.128906 582.332031 131.015625 C 608.597656 120.953125 637.199219 120.832031 637.5 120.832031 C 637.796875 120.832031 666.492188 121 692.667969 131.015625 C 704.328125 195.128906 685.785156 236.371094 637.5 253.683594 Z M 637.5 253.683594 " fill-opacity="1" fill-rule="nonzero"/><path fill="#008037" d="M 692.667969 131.015625 C 666.492188 121 637.796875 120.832031 637.5 120.832031 L 637.5 253.683594 C 685.785156 236.371094 704.328125 195.128906 692.667969 131.015625 Z M 692.667969 131.015625 " fill-opacity="1" fill-rule="nonzero"/></svg>