<svg xmlns="http://www.w3.org/2000/svg" height="1200" width="1600" version="1.1" xmlns:xlink="http://www.w3.org/1999/xlink" xmlns:svgjs="http://svgjs.com/svgjs"><rect fill="#ffffff" width="1600" height="1200"></rect><g><path d="M1199.73 392.11C1199.73 396.57 1197.95 400.86 1194.8 404.02 1191.64 407.17 1187.36 408.95 1182.89 408.95H1176.61C1174.63 408.95 1172.65 409.34 1170.81 410.1 1168.98 410.86 1167.31 411.98 1165.9 413.38 1164.49 414.79 1163.37 416.46 1162.61 418.3 1161.85 420.14 1161.46 422.11 1161.46 424.1 1161.46 427.47 1160.12 430.7 1157.74 433.09 1155.35 435.47 1152.12 436.81 1148.75 436.81H1137.73C1130.71 436.81 1125.02 435.48 1125.02 442.5V444.46C1125.02 449.71 1119.2 462.22 1101.44 462.22H1083.69C1078.74 462.23 1073.87 461.02 1069.49 458.7 1065.12 456.38 1061.38 453.03 1058.61 448.93 1058.27 448.44 1057.94 447.92 1057.63 447.4 1054.84 442.72 1053.37 437.37 1053.38 431.91 1053.38 429.9 1052.98 427.91 1052.22 426.05 1051.44 424.2 1050.32 422.51 1048.9 421.08 1047.48 419.66 1045.79 418.54 1043.93 417.77 1042.07 417 1040.08 416.61 1038.07 416.61H981.88C974.7 416.61 967.81 413.75 962.72 408.67 957.65 403.59 954.79 396.69 954.79 389.51 954.79 382.32 957.65 375.43 962.72 370.35 967.81 365.27 974.7 362.41 981.88 362.41H1024.14C1026.45 362.41 1028.67 361.49 1030.31 359.85 1031.95 358.22 1032.86 356 1032.86 353.69 1032.86 351.37 1033.78 349.15 1035.42 347.51 1037.05 345.88 1039.28 344.96 1041.59 344.96H1150.59C1154.61 344.96 1158.46 346.56 1161.31 349.4 1164.15 352.24 1165.74 356.1 1165.74 360.12 1165.74 362.1 1166.14 364.08 1166.9 365.91 1167.66 367.75 1168.77 369.43 1170.18 370.84 1171.59 372.24 1173.26 373.36 1175.1 374.12 1176.94 374.88 1178.91 375.27 1180.9 375.26H1182.89C1185.11 375.26 1187.3 375.7 1189.34 376.55 1191.38 377.39 1193.24 378.63 1194.8 380.2 1196.36 381.76 1197.6 383.62 1198.45 385.66 1199.3 387.7 1199.73 389.9 1199.73 392.11L1199.73 392.11Z" fill="#e9f5db" opacity="1" stroke-width="2" stroke="#04051f"></path><path d="M1137.93 386.98C1137.93 386.46 1137.91 385.95 1137.87 385.44 1137.48 379.85 1134.98 374.62 1130.89 370.8 1126.79 366.98 1121.4 364.86 1115.8 364.86H1107.55C1102.27 364.86 1097.21 362.76 1093.48 359.03 1089.74 355.3 1087.64 350.24 1087.63 344.96V344.94C1087.63 340.52 1085.88 336.27 1082.74 333.14 1079.62 330.01 1075.37 328.25 1070.94 328.25H1056.46C1047.24 328.25 1039.76 329.99 1039.76 320.77V318.19C1039.76 311.3 1032.12 294.86 1008.79 294.86H985.46C974.9 294.86 964.77 299.06 957.3 306.53 949.82 314 945.63 324.12 945.63 334.69 945.63 340.02 943.51 345.14 939.74 348.91 935.97 352.68 930.85 354.8 925.52 354.8H851.7C842.26 354.8 833.2 358.55 826.52 365.23 819.85 371.91 816.1 380.96 816.1 390.41 816.1 399.84 819.85 408.9 826.52 415.58 833.2 422.25 842.26 426 851.7 426H907.21C910.25 426 913.17 427.21 915.32 429.36 917.47 431.51 918.68 434.43 918.68 437.47 918.68 438.97 918.97 440.47 919.55 441.86 920.13 443.25 920.97 444.52 922.04 445.58 923.1 446.64 924.37 447.49 925.76 448.07 927.15 448.64 928.64 448.94 930.14 448.93H1073.36C1075.97 448.94 1078.56 448.43 1080.98 447.43 1083.4 446.43 1085.6 444.96 1087.45 443.11 1089.3 441.26 1090.76 439.06 1091.76 436.64 1092.76 434.23 1093.27 431.64 1093.27 429.02 1093.27 426.41 1093.79 423.82 1094.78 421.4 1095.79 418.98 1097.25 416.79 1099.1 414.94 1100.95 413.09 1103.14 411.62 1105.56 410.63 1107.98 409.62 1110.57 409.11 1113.18 409.11H1115.8C1118.7 409.11 1121.58 408.54 1124.27 407.42 1126.95 406.32 1129.39 404.68 1131.45 402.63 1133.5 400.57 1135.13 398.14 1136.24 395.45 1137.35 392.77 1137.93 389.89 1137.93 386.98L1137.93 386.98Z" fill="#e9f5db" opacity="1" stroke-width="2" stroke="#04051f"></path><path d="M849.71 390.59L863.98 376.33" stroke="#000000" stroke-width="2" stroke-linecap="round" stroke-linejoin="round" opacity="1" fill="none"></path><path d="M966.56 354.43L982.18 338.8" stroke="#000000" stroke-width="2" stroke-linecap="round" stroke-linejoin="round" opacity="1" fill="none"></path><path d="M1002.19 390.59L1016.41 376.37" stroke="#000000" stroke-width="2" stroke-linecap="round" stroke-linejoin="round" opacity="1" fill="none"></path><path d="M1072.27 396.97L1085.25 383.98" stroke="#000000" stroke-width="2" stroke-linecap="round" stroke-linejoin="round" opacity="1" fill="none"></path><path d="M924.31 412.13L936.44 400" stroke="#000000" stroke-width="2" stroke-linecap="round" stroke-linejoin="round" opacity="1" fill="none"></path></g><g><path d="M1385.21 468.19L1384.22 1008.63 1189.72 996.48 938.82 1009.98 214.78 1012.19 215.03 875.83C215.1 837.11 229.86 807.62 229.94 764.28 230.01 725.54 215.41 672.92 215.47 637.85L215.73 494.95C272.59 483.61 329.1 467.47 387.05 466.89 465.29 469.59 531.42 506.09 577.75 537.48 615.46 563.02 651.22 594.95 686.65 625.32 706.01 644.28 729.08 657.82 754.02 664.85 778.96 671.9 805.07 672.24 830.28 665.86 932.53 639.94 1033.86 596.67 1134.17 560.12 1218.23 529.49 1301.16 498.88 1385.21 468.19Z" fill="#e9f5db" opacity="1" stroke-width="2" stroke="#04051f"></path><path d="M1384.84 668.38L1384.22 1008.63 938.82 1009.98C686.55 964.56 266.94 889.65 266.94 889.65 266.94 889.65 232.68 880.48 215.14 875.82L215.47 637.86C265.43 642.36 358.64 649.83 358.64 649.83L500.35 707.47C530.27 719.62 562.41 723.45 594.09 718.65L596.44 718.29C610.68 716.14 625.07 715.71 639.35 717.03L898.25 740.99 1067.62 778.29 1384.84 668.38Z" fill="#d5e9bd" opacity="1" stroke-width="2" stroke="#04051f"></path><path d="M334.29 700.01L370.15 699.65" stroke="#000000" stroke-width="2" stroke-linecap="round" stroke-linejoin="round" opacity="1" fill="none"></path><path d="M394.17 748.52L406.8 750.88" stroke="#000000" stroke-width="2" stroke-linecap="round" stroke-linejoin="round" opacity="1" fill="none"></path><path d="M510.94 730.16L523.64 743.11" stroke="#000000" stroke-width="2" stroke-linecap="round" stroke-linejoin="round" opacity="1" fill="none"></path><path d="M612.99 749.65L592.69 757.48" stroke="#000000" stroke-width="2" stroke-linecap="round" stroke-linejoin="round" opacity="1" fill="none"></path><path d="M633.83 845.17L648.81 850.16" stroke="#000000" stroke-width="2" stroke-linecap="round" stroke-linejoin="round" opacity="1" fill="none"></path><path d="M260.76 731.27L282.51 731.05" stroke="#000000" stroke-width="2" stroke-linecap="round" stroke-linejoin="round" opacity="1" fill="none"></path><path d="M425.64 492.54L451.05 500.76" stroke="#000000" stroke-width="2" stroke-linecap="round" stroke-linejoin="round" opacity="1" fill="none"></path><path d="M508.75 690.3L531.25 683.44" stroke="#000000" stroke-width="2" stroke-linecap="round" stroke-linejoin="round" opacity="1" fill="none"></path><path d="M700.87 667.81L720.24 682.72" stroke="#000000" stroke-width="2" stroke-linecap="round" stroke-linejoin="round" opacity="1" fill="none"></path><path d="M357 499.87L342.15 505.16" stroke="#000000" stroke-width="2" stroke-linecap="round" stroke-linejoin="round" opacity="1" fill="none"></path><path d="M1058.95 859.99L1079.83 854.81" stroke="#000000" stroke-width="2" stroke-linecap="round" stroke-linejoin="round" opacity="1" fill="none"></path><path d="M1274.87 749.37L1286.56 738.87" stroke="#000000" stroke-width="2" stroke-linecap="round" stroke-linejoin="round" opacity="1" fill="none"></path><path d="M1257.8 941.98L1299.71 936.08" stroke="#000000" stroke-width="2" stroke-linecap="round" stroke-linejoin="round" opacity="1" fill="none"></path></g><g><path d="M798.73 179.32C802.93 186.5 816.59 227.52 820.25 230.8 823.92 234.07 833.5 231.84 838.43 232.32 841.33 232.6 847.41 229.38 843.32 224.63 840.1 220.91 826.32 187.72 822.52 180.31 818.73 172.9 816.12 164.53 806.63 160.26 806.63 160.26 799.65 157.28 791.76 153.9 778.51 152.55 790.72 164.86 798.73 179.32Z" fill="#b9cfe1" opacity="1" stroke-width="2" stroke="#04051f"></path><path d="M815.98 244.95C816.24 244.93 816.61 244.87 816.93 244.81 817.26 244.74 817.6 244.67 817.92 244.59 818.58 244.43 819.22 244.22 819.85 243.98 820.46 243.74 821.04 243.44 821.6 243.1 822.12 242.76 822.59 242.35 823 241.88L823.05 241.82C823.22 241.62 823.46 241.49 823.72 241.45 823.99 241.42 824.25 241.48 824.47 241.63 824.69 241.78 824.84 242.01 824.9 242.27 824.96 242.53 824.92 242.8 824.79 243.03 824.36 243.78 823.82 244.47 823.19 245.07 822.57 245.63 821.91 246.14 821.2 246.58 820.51 247.01 819.79 247.39 819.04 247.73 818.67 247.89 818.3 248.05 817.92 248.19 817.53 248.34 817.18 248.47 816.72 248.6L816.66 248.62C816.18 248.76 815.66 248.7 815.23 248.46 814.79 248.22 814.47 247.81 814.33 247.33 814.2 246.86 814.26 246.34 814.5 245.91 814.74 245.47 815.14 245.15 815.62 245.01 815.74 244.98 815.86 244.96 815.98 244.95Z" fill="#dd8387" opacity="1" stroke-width="2" stroke="#04051f"></path><path d="M846.41 225.23H846.41C844.07 225.09 841.66 224.94 839.22 224.7 834.29 224.21 828.73 223.86 825.06 220.58 821.5 217.4 804.4 187.89 799.11 179.93 798.93 179.65 795.09 165.94 780.38 161.49 780.33 161.47 774.56 159.85 767.49 157.86H767.49C748.24 153.86 762.24 161.06 773.33 182.68 775.36 186.64 783.81 204.77 791.9 223.83 791.9 223.84 791.9 223.85 791.9 223.86 791.9 223.86 791.9 223.86 791.89 223.87 791.89 223.87 791.89 223.87 791.88 223.87 791.2 224.11 779.6 228.03 764.52 227.4 763.01 227.34 756.57 235.28 760.88 236.38 760.88 236.39 760.88 236.39 760.89 236.39 760.89 236.4 760.9 236.4 760.9 236.4H780.25C789.84 236.4 791.43 245.82 806.59 246.69 824.14 247.69 859.45 238.77 863.83 234.9 863.86 234.87 863.89 234.84 863.92 234.82 863.96 234.77 864.01 234.73 864.05 234.69 864.11 234.62 864.17 234.55 864.23 234.48 871.15 225 846.66 225.2 846.41 225.23Z" fill="#e0e3e6" opacity="1" stroke-width="2" stroke="#04051f"></path><path d="M745.26 156.77C749.08 159.28 760.69 168.07 773.29 182.68 773.29 182.68 773.3 182.68 773.31 182.68 773.32 182.68 773.32 182.68 773.33 182.68 773.33 182.68 773.34 182.67 773.34 182.66 773.34 182.66 773.34 182.65 773.34 182.64 772.21 180.1 770.67 176.24 770.42 174.05 770.1 171.2 768.86 164.74 767.5 157.87 767.5 157.87 767.49 157.86 767.49 157.86 767.48 157.85 767.48 157.85 767.48 157.85 756.52 154.76 742.45 150.77 741.72 150.49 741.71 150.49 741.71 150.49 741.7 150.49 741.7 150.49 741.7 150.49 741.69 150.49 741.69 150.49 741.69 150.5 741.68 150.5 741.68 150.5 741.68 150.51 741.68 150.51 740.93 153.02 743.06 155.32 745.26 156.77V156.77Z" fill="#b9cfe1" opacity="1" stroke-width="2" stroke="#04051f"></path><path d="M769.69 144.35C769.7 144.22 768.26 147.47 772.42 151.05 774.28 152.65 790.12 164.58 798.73 179.32 798.83 179.5 798.95 179.7 799.07 179.91 799.08 179.92 799.08 179.92 799.09 179.93 799.1 179.93 799.11 179.93 799.11 179.93 799.12 179.92 799.13 179.92 799.13 179.91 799.13 179.9 799.13 179.9 799.13 179.89L791.78 153.92C791.78 153.92 791.78 153.91 791.78 153.91 791.77 153.91 791.77 153.9 791.77 153.9 781.49 149.5 769.68 144.42 769.69 144.35Z" fill="#b9cfe1" opacity="1" stroke-width="2" stroke="#04051f"></path><path d="M876.14 231.69C877.37 232.32 878.09 233.08 877.93 234.32 877.92 234.38 877.9 234.44 877.86 234.49 877.82 234.54 877.76 234.57 877.7 234.59 877.64 234.61 877.57 234.61 877.51 234.59 877.45 234.58 877.39 234.54 877.35 234.49 876.7 233.82 875.24 233.72 873.13 233.8 870.04 233.92 867.87 234.23 863.91 234.83 863.13 234.95 862.59 234.51 862.26 233.81 861.34 231.83 863.03 229.6 865.2 229.8 868.83 230.12 874.67 230.94 876.14 231.69Z" fill="#dd8387" opacity="1" stroke-width="2" stroke="#04051f"></path><path d="M855.92 232.11C857.21 232.11 858.25 231.07 858.25 229.79 858.25 228.5 857.21 227.46 855.92 227.46 854.64 227.46 853.6 228.5 853.6 229.79 853.6 231.07 854.64 232.11 855.92 232.11Z" fill="#b9cfe1" opacity="1" stroke-width="2" stroke="#04051f"></path><path d="M855.92 230.79C856.48 230.79 856.93 230.34 856.93 229.79 856.93 229.23 856.48 228.78 855.92 228.78 855.37 228.78 854.92 229.23 854.92 229.79 854.92 230.34 855.37 230.79 855.92 230.79Z" fill="#000000" opacity="1" stroke-width="2" stroke="#04051f"></path><path d="M807.58 245.07C808.19 245.02 808.89 244.92 809.55 244.82 810.21 244.71 810.88 244.59 811.52 244.43 812.78 244.17 814 243.73 815.14 243.13L815.2 243.09C815.43 242.96 815.7 242.92 815.96 242.97 816.22 243.03 816.45 243.18 816.6 243.4 816.75 243.62 816.82 243.88 816.78 244.15 816.75 244.41 816.62 244.65 816.42 244.82 815.21 245.79 813.87 246.58 812.44 247.16 811.75 247.45 811.05 247.72 810.35 247.96 809.64 248.21 808.97 248.43 808.2 248.63L808.19 248.63C807.72 248.76 807.22 248.69 806.81 248.45 806.39 248.21 806.09 247.81 805.96 247.34 805.84 246.88 805.91 246.38 806.15 245.96 806.39 245.55 806.79 245.24 807.26 245.12 807.36 245.09 807.47 245.08 807.58 245.07Z" fill="#dd8387" opacity="1" stroke-width="2" stroke="#04051f"></path><path d="M764.55 227.44C764.55 227.44 764.56 227.43 764.56 227.43 764.55 227.42 764.55 227.42 764.55 227.41 764.55 227.41 764.54 227.41 764.54 227.4 764.53 227.4 764.53 227.4 764.52 227.4H754.71C754.71 227.4 754.7 227.4 754.7 227.4 754.69 227.41 754.69 227.41 754.69 227.41L747.98 236.59C747.98 236.59 747.98 236.6 747.98 236.6 747.98 236.61 747.98 236.61 747.98 236.62 747.98 236.62 747.99 236.63 747.99 236.63 748 236.64 748.01 236.64 748.01 236.64L760.88 236.4C760.89 236.4 760.89 236.4 760.9 236.39 760.9 236.39 760.91 236.38 760.91 236.38L764.55 227.44Z" fill="#b9cfe1" opacity="1" stroke-width="2" stroke="#04051f"></path><path d="M791.91 223.86L811.01 221.71" stroke="#000000" stroke-width="2" stroke-linecap="round" stroke-linejoin="round" opacity="1" fill="none"></path><path d="M787.54 199.19L796.02 190.71" stroke="#000000" stroke-width="2" stroke-linecap="round" stroke-linejoin="round" opacity="1" fill="none"></path><path d="M811.01 187.52L817.6 180.93" stroke="#000000" stroke-width="2" stroke-linecap="round" stroke-linejoin="round" opacity="1" fill="none"></path><path d="M826.39 241.45C834.67 240.99 842.62 239.04 850.47 236.64" stroke="#000000" stroke-width="2" stroke-linecap="round" stroke-linejoin="round" opacity="1" fill="none"></path></g><g><path d="M524.74 317.99C524.71 322.32 523.73 327.41 521.31 333.54L521.1 334.07C519.8 336.33 517.59 339.33 515.57 343.45 506.81 355.58 492.84 367.87 492.31 368.33 492.3 368.34 492.29 368.35 492.27 368.35H487.51C487.5 368.35 487.48 368.34 487.48 368.33 486.95 367.87 472.97 355.58 464.21 343.45 462.4 340.25 460.44 337.1 458.71 334.14 458.64 333.96 458.53 333.72 458.46 333.54 456.04 327.37 455.06 322.18 455.04 317.82 455.41 314.57 456 311.35 456.78 308.18 457.26 306.96 457.82 305.77 458.46 304.63 462.72 296.99 469.38 292.73 476.14 290.33 485.03 287.17 494.74 287.17 503.64 290.33 510.4 292.73 517.17 296.99 521.31 304.63 521.94 305.77 522.5 306.96 522.98 308.18 523.85 310.51 524.1 313.49 524.74 317.99Z" fill="#cfe1b9" opacity="1" stroke-width="2" stroke="#04051f"></path><path d="M493.33 370.42H486.45C486.42 370.42 486.4 370.45 486.4 370.47V374.95C486.4 374.98 486.42 375 486.45 375H493.33C493.36 375 493.38 374.98 493.38 374.95V370.47C493.38 370.45 493.36 370.42 493.33 370.42Z" fill="#9aca60" opacity="1" stroke-width="2" stroke="#04051f"></path><path d="M521.02 334.06C521.03 334.06 521.04 334.07 521.04 334.07 521.05 334.07 521.06 334.08 521.06 334.09 521.07 334.09 521.07 334.1 521.07 334.11 521.07 334.12 521.07 334.13 521.07 334.14 519.58 337.42 517.75 340.54 515.59 343.43 515.58 343.43 515.58 343.44 515.57 343.44 515.56 343.45 515.55 343.45 515.54 343.45 498.41 342.92 481.27 342.92 464.24 343.45 464.23 343.45 464.22 343.45 464.21 343.44 464.2 343.44 464.2 343.43 464.19 343.43 462.03 340.54 460.19 337.43 458.71 334.14 458.7 334.13 458.7 334.12 458.7 334.11 458.7 334.1 458.71 334.09 458.71 334.09 458.72 334.08 458.73 334.07 458.73 334.07 458.74 334.07 458.75 334.06 458.76 334.06 479.55 333.44 500.3 333.44 521.02 334.06Z" fill="#cfe1b9" opacity="1" stroke-width="2" stroke="#04051f"></path><path d="M524.74 317.93C524.74 317.94 524.74 317.94 524.74 317.95 524.73 317.96 524.72 317.97 524.72 317.97 524.71 317.97 524.71 317.98 524.7 317.98 524.7 317.98 524.69 317.98 524.68 317.98 501.73 317.2 478.57 317.1 455.1 317.88 455.08 317.88 455.06 317.87 455.05 317.87 455.05 317.86 455.05 317.85 455.04 317.85 455.04 317.84 455.04 317.83 455.04 317.82 455 314.54 455.59 311.28 456.77 308.22 456.77 308.21 456.78 308.19 456.79 308.19 456.8 308.18 456.81 308.18 456.82 308.18 478.79 307.59 500.76 307.59 522.94 308.18 522.95 308.18 522.97 308.18 522.98 308.19 522.98 308.19 522.99 308.21 522.99 308.22 524.19 311.31 524.78 314.61 524.74 317.93V317.93Z" fill="#cfe1b9" opacity="1" stroke-width="2" stroke="#04051f"></path><path d="M510.95 306.81C511.71 322.3 507.57 335.83 498.62 347.5" stroke="#000000" stroke-width="2" stroke-linecap="round" stroke-linejoin="round" opacity="1" fill="none"></path><path d="M565.72 318.27C565.72 318.25 565.72 318.24 565.73 318.23 565.74 318.22 565.76 318.21 565.77 318.21H576.47C576.48 318.21 576.49 318.22 576.5 318.23 576.52 318.24 576.52 318.25 576.52 318.27V325.25C576.52 325.26 576.52 325.28 576.5 325.29 576.49 325.29 576.48 325.31 576.47 325.31H565.77C565.76 325.31 565.74 325.29 565.73 325.29 565.72 325.28 565.72 325.26 565.72 325.25V318.27Z" fill="#9aca60" opacity="1" stroke-width="2" stroke="#04051f"></path><path d="M566.94 314.94C566.92 314.94 566.91 314.93 566.9 314.92 566.71 314.76 564.76 313.04 561.74 310.22 552.51 301.58 533.23 282.41 524.47 266.38 524.45 266.33 517.08 230.54 517.08 230.49 517.84 225.54 519.49 220.77 521.97 216.41 528.51 204.63 538.88 198.08 549.36 194.38 563.13 189.57 578.13 189.57 591.9 194.38 602.38 198.08 612.85 204.63 619.29 216.41 621.76 220.77 623.42 225.54 624.18 230.49 620.82 239 618.05 254.25 616.96 266.16 608.78 281.5 590.84 299.54 581.05 308.79 577.18 312.45 574.58 314.73 574.35 314.93 574.35 314.93 574.33 314.94 574.32 314.94H566.94V314.94Z" fill="#cfe1b9" opacity="1" stroke-width="2" stroke="#04051f"></path><path d="M517.08 230.49C516.27 236.42 516.56 242.45 517.94 248.27 518 248.56 518.57 248.75 518.64 249.04 527.52 248.23 535.92 247.72 544.81 247.29 553.67 246.87 562.53 256.21 571.4 256.2 579.64 256.18 587.88 246.79 596.13 247.15 596.13 247.15 623.03 250 623.42 248.16 624.88 241.34 625.02 235.51 624.18 230.48 614.46 229.69 604.74 229.08 595 228.68 587.13 228.36 579.26 228.19 571.39 228.16 562.94 228.13 554.49 228.28 546.03 228.6 536.38 228.98 526.73 229.61 517.08 230.48L517.08 230.49Z" fill="#cfe1b9" opacity="1" stroke-width="2" stroke="#04051f"></path><path d="M517.94 248.27C518.26 249.71 518.63 251.19 519.07 252.72 519.83 255.37 520.79 258.17 521.97 261.15 522.47 262.46 523.05 263.74 523.71 264.98 523.96 265.45 524.21 265.92 524.48 266.38 531.79 265.79 539.1 265.32 546.42 264.99 554.74 264.61 563.07 264.42 571.4 264.39 579.15 264.37 586.91 264.51 594.68 264.82 602.1 265.11 609.54 265.56 616.96 266.16 617.84 264.42 618.75 262.78 619.4 261.15 621.08 256.93 622.43 252.59 623.43 248.16V248.16C614.18 247.45 605.09 246.91 596.15 246.54 587.89 246.22 579.64 246.04 571.4 246.01 562.53 245.98 553.67 246.15 544.81 246.51 535.85 246.88 526.9 247.47 517.94 248.27L517.94 248.27Z" fill="#a4c47d" opacity="1" stroke-width="2" stroke="#04051f"></path><path d="M571.4 190.78V314.94" stroke="#000000" stroke-width="2" stroke-linecap="round" stroke-linejoin="round" opacity="1" fill="none"></path><path d="M571.4 190.78V314.94" stroke="#000000" stroke-width="2" stroke-linecap="round" stroke-linejoin="round" opacity="1" fill="none"></path><path d="M584.07 192.19C589.53 203.73 593.21 216.04 595 228.69 595.81 234.6 596.19 240.57 596.14 246.55 596.14 246.75 596.14 246.95 596.13 247.15 596.05 253.07 595.56 258.97 594.67 264.83 592.51 279.17 587.96 293.83 581.05 308.79" stroke="#000000" stroke-width="2" stroke-linecap="round" stroke-linejoin="round" opacity="1" fill="none"></path><path d="M557.81 192.05C551.96 203.53 547.98 215.87 546.03 228.6 545.15 234.53 544.74 240.52 544.8 246.51 544.8 246.77 544.81 247.04 544.81 247.29 544.91 253.22 545.45 259.14 546.42 264.99 548.83 279.74 553.94 294.82 561.74 310.22" stroke="#000000" stroke-width="2" stroke-linecap="round" stroke-linejoin="round" opacity="1" fill="none"></path><path d="M601.21 385.57C601.09 389.36 600.18 393.85 598.12 399.11 597.89 399.7 597.63 400.29 597.33 400.9 595.41 404.08 592.69 407.79 590.06 411.8 582.27 421.43 572.29 430.24 571.84 430.63 571.83 430.64 571.82 430.65 571.81 430.65H567.38C567.37 430.65 567.35 430.64 567.35 430.63 566.9 430.24 556.91 421.41 549.12 411.79 546.25 407.56 543.67 404.02 541.9 401 541.6 400.39 541.29 399.71 541.06 399.11 539 393.84 538.09 389.35 537.98 385.56 538.45 381.3 538.95 377.76 540.17 374.68 540.45 374.08 540.75 373.48 541.06 372.93 544.88 366.06 550.99 362.13 557.1 359.95 565.19 357.11 574 357.11 582.08 359.95 588.19 362.13 594.3 365.95 598.12 372.93 598.68 373.92 598.95 374.55 599 374.66 600.04 378.18 600.99 381.64 601.21 385.57Z" fill="#cfe1b9" opacity="1" stroke-width="2" stroke="#04051f"></path><path d="M601.21 385.57C601.21 385.58 601.21 385.59 601.2 385.59 601.2 385.6 601.2 385.6 601.19 385.61 601.18 385.62 601.18 385.62 601.17 385.62 601.16 385.63 601.16 385.63 601.15 385.63 579.62 384.19 558.51 383.98 538.04 385.61 538.03 385.61 538.02 385.61 538.02 385.6 538 385.6 538 385.6 537.99 385.59 537.99 385.59 537.98 385.58 537.98 385.58 537.98 385.57 537.98 385.56 537.98 385.56 537.83 381.81 538.58 378.07 540.17 374.68 540.17 374.66 540.19 374.66 540.19 374.65 540.2 374.65 540.21 374.64 540.22 374.64 559.73 372.1 579.49 372.1 599 374.66 599 374.66 599 374.66 599 374.66 599 374.66 599 374.66 599 374.66 600.6 378.07 601.36 381.81 601.21 385.57V385.57Z" fill="#a4c47d" opacity="1" stroke-width="2" stroke="#04051f"></path><path d="M597.26 400.9C597.26 400.9 597.27 400.9 597.28 400.9 597.29 400.91 597.29 400.91 597.3 400.92 597.3 400.93 597.3 400.94 597.3 400.94 597.3 400.96 597.3 400.97 597.3 400.97 595.62 404.42 593 408.15 590.07 411.78 590.07 411.79 590.06 411.79 590.06 411.79 590.05 411.8 590.04 411.8 590.03 411.8 576.45 410.27 562.74 410.27 549.17 411.81 549.16 411.81 549.15 411.81 549.14 411.8 549.13 411.8 549.13 411.8 549.12 411.79 546.19 408.17 543.57 404.44 541.9 401 541.9 400.99 541.9 400.98 541.9 400.97 541.9 400.97 541.9 400.96 541.9 400.95 541.91 400.94 541.91 400.93 541.92 400.93 541.93 400.92 541.93 400.92 541.94 400.92 563.91 399.8 581.79 399.89 597.26 400.9Z" fill="#a4c47d" opacity="1" stroke-width="2" stroke="#04051f"></path><path d="M585.9 371.51C589.29 382.86 587.11 393.66 582.63 404.24" stroke="#000000" stroke-width="2" stroke-linecap="round" stroke-linejoin="round" opacity="1" fill="none"></path><path d="M573.03 432.91H566.15C566.13 432.91 566.1 432.94 566.1 432.97V437.44C566.1 437.47 566.13 437.5 566.15 437.5H573.03C573.06 437.5 573.08 437.47 573.08 437.44V432.97C573.08 432.94 573.06 432.91 573.03 432.91Z" fill="#cfe1b9" opacity="1" stroke-width="2" stroke="#04051f"></path></g><g><path d="M1188.65 410.86C1176.92 367.23 1163.79 319.26 1161.67 311.51 1161.6 311.21 1161.17 309.66 1161.07 309.33 1156.4 293.26 1143.81 281.58 1128.88 279.4 1128.85 279.4 1128.83 279.39 1128.82 279.38 1128.81 279.36 1128.79 279.35 1128.79 279.32 1128.79 279.3 1128.8 279.29 1128.82 279.27 1128.83 279.25 1128.85 279.25 1128.87 279.25 1134.48 278.15 1139.47 275.02 1142.9 270.45 1146.33 265.89 1147.94 260.22 1147.44 254.53 1146.92 248.85 1144.32 243.55 1140.13 239.67 1135.94 235.79 1130.46 233.61 1124.76 233.53 1119.04 233.46 1113.52 235.5 1109.23 239.27 1104.94 243.04 1102.2 248.27 1101.54 253.94 1100.88 259.61 1102.35 265.32 1105.66 269.98 1108.97 274.63 1113.88 277.88 1119.46 279.12 1119.48 279.12 1119.49 279.14 1119.51 279.15 1119.51 279.16 1119.52 279.19 1119.52 279.2 1119.52 279.22 1119.51 279.24 1119.5 279.25 1119.49 279.26 1119.47 279.28 1119.45 279.28 1102.79 281.29 1088.85 295.13 1085.39 313.97 1084.34 319.97 1085.68 314.22 1078.22 343.53 1073.24 363.11 1066.72 388.74 1062.21 406.37 1059.81 415.78 1057.99 422.92 1057.29 425.63V425.63L1057.29 425.64H1192.5C1192.51 425.64 1192.52 425.64 1192.54 425.63 1192.55 425.63 1192.55 425.62 1192.56 425.61 1192.57 425.6 1192.58 425.59 1192.58 425.58 1192.58 425.56 1192.58 425.56 1192.58 425.54 1191.47 421.39 1190.14 416.4 1188.65 410.86Z" fill="#04051f" opacity="1" stroke-width="2" stroke="#04051f"></path><path d="M1388.41 268.44L1339.8 309.51 1275.66 450.41C1274.14 453.66 1271.73 456.43 1268.71 458.38 1265.69 460.35 1262.18 461.42 1258.59 461.48L1166.53 464.49C1166.52 464.49 1166.5 464.5 1166.49 464.51 1166.48 464.51 1166.47 464.53 1166.46 464.54 1165.31 468.35 1162.52 476.46 1160.14 484.24L1160.12 484.32C1159.38 486.38 1143.64 530.56 1140.61 540.54 1139.13 545.55 1139.02 550.87 1140.31 555.93L1149.65 592.69 1152.15 602.53C1152.16 602.59 1152.17 602.66 1152.19 602.72 1153.94 611.15 1152.82 619.65 1153.18 628.15V628.16C1153.19 633.74 1153.14 639.32 1153.04 644.91L1153.03 645.1C1152.95 650.09 1152.82 655.08 1152.63 660.06 1151.21 703.45 1146.05 746.62 1137.23 789.11 1148.61 819.27 1158.04 850.13 1165.45 881.5 1171.17 905.33 1175.91 929.4 1179.96 953.57 1182.03 965.89 1183.94 978.24 1185.68 990.61 1185.75 991.3 1185.67 991.99 1185.45 992.65 1185.24 993.29 1184.88 993.89 1184.42 994.4 1183.95 994.91 1183.39 995.32 1182.76 995.59 1182.13 995.87 1181.44 996 1180.76 996 1161.9 989.33 1143.22 992.63 1125.04 1004.07 1119.4 1005.83 1113.75 1007.87 1108.13 1010.15 1107.43 1010.43 1106.66 1010.51 1105.92 1010.39 1105.18 1010.26 1104.47 1009.93 1103.91 1009.43 1103.34 1008.93 1102.92 1008.29 1102.7 1007.56 1102.48 1006.84 1102.46 1006.07 1102.65 1005.34 1102.71 1005.11 1102.77 1004.87 1102.84 1004.65 1104.55 999.01 1108.99 994.63 1113.78 990.38 1115.19 989.12 1116.63 987.89 1118.09 986.71 1120.09 985.09 1122.14 983.54 1124.23 982.07V982.06C1125.74 981 1127.27 979.96 1128.82 978.95 1130.7 977.73 1132.62 976.54 1134.58 975.4 1136.15 974.47 1137.76 973.56 1139.37 972.69 1144.53 969.86 1148.49 967.98 1149.38 967.54 1149.55 965.5 1149.15 963.75 1146.26 958.88 1141.27 945.06 1131 916.6 1120.42 887.56 1105 845.17 1088.95 801.52 1087.85 800.34 1085.7 798.03 1073.24 703.75 1069.39 655.75 1065.58 654.33 1061.79 652.87 1058.03 651.36 995.87 626.49 940.78 589.83 886.81 551.15 854.62 557.67 821.97 561.69 789.17 563.21 765.73 564.34 739.02 564.3 714.84 563.16 711.31 563.46 707.97 562.07 704.74 563.3 700.42 564.9 688.53 570.73 683.58 572.54 679.42 574.08 668.85 571.15 669.62 566.85L684.54 482.56C687.18 482.95 690.76 483.41 692.04 484.21 693.9 485.42 695.41 487.08 696.44 489.03 697.47 490.99 697.98 493.18 697.93 495.39 698.36 501.15 699.27 509.15 699.67 514.91 699.94 517.69 700.42 523.45 700.69 526.24 700.77 527.08 701.03 527.9 701.44 528.63 701.87 529.36 702.44 530 703.12 530.49 703.81 530.98 704.59 531.33 705.42 531.5 706.24 531.67 707.1 531.65 707.92 531.47 728.91 526.61 758.55 519.83 788.61 512.94 821.51 505.41 854.92 497.76 878.04 492.4 887.82 490.21 898.05 491.34 907.12 495.62L1038.94 558.54C1051.64 564.5 1066 553.35 1063.39 539.62L1050.01 467.32 1048.04 467.69 971.56 481.94C964.16 483.3 956.52 482.11 949.88 478.55L844.2 421.48 807.29 409.64C807.29 409.64 785.29 409.18 785.29 409.19 780.21 408.95 780.66 402.16 785.13 401.8L805.76 400.9C805.77 400.9 805.79 400.9 805.79 400.89 805.8 400.89 805.81 400.88 805.82 400.88 805.83 400.88 805.83 400.87 805.84 400.86 805.85 400.85 805.85 400.84 805.85 400.83 805.85 400.82 805.85 400.81 805.85 400.8 805.85 400.79 805.84 400.78 805.83 400.77 805.83 400.76 805.82 400.76 805.81 400.75 805.8 400.75 805.79 400.75 805.78 400.75L779.14 392.57C778.27 392.27 777.55 391.67 777.1 390.87 776.65 390.09 776.5 389.16 776.68 388.26 776.78 387.77 776.98 387.3 777.27 386.88 777.56 386.47 777.93 386.12 778.37 385.86 778.8 385.6 779.29 385.43 779.79 385.37 780.3 385.31 780.81 385.34 781.29 385.49L810.07 393.83C810.09 393.83 810.11 393.83 810.12 393.82 810.14 393.82 810.15 393.81 810.16 393.79 810.17 393.78 810.17 393.76 810.17 393.75 810.17 393.72 810.16 393.71 810.15 393.7L786.21 370.58C785.47 369.86 785.02 368.88 784.96 367.85 784.9 366.81 785.23 365.79 785.9 364.99 786.56 364.2 787.5 363.68 788.52 363.54 789.55 363.41 790.59 363.67 791.44 364.27L793.21 365.65 792.06 361.96C790.32 358.25 795.26 354.27 798.52 356.58L835.09 380.74C835.1 380.75 835.12 380.76 835.13 380.75 835.15 380.75 835.16 380.74 835.18 380.73 835.19 380.72 835.2 380.71 835.2 380.69 835.2 380.68 835.2 380.66 835.2 380.64L828.36 365.35C827.53 363.54 827.38 361.49 827.93 359.58 828.48 357.66 829.7 356.01 831.35 354.91 831.58 354.77 831.85 354.7 832.12 354.74 832.38 354.78 832.63 354.92 832.81 355.12 843.2 367.26 851.38 381.14 856.97 396.11L957.26 433.03C962.93 435.33 969.22 435.65 975.11 433.94 1004.26 424.2 1034.06 413.44 1064.75 405.73 1068.24 405.91 1071.75 405.59 1075.15 404.79 1078.45 404 1081.63 402.8 1084.62 401.22 1087.86 400.55 1091.15 399.93 1094.46 399.34 1095.8 399.11 1097.01 398.4 1097.88 397.36 1098.75 396.32 1099.23 395 1099.23 393.65 1099.24 389.63 1099.23 382.95 1099.23 376.87L1099.18 376.8C1094.86 374.49 1091.21 371.11 1088.57 366.97 1085.94 362.84 1084.42 358.09 1084.16 353.19 1083.68 345.09 1083.78 336.95 1084.48 328.85 1084.66 326.81 1084.88 324.76 1085.12 322.74H1137.68C1138.13 326.94 1138.46 331.16 1138.65 335.38 1138.9 341.17 1138.9 346.93 1138.61 352.73 1138.36 360.05 1135.31 366.98 1130.1 372.12L1130.08 372.17 1130.92 395.03C1131.05 398.81 1134.31 400.71 1137.69 401.02 1142.31 403.13 1147.34 404.13 1152.41 403.96 1164.42 406.31 1176.47 408.55 1188.65 410.86 1204.1 413.78 1219.61 416.75 1234.74 419.95 1236.13 420.2 1237.56 420.17 1238.93 419.84 1240.3 419.53 1241.6 418.93 1242.74 418.1 1243.86 417.28 1244.81 416.23 1245.52 415.03L1313.27 303.01 1313.81 302.13C1313.81 282.9 1316.64 263.68 1324.65 244.02 1324.76 243.72 1324.97 243.46 1325.23 243.29 1325.5 243.11 1325.82 243.02 1326.13 243.02 1328.17 243.09 1330.11 243.92 1331.56 245.36 1333.01 246.79 1333.87 248.71 1333.96 250.75L1334.55 265.29C1334.55 265.31 1334.56 265.32 1334.57 265.34 1334.58 265.36 1334.6 265.36 1334.61 265.36 1334.64 265.37 1334.65 265.36 1334.67 265.36 1334.68 265.35 1334.69 265.34 1334.7 265.32L1352.11 228.75C1354.07 224.43 1361.53 227.29 1359.8 231.83L1358.99 234.13C1358.98 234.14 1358.98 234.16 1358.99 234.18 1358.99 234.19 1359.01 234.21 1359.02 234.21 1359.04 234.23 1359.05 234.23 1359.07 234.23 1359.08 234.23 1359.11 234.22 1359.12 234.21L1363.49 229.83C1365.14 227.85 1369.22 228.69 1370.6 231.09 1371.29 232.3 1371.09 233.41 1370.68 234.81 1370.03 237.06 1367.83 244.34 1361.34 265.53 1361.34 265.55 1361.34 265.56 1361.34 265.59 1361.35 265.6 1361.36 265.61 1361.38 265.62 1361.39 265.63 1361.41 265.63 1361.43 265.63 1361.45 265.62 1361.46 265.62 1361.47 265.6 1373.45 251.51 1377.17 247.13 1378.16 245.97L1378.17 245.95C1378.19 245.93 1378.21 245.91 1378.22 245.89L1378.21 245.92C1378.22 245.9 1378.24 245.87 1378.26 245.85 1378.27 245.83 1378.28 245.82 1378.3 245.81 1378.32 245.78 1378.35 245.74 1378.38 245.7 1378.4 245.7 1378.41 245.68 1378.41 245.67 1381.6 242.13 1387.25 246.4 1384.41 250.44L1365.77 276.11C1365.75 276.13 1365.75 276.14 1365.75 276.17 1365.75 276.18 1365.76 276.2 1365.78 276.21 1365.79 276.23 1365.81 276.23 1365.83 276.23 1365.85 276.23 1365.87 276.22 1365.88 276.21L1382.72 260.75C1387.83 256.42 1391.63 265.63 1388.41 268.44Z" fill="#fbc3a5" opacity="1" stroke-width="2" stroke="#04051f"></path><path d="M1139.45 322.74C1137.78 320.4 1135.49 318.57 1132.84 317.46 1130.18 316.36 1127.26 316.02 1124.43 316.49 1121.59 316.96 1118.94 318.2 1116.77 320.11 1114.61 322 1113.02 324.46 1112.19 327.22 1112.19 327.24 1112.18 327.25 1112.16 327.26 1112.14 327.28 1112.13 327.28 1112.11 327.28 1109.03 326.97 1105.92 327 1102.84 327.34 1102.83 327.34 1102.8 327.34 1102.79 327.33 1102.77 327.32 1102.77 327.31 1102.76 327.29 1101.82 324.11 1099.87 321.31 1097.21 319.34 1094.56 317.35 1091.32 316.28 1088.01 316.28 1087.34 316.28 1086.68 316.32 1086.02 316.4 1085.71 316.44 1085.39 316.49 1085.08 316.56L1084.93 316.59C1082.16 317.15 1079.6 318.47 1077.53 320.4 1075.46 322.32 1073.96 324.79 1073.2 327.51 1072.43 330.23 1072.43 333.11 1073.2 335.84 1073.97 338.56 1075.47 341.02 1077.55 342.95 1079.63 344.86 1082.19 346.18 1084.96 346.74 1087.73 347.3 1090.61 347.08 1093.27 346.12 1095.93 345.15 1098.27 343.47 1100.03 341.26 1101.79 339.05 1102.92 336.39 1103.27 333.58 1103.27 333.57 1103.28 333.55 1103.3 333.54 1103.3 333.53 1103.32 333.52 1103.34 333.52 1106.08 333.2 1108.84 333.17 1111.58 333.44 1111.6 333.44 1111.61 333.44 1111.63 333.45 1111.64 333.47 1111.65 333.48 1111.65 333.5 1111.93 335.82 1112.74 338.06 1114.02 340.03 1115.29 341.99 1117 343.64 1119.01 344.85 1121.01 346.05 1123.27 346.78 1125.6 346.99 1127.94 347.19 1130.29 346.85 1132.47 346 1134.66 345.16 1136.62 343.82 1138.21 342.11 1139.8 340.39 1140.98 338.33 1141.65 336.08 1142.33 333.84 1142.48 331.46 1142.1 329.15 1141.71 326.84 1140.81 324.65 1139.46 322.74L1139.45 322.74Z" fill="#b9cfe1" opacity="1" stroke-width="2" stroke="#04051f"></path><path d="M1088 319.35C1089.81 319.37 1091.59 319.77 1093.22 320.54 1094.86 321.31 1096.3 322.44 1097.46 323.83 1098.61 325.22 1099.44 326.84 1099.9 328.59 1100.35 330.34 1100.42 332.16 1100.09 333.94 1098.48 343.58 1085.76 347.43 1079.09 340.13 1071.63 332.48 1077.37 319.21 1088 319.35Z" fill="#4d545a" opacity="1" stroke-width="2" stroke="#04051f"></path><path d="M1118.44 322.74C1124.21 316.97 1134.75 318.95 1138.05 326.4 1141.94 334.17 1135.86 344.15 1126.92 343.96 1115.86 344.07 1110.47 330.11 1118.44 322.74Z" fill="#4d545a" opacity="1" stroke-width="2" stroke="#04051f"></path><path d="M1105.38 338.12L1101.69 350.58C1101.58 350.92 1101.55 351.28 1101.6 351.63 1101.66 351.99 1101.79 352.32 1102 352.6 1102.22 352.89 1102.5 353.13 1102.82 353.28 1103.13 353.43 1103.49 353.51 1103.85 353.5H1110" stroke="#000000" stroke-width="2" stroke-linecap="round" stroke-linejoin="round" opacity="1" fill="none"></path><path d="M1103.08 365.5C1109.39 366.58 1115.08 365.65 1119.54 360.88" stroke="#000000" stroke-width="2" stroke-linecap="round" stroke-linejoin="round" opacity="1" fill="none"></path><path d="M1121.85 241.21C1135.38 242.75 1138.92 254.75 1137.23 264.75" stroke="#000000" stroke-width="2" stroke-linecap="round" stroke-linejoin="round" opacity="1" fill="none"></path><path d="M1129.38 287.97C1141.11 294.71 1147.67 303.28 1151.36 312.97 1152.56 316.14 1153.49 319.41 1154.14 322.74" stroke="#000000" stroke-width="2" stroke-linecap="round" stroke-linejoin="round" opacity="1" fill="none"></path><path d="M1219.95 874.09C1219.96 874.1 1219.96 874.11 1219.96 874.12 1219.96 874.14 1219.95 874.14 1219.94 874.15 1219.94 874.16 1219.93 874.17 1219.92 874.17 1219.91 874.18 1219.91 874.19 1219.89 874.19L1165.46 881.5H1165.44L1120.42 887.56 1088.53 891.85C1088.51 891.85 1088.5 891.85 1088.48 891.84 1088.47 891.83 1088.45 891.82 1088.44 891.8 1070.92 839.83 1058.47 768.79 1050.01 684.25 1050.01 684.23 1050.01 684.22 1050 684.21 1049.99 684.2 1049.99 684.19 1049.97 684.19 1006.31 662.05 963.27 635.61 925.45 603.49 925.45 603.47 925.43 603.47 925.41 603.46 925.4 603.46 925.39 603.46 925.38 603.47 924.79 603.71 924.21 603.95 923.63 604.19 880.66 621.82 835.9 634.72 790.15 642.67 790.14 642.67 790.12 642.67 790.12 642.66 790.1 642.66 790.09 642.65 790.09 642.64 790.08 642.64 790.07 642.63 790.06 642.62 790.06 642.61 790.05 642.6 790.05 642.59L789.17 563.21 788.61 512.94V512.93L788.52 505.08C788.52 505.06 788.53 505.04 788.54 505.03 788.55 505.02 788.57 505 788.58 505L877.42 489.63C888.06 487.68 899.04 489.13 908.8 493.78V493.78L1040.94 556.08C1042.29 556.75 1043.78 557.07 1045.28 557.02 1046.78 556.97 1048.25 556.53 1049.55 555.77V555.77L1057.09 551.46C1058.8 550.49 1060.18 549 1061.01 547.21 1061.84 545.42 1062.08 543.41 1061.7 541.47V541.47L1047.71 469.65C1047.71 469.64 1047.71 469.63 1047.71 469.62 1047.81 468.97 1047.93 468.33 1048.04 467.69 1050.61 452.79 1052.95 439.64 1057.25 425.8 1057.26 425.74 1057.28 425.7 1057.29 425.64 1059.4 418.88 1061.88 412.23 1064.73 405.75 1064.73 405.74 1064.74 405.74 1064.75 405.73 1066.85 405.2 1068.96 404.68 1071.07 404.18 1071.08 404.18 1071.09 404.18 1071.09 404.18 1072.46 404.26 1073.82 404.47 1075.15 404.8 1076.54 405.13 1077.99 405.2 1079.41 404.99 1079.42 404.99 1079.43 404.99 1079.44 404.99 1079.46 404.99 1079.46 405 1079.47 405 1079.48 405 1079.49 405.01 1079.49 405.02 1079.49 405.03 1079.5 405.04 1079.5 405.05 1079.69 406.39 1082.24 423.68 1082.56 425.65 1085.97 446.49 1090.84 466.37 1096.1 487.09 1096.1 487.11 1096.11 487.12 1096.12 487.13 1096.14 487.15 1096.15 487.15 1096.17 487.15 1096.18 487.15 1096.2 487.15 1096.21 487.14 1096.23 487.13 1096.24 487.11 1096.24 487.1 1096.84 485.54 1097.42 483.99 1098.02 482.45 1105.65 462.72 1113.6 444.23 1123.46 425.65 1127.78 417.51 1132.47 409.35 1137.66 401.07 1137.67 401.05 1137.69 401.05 1137.69 401.04 1137.71 401.03 1137.73 401.03 1137.74 401.03 1142.61 402.03 1147.47 403 1152.33 403.95 1152.35 403.95 1152.36 403.96 1152.38 403.98 1152.39 404 1152.4 404.02 1152.39 404.03L1148.28 425.65 1141.07 463.64C1140.63 466.12 1140.73 468.66 1141.35 471.1 1141.98 473.53 1143.12 475.81 1144.69 477.77 1146.27 479.73 1148.25 481.32 1150.49 482.46 1152.74 483.6 1155.21 484.23 1157.72 484.33 1158.5 484.37 1159.28 484.33 1160.06 484.26 1160.06 484.25 1160.07 484.26 1160.08 484.26 1160.09 484.26 1160.1 484.27 1160.1 484.27 1160.11 484.28 1160.11 484.29 1160.11 484.3 1160.12 484.3 1160.12 484.31 1160.11 484.32L1141.98 545.62C1140.76 549.74 1140.76 554.12 1141.98 558.23V558.23L1152.32 592.76C1152.32 592.77 1152.33 592.77 1152.33 592.79 1152.34 592.8 1152.35 592.8 1152.36 592.8 1164.25 597.42 1162.99 651.31 1153.54 666.5 1153.53 666.51 1153.53 666.54 1153.53 666.56 1153.79 667.68 1154.1 668.8 1154.44 669.91L1219.95 874.09Z" fill="#dd8387" opacity="1" stroke-width="2" stroke="#04051f"></path><path d="M872.35 564.23L925.41 603.45" stroke="#000000" stroke-width="2" stroke-linecap="round" stroke-linejoin="round" opacity="1" fill="none"></path><path d="M881.58 515.78L845.43 540.39" stroke="#000000" stroke-width="2" stroke-linecap="round" stroke-linejoin="round" opacity="1" fill="none"></path><path d="M963.87 590.38L977.42 611.25 1010.74 662.95" stroke="#000000" stroke-width="2" stroke-linecap="round" stroke-linejoin="round" opacity="1" fill="none"></path><path d="M1050.01 684.21L1058.03 651.37 1063.85 621.14" stroke="#000000" stroke-width="2" stroke-linecap="round" stroke-linejoin="round" opacity="1" fill="none"></path><path d="M1069.24 573.46L1053.09 602.68" stroke="#000000" stroke-width="2" stroke-linecap="round" stroke-linejoin="round" opacity="1" fill="none"></path><path d="M1061.69 545.13C1062.21 545.61 1062.73 546.08 1063.27 546.53 1076.68 557.98 1094.42 562.84 1112.58 561.02 1117.3 560.54 1121.97 559.63 1126.52 558.31 1131.5 556.84 1136.38 555.01 1141.1 552.85" stroke="#000000" stroke-width="2" stroke-linecap="round" stroke-linejoin="round" opacity="1" fill="none"></path><path d="M1113.85 621.14L1095.39 664.98" stroke="#000000" stroke-width="2" stroke-linecap="round" stroke-linejoin="round" opacity="1" fill="none"></path><path d="M1153.53 666.52C1153.52 666.61 1143.09 746.42 1143.07 746.51" stroke="#000000" stroke-width="2" stroke-linecap="round" stroke-linejoin="round" opacity="1" fill="none"></path><path d="M1152.3 772.66L1148.28 820.4 1146.92 836.5" stroke="#000000" stroke-width="2" stroke-linecap="round" stroke-linejoin="round" opacity="1" fill="none"></path><path d="M1124.61 504.24L1111.54 509.62" stroke="#000000" stroke-width="2" stroke-linecap="round" stroke-linejoin="round" opacity="1" fill="none"></path><path d="M1075.39 504.24L1063.08 507.32" stroke="#000000" stroke-width="2" stroke-linecap="round" stroke-linejoin="round" opacity="1" fill="none"></path><path d="M1166.48 464.49L1170.67 451.18" stroke="#000000" stroke-width="2" stroke-linecap="round" stroke-linejoin="round" opacity="1" fill="none"></path><path d="M1227.68 433.49L1206.91 445.02" stroke="#000000" stroke-width="2" stroke-linecap="round" stroke-linejoin="round" opacity="1" fill="none"></path><path d="M1234.74 419.95L1253.11 423.79" stroke="#000000" stroke-width="2" stroke-linecap="round" stroke-linejoin="round" opacity="1" fill="none"></path><path d="M1308.42 344.27L1293.05 358.12" stroke="#000000" stroke-width="2" stroke-linecap="round" stroke-linejoin="round" opacity="1" fill="none"></path><path d="M1000.79 449.64L979.26 464.25" stroke="#000000" stroke-width="2" stroke-linecap="round" stroke-linejoin="round" opacity="1" fill="none"></path><path d="M756.22 535L742.37 547.31" stroke="#000000" stroke-width="2" stroke-linecap="round" stroke-linejoin="round" opacity="1" fill="none"></path><path d="M1156.92 914.94L1152.3 926.48" stroke="#000000" stroke-width="2" stroke-linecap="round" stroke-linejoin="round" opacity="1" fill="none"></path><path d="M1183.99 604.69V654.68C1183.9 657.82 1182.6 660.8 1180.37 663.01 1178.13 665.21 1175.13 666.48 1171.99 666.52H1153.6C1153.58 666.52 1153.56 666.51 1153.55 666.51 1153.53 666.5 1153.53 666.48 1153.52 666.46 1153.05 664.36 1152.76 662.22 1152.63 660.06V660.01C1152.58 658.9 1152.57 657.79 1152.61 656.67L1153.03 645.1 1153.04 644.91 1153.64 628.81C1153.64 628.8 1153.63 628.78 1153.63 628.77 1149.47 623.14 1141.81 612.04 1135.38 601.84 1127.05 588.65 1119.44 575.02 1112.58 561.02 1092.18 519.21 1079.49 475.2 1073.33 425.64 1072.45 418.6 1071.71 411.45 1071.09 404.19V404.19L1071.09 404.18C1073.87 403.52 1076.66 402.89 1079.46 402.29 1081.14 401.92 1082.84 401.58 1084.54 401.24 1084.55 401.23 1084.55 401.24 1084.57 401.24 1084.58 401.24 1084.58 401.25 1084.6 401.25 1084.61 401.25 1084.62 401.27 1084.62 401.28 1084.62 401.28 1084.62 401.29 1084.62 401.31 1085.29 409.58 1086.13 417.69 1087.15 425.65 1089.54 444.79 1093.16 463.77 1098.02 482.45 1104.86 508.65 1114.41 534.08 1126.52 558.31 1132.3 569.92 1138.72 581.38 1145.76 592.7 1148.48 597.05 1151.45 601.68 1154.34 605.95 1154.34 605.96 1154.36 605.97 1154.37 605.98 1154.39 605.99 1154.4 605.99 1154.42 605.98 1154.44 605.97 1154.45 605.96 1154.46 605.96 1154.47 605.94 1154.47 605.93 1154.47 605.91 1154.5 601.95 1153.93 598.01 1152.76 594.23V594.23L1152.33 592.79C1152.33 592.78 1152.33 592.77 1152.33 592.76 1152.33 592.74 1152.33 592.74 1152.34 592.72 1152.35 592.71 1152.36 592.7 1152.37 592.7 1152.38 592.7 1152.4 592.69 1152.4 592.7H1171.99C1175.17 592.7 1178.22 593.97 1180.47 596.21 1182.72 598.46 1183.98 601.51 1183.99 604.69Z" fill="#cfe1b9" opacity="1" stroke-width="2" stroke="#04051f"></path><path d="M1088.93 323.82L1084.48 328.85 1080.94 332.86 1080.78 333.04" stroke="#000000" stroke-width="2" stroke-linecap="round" stroke-linejoin="round" opacity="1" fill="none"></path><path d="M1127.38 323.2L1120.77 330.89" stroke="#000000" stroke-width="2" stroke-linecap="round" stroke-linejoin="round" opacity="1" fill="none"></path><path d="M1099.23 376.84C1102.6 378.88 1105.73 379.65 1111.38 379.65" stroke="#000000" stroke-width="2" stroke-linecap="round" stroke-linejoin="round" opacity="1" fill="none"></path><path d="M711.36 529.15C711.34 529.15 711.32 529.16 711.32 529.17 711.31 529.18 711.3 529.2 711.3 529.21L708.85 557.1C708.85 557.11 708.84 557.13 708.83 557.14 708.81 557.16 708.8 557.17 708.78 557.17L677.11 563.9C677.1 563.9 677.09 563.9 677.07 563.9 677.06 563.9 677.05 563.89 677.04 563.88 677.03 563.87 677.03 563.86 677.02 563.85 677.02 563.84 677.02 563.82 677.02 563.81L683.3 523.82C683.3 523.81 683.31 523.8 683.32 523.78 683.33 523.78 683.34 523.77 683.36 523.76L700.31 520.1C700.34 520.1 700.35 520.08 700.36 520.07 700.37 520.05 700.37 520.03 700.37 520.01L699.93 514.94C699.93 514.93 699.92 514.92 699.92 514.91 699.91 514.9 699.9 514.89 699.9 514.88 699.89 514.88 699.88 514.88 699.87 514.87 699.86 514.87 699.84 514.87 699.84 514.87L699.67 514.91 684.19 518.21C684.17 518.22 684.16 518.22 684.15 518.21 684.14 518.21 684.13 518.2 684.12 518.19 684.11 518.19 684.1 518.17 684.1 518.16 684.1 518.15 684.1 518.14 684.1 518.12L685.3 510.75C685.3 510.73 685.31 510.72 685.32 510.71 685.33 510.7 685.34 510.69 685.36 510.69L699.24 507.64C699.26 507.64 699.27 507.62 699.28 507.61 699.3 507.59 699.3 507.58 699.3 507.56L698.85 502.48C698.85 502.47 698.85 502.46 698.84 502.45 698.83 502.44 698.83 502.43 698.82 502.42 698.81 502.42 698.8 502.42 698.79 502.42 698.78 502.41 698.77 502.41 698.76 502.42L686.34 505.14C686.33 505.14 686.31 505.14 686.31 505.13 686.29 505.13 686.28 505.13 686.27 505.12 686.26 505.11 686.26 505.1 686.25 505.09 686.24 505.07 686.24 505.06 686.25 505.05L687.45 497.68C687.45 497.66 687.46 497.65 687.48 497.63 687.48 497.63 687.5 497.62 687.51 497.61L698.16 495.33C698.18 495.33 698.2 495.32 698.21 495.3 698.22 495.28 698.23 495.27 698.22 495.25 697.79 491.1 697.94 491.3 697.49 490.15 697.48 490.13 697.46 490.12 697.45 490.11 697.43 490.1 697.41 490.09 697.39 490.1L688.34 492.07C688.33 492.07 688.32 492.07 688.31 492.06 688.29 492.06 688.28 492.05 688.27 492.04 688.26 492.04 688.25 492.03 688.25 492.01 688.25 492 688.25 491.99 688.25 491.97 688.48 490.61 689.79 482.53 689.92 481.78 690.25 479.88 688.38 479.51 687 479.01 686.72 478.9 686.43 478.85 686.14 478.88 685.84 478.89 685.56 478.98 685.31 479.13 685.06 479.28 684.84 479.48 684.68 479.73 684.52 479.98 684.42 480.25 684.38 480.55V480.55L667.46 571.46C667.39 571.99 667.53 572.52 667.85 572.95 668.16 573.38 668.63 573.68 669.16 573.77V573.77L673.31 574.23H674.06C674.08 574.23 674.08 574.23 674.1 574.24 677.17 575.92 680.85 576.69 683 575.76L702.29 567.46C706.23 565.87 708.25 564.47 714.78 563.17 714.8 563.17 714.81 563.15 714.83 563.14 714.84 563.13 714.84 563.11 714.84 563.1L718.06 527.73C718.06 527.71 718.06 527.7 718.05 527.69 718.05 527.68 718.05 527.67 718.04 527.67 718.02 527.65 718.02 527.65 718 527.64 717.99 527.64 717.98 527.64 717.97 527.64L711.36 529.15Z" fill="#cfe1b9" opacity="1" stroke-width="2" stroke="#04051f"></path><path d="M1125.07 1004.15L1125.04 1004.07 1124.61 1002.92C1123.4 1003.23 1122.22 1003.65 1121.08 1004.15H1125.07Z" fill="#cfe1b9" opacity="1" stroke-width="2" stroke="#04051f"></path><path d="M1187.06 997.54C1187.06 997.73 1187.02 997.92 1186.94 998.1 1186.85 998.28 1186.74 998.44 1186.59 998.57 1186.45 998.69 1186.28 998.79 1186.09 998.85 1185.92 998.91 1185.72 998.94 1185.52 998.92H1185.51C1185.11 998.88 1161.4 996.64 1161.22 996.61 1154.93 996.01 1148.59 996.75 1142.61 998.77 1137.9 1000.37 1106.73 1011.1 1101.39 1012.91H1101.38C1101.24 1012.95 1101.09 1012.95 1100.95 1012.93 1100.8 1012.9 1100.66 1012.84 1100.55 1012.75 1100.42 1012.67 1100.33 1012.55 1100.26 1012.42 1100.19 1012.29 1100.15 1012.14 1100.15 1012V1011.99L1100.29 1010.7 1100.76 1006.15C1100.81 1005.53 1102.8 1004.67 1102.83 1004.65L1116.84 998.34C1116.86 998.33 1116.87 998.31 1116.88 998.3 1116.89 998.28 1116.89 998.26 1116.88 998.24L1113.4 989.44C1113.39 989.42 1113.39 989.4 1113.39 989.39 1113.4 989.37 1113.41 989.36 1113.41 989.35 1114.76 988.16 1116.11 986.96 1117.6 985.76 1117.61 985.75 1117.62 985.75 1117.63 985.75 1117.64 985.74 1117.66 985.74 1117.67 985.75 1117.68 985.75 1117.69 985.75 1117.7 985.76 1117.7 985.77 1117.71 985.78 1117.72 985.79 1123.22 999.82 1121.52 995.48 1121.81 996.23 1121.82 996.24 1121.82 996.25 1121.82 996.26 1121.83 996.27 1121.84 996.27 1121.85 996.27 1121.86 996.27 1121.87 996.28 1121.89 996.28 1121.89 996.28 1121.9 996.27 1121.91 996.27L1128.54 993.26C1128.56 993.25 1128.57 993.24 1128.58 993.22 1128.59 993.2 1128.59 993.19 1128.58 993.16L1123.86 981.14C1123.85 981.12 1123.85 981.1 1123.86 981.09 1123.86 981.07 1123.87 981.06 1123.88 981.05 1125.38 980 1126.88 979.1 1128.37 978.06 1128.38 978.05 1128.39 978.05 1128.41 978.05 1128.42 978.05 1128.43 978.05 1128.44 978.05 1128.45 978.05 1128.46 978.06 1128.47 978.07 1128.48 978.08 1128.48 978.08 1128.48 978.09 1135.15 995.81 1132.9 989.8 1133.37 991.06 1133.37 991.06 1133.37 991.06 1133.37 991.07 1133.37 991.07 1133.37 991.07 1133.37 991.07 1133.38 991.08 1133.39 991.08 1133.39 991.07L1139.61 988.33C1139.63 988.33 1139.64 988.31 1139.65 988.3 1139.66 988.28 1139.66 988.26 1139.65 988.23L1134.17 974.37C1134.16 974.36 1134.16 974.34 1134.17 974.32 1134.18 974.3 1134.18 974.29 1134.2 974.28 1135.69 973.38 1137.19 972.49 1138.83 971.59 1138.84 971.58 1138.86 971.58 1138.87 971.58 1138.87 971.58 1138.89 971.58 1138.9 971.58 1138.91 971.59 1138.92 971.59 1138.93 971.6 1138.93 971.61 1138.94 971.62 1138.94 971.62L1144.73 986.25C1144.73 986.26 1144.75 986.28 1144.76 986.29 1144.79 986.29 1144.8 986.3 1144.83 986.29 1150.4 984.48 1156.3 983.85 1162.14 984.47V984.47L1173.56 985.53C1173.58 985.54 1173.59 985.53 1173.6 985.53 1173.61 985.52 1173.63 985.52 1173.63 985.51 1173.64 985.5 1173.65 985.49 1173.65 985.48 1173.65 985.47 1173.65 985.45 1173.65 985.45L1172.02 977.01C1171.89 976.34 1171.89 975.66 1171.99 975L1174.11 961.97C1174.12 961.96 1174.11 961.94 1174.11 961.94 1174.1 961.92 1174.1 961.91 1174.09 961.9 1174.08 961.89 1174.07 961.89 1174.06 961.88 1174.04 961.88 1174.03 961.88 1174.02 961.88L1149.43 967.53C1149.41 967.53 1149.39 967.53 1149.38 967.53 1149.36 967.52 1149.35 967.5 1149.35 967.48L1146.28 958.97C1146.27 958.96 1146.27 958.95 1146.27 958.94 1146.27 958.93 1146.28 958.92 1146.29 958.91 1146.29 958.89 1146.3 958.89 1146.31 958.88 1146.32 958.88 1146.33 958.87 1146.34 958.87L1179.89 953.59C1179.91 953.59 1179.92 953.59 1179.94 953.6 1179.96 953.6 1179.97 953.62 1179.98 953.64 1185.58 967.39 1186.97 982.75 1187.06 997.54Z" fill="#cfe1b9" opacity="1" stroke-width="2" stroke="#04051f"></path><path d="M835.3 380.89L837.74 385.34" stroke="#000000" stroke-width="2" stroke-linecap="round" stroke-linejoin="round" opacity="1" fill="none"></path><path d="M967.43 435.02L943.87 439.18" stroke="#000000" stroke-width="2" stroke-linecap="round" stroke-linejoin="round" opacity="1" fill="none"></path><path d="M793.21 365.65L815.74 386.26" stroke="#000000" stroke-width="2" stroke-linecap="round" stroke-linejoin="round" opacity="1" fill="none"></path><path d="M808.97 404.72C808.43 399.74 809.51 394.72 812.06 390.42" stroke="#000000" stroke-width="2" stroke-linecap="round" stroke-linejoin="round" opacity="1" fill="none"></path><path d="M829.94 356.09L832.98 363.65C833 363.71 833.03 363.76 833.08 363.81 833.12 363.84 833.19 363.88 833.25 363.89 833.3 363.91 833.37 363.91 833.43 363.89 833.49 363.88 833.55 363.84 833.59 363.81L837.74 361.26" stroke="#000000" stroke-width="2" stroke-linecap="round" stroke-linejoin="round" opacity="1" fill="none"></path><path d="M1358.72 259.21L1361.16 265.7 1361.23 265.89 1366.42 279.67" stroke="#000000" stroke-width="2" stroke-linecap="round" stroke-linejoin="round" opacity="1" fill="none"></path><path d="M1313.81 302.13L1314.58 313.04" stroke="#000000" stroke-width="2" stroke-linecap="round" stroke-linejoin="round" opacity="1" fill="none"></path><path d="M1358.99 234.13L1350.53 255.2" stroke="#000000" stroke-width="2" stroke-linecap="round" stroke-linejoin="round" opacity="1" fill="none"></path><path d="M1334.55 265.29L1334.1 279.22" stroke="#000000" stroke-width="2" stroke-linecap="round" stroke-linejoin="round" opacity="1" fill="none"></path><path d="M1321.81 251.98C1322.67 252.13 1323.55 252.1 1324.41 251.89 1325.26 251.68 1326.06 251.29 1326.76 250.76 1327.45 250.22 1328.02 249.55 1328.44 248.78 1328.86 248.01 1329.11 247.17 1329.19 246.29L1329.46 243.86" stroke="#000000" stroke-width="2" stroke-linecap="round" stroke-linejoin="round" opacity="1" fill="none"></path></g><g><path d="M1152.08 776.8C1140.56 763.64 1125.63 756.36 1110.15 756.36H951.08C936.92 756.24 923.01 751.42 910.75 742.38 898.49 733.35 888.32 720.39 881.21 704.82 876.8 695.42 870.59 687.65 863.12 682.22 855.66 676.82 847.19 673.96 838.6 673.96H622.41C605.86 673.96 589.64 679.89 575.65 691.09 561.65 702.24 550.42 718.23 543.24 737.19L509.13 827.32C502.24 845.51 491.43 860.92 477.98 871.67 464.49 882.42 448.92 888.14 432.99 888.14H350.05C326.69 888.14 304.19 899.3 287.01 919.41L216.92 1001.33C216.15 1002.22 215.6 1003.37 215.37 1004.68 215.15 1005.94 215.21 1007.29 215.6 1008.52 215.99 1009.75 216.63 1010.81 217.5 1011.54 218.37 1012.28 219.36 1012.69 220.39 1012.69H1376.52C1377.61 1012.69 1378.67 1012.4 1379.67 1011.91 1380.67 1011.38 1381.57 1010.6 1382.34 1009.62 1383.11 1008.64 1383.72 1007.5 1384.14 1006.23 1384.56 1004.96 1384.75 1003.57 1384.75 1002.22V914.92C1384.75 898.44 1379.61 882.62 1370.43 870.98 1361.26 859.33 1348.81 852.79 1335.84 852.79H1275.92C1238.94 852.79 1203.25 835.37 1175.77 803.9L1152.08 776.8Z" fill="#cfe1b9" opacity="1" stroke-width="2" stroke="#04051f"></path><path d="M322.18 961.92L350.89 925.46" stroke="#000000" stroke-width="2" stroke-linecap="round" stroke-linejoin="round" opacity="1" fill="none"></path><path d="M599.04 776.43L630.93 735.92" stroke="#000000" stroke-width="2" stroke-linecap="round" stroke-linejoin="round" opacity="1" fill="none"></path><path d="M799.98 782.24L824.25 751.42" stroke="#000000" stroke-width="2" stroke-linecap="round" stroke-linejoin="round" opacity="1" fill="none"></path><path d="M930.64 897.83L967.94 850.46" stroke="#000000" stroke-width="2" stroke-linecap="round" stroke-linejoin="round" opacity="1" fill="none"></path><path d="M1058.95 961.31L1100.91 908.05" stroke="#000000" stroke-width="2" stroke-linecap="round" stroke-linejoin="round" opacity="1" fill="none"></path><path d="M1263.2 894.56L1222.98 945.65" stroke="#000000" stroke-width="2" stroke-linecap="round" stroke-linejoin="round" opacity="1" fill="none"></path></g><g><path d="M1204.65 778.65C1204.65 766.48 1208.23 754.57 1214.95 744.42 1221.66 734.26 1231.21 726.3 1242.42 721.54 1253.62 716.77 1265.97 715.4 1277.95 717.6 1289.93 719.79 1300.99 725.47 1309.77 733.91 1318.54 742.35 1324.65 753.19 1327.31 765.07 1329.97 776.94 1329.09 789.35 1324.76 800.72 1320.43 812.1 1312.85 821.96 1302.97 829.06 1293.08 836.18 1281.31 840.21 1269.15 840.69 1265.86 840.82 1262.56 840.69 1259.29 840.29 1244.22 838.47 1230.34 831.19 1220.27 819.84 1210.21 808.48 1204.65 793.83 1204.65 778.65Z" fill="#b9cfe1" opacity="1" stroke-width="2" stroke="#04051f"></path><path d="M1265.35 813.84L1266.14 793.82 1266.46 785.39 1266.73 778.65 1267.33 763.48 1268.12 743.48" stroke="#000000" stroke-width="2" stroke-linecap="round" stroke-linejoin="round" opacity="1" fill="none"></path><path d="M1299.25 813.84L1277.03 789.81 1266.73 778.65 1256.43 767.5 1234.21 743.48" stroke="#000000" stroke-width="2" stroke-linecap="round" stroke-linejoin="round" opacity="1" fill="none"></path><path d="M1301.91 780.04L1281.9 779.25 1266.73 778.65 1251.56 778.06 1231.55 777.27" stroke="#000000" stroke-width="2" stroke-linecap="round" stroke-linejoin="round" opacity="1" fill="none"></path><path d="M1301.91 746.13L1277.88 768.35 1266.73 778.65 1255.58 788.96 1231.55 811.17" stroke="#000000" stroke-width="2" stroke-linecap="round" stroke-linejoin="round" opacity="1" fill="none"></path><path d="M1235.01 793.93L1253.05 785.24 1266.73 778.66 1280.42 772.07 1298.46 763.39" stroke="#000000" stroke-width="2" stroke-linecap="round" stroke-linejoin="round" opacity="1" fill="none"></path><path d="M1250.89 823.86L1261.21 794.41 1261.71 792.98 1264.4 785.3 1266.73 778.65 1271.75 764.32 1282.57 733.44" stroke="#000000" stroke-width="2" stroke-linecap="round" stroke-linejoin="round" opacity="1" fill="none"></path><path d="M1282 810.38L1273.32 792.34 1271.35 788.27 1270.05 785.54 1266.73 778.65 1260.15 764.97 1251.46 746.93" stroke="#000000" stroke-width="2" stroke-linecap="round" stroke-linejoin="round" opacity="1" fill="none"></path><path d="M1311.94 794.5L1281.06 783.68 1266.73 778.66 1252.4 773.64 1221.52 762.82" stroke="#000000" stroke-width="2" stroke-linecap="round" stroke-linejoin="round" opacity="1" fill="none"></path><path d="M1307.57 1012.58C1307.58 1012.58 1307.6 1012.57 1307.62 1012.56 1307.62 1012.55 1307.64 1012.53 1307.64 1012.52 1309.95 1000.93 1312.14 988.92 1314.19 976.61 1314.28 976.06 1314.37 975.51 1314.46 974.96 1319.13 946.51 1322.51 919.35 1324.58 894.86 1324.58 894.85 1324.58 894.82 1324.56 894.81 1324.55 894.8 1324.54 894.79 1324.52 894.78L1310.57 892.51 1296.59 890.24C1296.57 890.23 1296.54 890.24 1296.53 890.25 1296.51 890.25 1296.51 890.28 1296.5 890.29 1290.66 914.06 1285.2 940.76 1280.54 969.1 1278.09 983.98 1276 998.51 1274.27 1012.49 1274.27 1012.5 1274.27 1012.51 1274.27 1012.52 1274.28 1012.53 1274.29 1012.54 1274.29 1012.55 1274.3 1012.55 1274.31 1012.56 1274.32 1012.57 1274.32 1012.57 1274.34 1012.58 1274.34 1012.58H1307.57V1012.58Z" fill="#959c8d" opacity="1" stroke-width="2" stroke="#04051f"></path><path d="M1290.83 1012.58L1310.57 892.51" stroke="#000000" stroke-width="2" stroke-linecap="round" stroke-linejoin="round" opacity="1" fill="none"></path><path d="M1327.45 1012.58C1327.45 1012.58 1327.47 1012.57 1327.48 1012.57 1327.49 1012.56 1327.5 1012.55 1327.51 1012.54 1331.23 1007.02 1334.96 1001.38 1338.7 995.6 1352.76 973.86 1365.27 952.73 1375.77 933.32 1375.78 933.3 1375.78 933.28 1375.78 933.27 1375.77 933.25 1375.76 933.23 1375.74 933.22L1365.07 926.35 1354.4 919.46C1354.39 919.45 1354.36 919.45 1354.34 919.45 1354.33 919.45 1354.31 919.47 1354.3 919.48 1341.38 936.41 1327.76 955.72 1314.19 976.61 1313.75 977.27 1313.32 977.93 1312.89 978.6 1305.45 990.11 1298.43 1001.46 1291.92 1012.46 1291.91 1012.47 1291.91 1012.49 1291.91 1012.5 1291.91 1012.51 1291.91 1012.52 1291.92 1012.54 1291.93 1012.55 1291.94 1012.55 1291.95 1012.56 1291.96 1012.57 1291.97 1012.58 1291.99 1012.58H1327.45V1012.58Z" fill="#959c8d" opacity="1" stroke-width="2" stroke="#04051f"></path><path d="M1309.32 1012.58L1365.08 926.35" stroke="#000000" stroke-width="2" stroke-linecap="round" stroke-linejoin="round" opacity="1" fill="none"></path><path d="M1261.91 1012.58C1261.92 1012.58 1261.95 1012.57 1261.96 1012.55 1261.97 1012.54 1261.98 1012.52 1261.98 1012.5L1269.15 840.69 1271.14 793.18 1271.35 788.26 1271.46 785.67C1271.46 785.65 1271.46 785.63 1271.44 785.62 1271.43 785.61 1271.41 785.6 1271.39 785.6L1270.04 785.54 1266.46 785.39 1264.4 785.3 1261.67 785.19C1261.65 785.19 1261.63 785.2 1261.62 785.21 1261.6 785.23 1261.6 785.24 1261.6 785.27L1261.28 792.83 1261.21 794.41 1259.29 840.3 1252.12 1012.5C1252.12 1012.51 1252.12 1012.52 1252.12 1012.53 1252.12 1012.54 1252.13 1012.55 1252.14 1012.55 1252.15 1012.56 1252.15 1012.57 1252.16 1012.58 1252.17 1012.58 1252.18 1012.58 1252.19 1012.58L1261.91 1012.58Z" fill="#cfe1b9" opacity="1" stroke-width="2" stroke="#04051f"></path><path d="M1251.55 778.65C1251.55 778.45 1251.55 778.25 1251.56 778.06 1251.72 774.13 1253.38 770.43 1256.2 767.7 1259.03 764.99 1262.8 763.47 1266.73 763.47 1266.93 763.47 1267.13 763.47 1267.33 763.48 1271.25 763.64 1274.96 765.3 1277.68 768.13 1280.4 770.96 1281.91 774.73 1281.91 778.65 1281.91 778.85 1281.91 779.05 1281.9 779.25 1281.79 782.01 1280.94 784.68 1279.43 786.98 1277.91 789.29 1275.8 791.14 1273.32 792.34 1272.62 792.67 1271.89 792.95 1271.14 793.18 1269.72 793.61 1268.23 793.84 1266.73 793.84 1266.53 793.84 1266.33 793.83 1266.14 793.82 1264.63 793.77 1263.14 793.49 1261.71 792.98 1261.57 792.94 1261.42 792.88 1261.28 792.83 1258.41 791.73 1255.95 789.78 1254.21 787.25 1252.48 784.72 1251.55 781.73 1251.55 778.65Z" fill="#dd8387" opacity="1" stroke-width="2" stroke="#04051f"></path></g><g><path d="M631.2 859.26C640.68 836.29 642.65 815.3 635.59 812.39 628.54 809.47 615.13 825.74 605.65 848.71 596.16 871.69 594.2 892.67 601.25 895.59 608.31 898.5 621.72 882.23 631.2 859.26Z" fill="#b9cfe1" opacity="1" stroke-width="2" stroke="#04051f"></path><path d="M357.66 1012.43C357.68 1012.43 357.69 1012.43 357.7 1012.42 357.71 1012.42 357.73 1012.41 357.74 1012.4 357.74 1012.39 357.75 1012.38 357.76 1012.36 357.76 1012.35 357.76 1012.34 357.76 1012.32L345.49 880.66C345.31 878.78 344.4 877.05 342.94 875.84 341.5 874.64 339.63 874.06 337.75 874.23V874.23C335.87 874.4 334.14 875.32 332.93 876.77 331.73 878.22 331.15 880.1 331.32 881.97L337.86 952.15C337.86 952.16 337.86 952.18 337.85 952.2 337.84 952.22 337.83 952.23 337.82 952.24 337.8 952.25 337.78 952.25 337.77 952.25 337.75 952.25 337.73 952.25 337.72 952.24 328.05 946.83 311.03 942.86 281.04 946.34 280.18 946.44 279.41 946.87 278.88 947.54 278.35 948.22 278.11 949.07 278.21 949.93 278.3 950.78 278.74 951.56 279.4 952.09 280.07 952.62 280.93 952.87 281.78 952.77 316.44 948.75 331.84 955.02 338.64 960.75 338.66 960.77 338.67 960.79 338.68 960.82L343.47 1012.34C343.47 1012.37 343.48 1012.39 343.5 1012.41 343.52 1012.42 343.54 1012.43 343.57 1012.43L357.66 1012.43Z" fill="#869179" opacity="1" stroke-width="2" stroke="#04051f"></path><path d="M303.6 962.19C305.15 957.66 305.54 952.82 304.76 948.11 303.97 943.4 302.03 938.96 299.11 935.18 296.19 931.39 292.37 928.4 288 926.46 283.63 924.52 278.86 923.7 274.09 924.05 273.83 924.07 273.56 924.09 273.3 924.12 252.91 926 221.74 948.2 219.69 949.67 219.68 949.68 219.67 949.69 219.66 949.71 219.66 949.72 219.65 949.73 219.65 949.75 219.65 949.76 219.65 949.78 219.66 949.79 219.67 949.81 219.67 949.82 219.69 949.83 222.6 952.26 288.14 1007.43 303.6 962.19Z" fill="#cfe1b9" opacity="1" stroke-width="2" stroke="#04051f"></path><path d="M219.59 949.75C235.85 958.09 291.65 925.05 304.75 947.87" stroke="#000000" stroke-width="2" stroke-linecap="round" stroke-linejoin="round" opacity="1" fill="none"></path><path d="M590.79 1012.43C590.8 1012.43 590.82 1012.43 590.83 1012.42 590.84 1012.42 590.85 1012.41 590.86 1012.4 590.87 1012.39 590.88 1012.38 590.88 1012.37 590.89 1012.35 590.89 1012.34 590.89 1012.33 588.84 981.84 597.84 960.88 630.58 953.92 656.28 948.45 699.69 947.19 700.13 947.18 700.98 947.14 701.78 946.78 702.36 946.15 702.94 945.53 703.26 944.72 703.23 943.87 703.21 943.02 702.85 942.21 702.24 941.62 701.62 941.03 700.8 940.71 699.95 940.72V940.72C698.15 940.77 655.51 942 629.23 947.59 622.22 949.14 615.52 951.84 609.42 955.6 609.4 955.61 609.37 955.62 609.35 955.61 609.33 955.61 609.31 955.6 609.29 955.58 609.27 955.56 609.27 955.54 609.27 955.52 609.26 955.49 609.27 955.47 609.29 955.45 614.14 949.51 619.63 943.26 625.36 936.75 648.74 910.16 675.24 880.03 680.69 846.75 687.81 803.34 678.96 792.71 674.83 790.15 673.31 789.21 671.48 788.88 669.72 789.22 667.96 789.57 666.4 790.56 665.34 792.01 664.28 793.46 663.81 795.25 664.02 797.03 664.23 798.81 665.1 800.44 666.46 801.61 666.47 801.61 666.48 801.62 666.48 801.63 667.21 802.75 672.02 811.7 666.65 844.45 661.85 873.7 636.78 902.21 614.67 927.35 605.8 937.44 597.42 946.96 590.89 955.94 577.69 974.03 575.6 995.79 576.59 1012.34 576.59 1012.37 576.6 1012.39 576.62 1012.41 576.64 1012.42 576.66 1012.43 576.69 1012.43L590.79 1012.43Z" fill="#869179" opacity="1" stroke-width="2" stroke="#04051f"></path><path d="M644.89 798.74C650.89 794.02 643.69 774.87 628.82 755.96 613.94 737.04 597.02 725.55 591.02 730.27 585.02 734.99 592.22 754.14 607.1 773.05 621.97 791.96 638.89 803.46 644.89 798.74Z" fill="#b9cfe1" opacity="1" stroke-width="2" stroke="#04051f"></path><path d="M714.58 742.2C720.07 717.97 718.49 696.96 711.05 695.27 703.6 693.59 693.12 711.87 687.63 736.09 682.13 760.33 683.71 781.34 691.16 783.03 698.6 784.72 709.09 766.44 714.58 742.2Z" fill="#4a8cc2" opacity="1" stroke-width="2" stroke="#04051f"></path><path d="M596.65 837.57C620.04 829.16 636.9 816.54 634.32 809.35 631.75 802.16 610.7 803.15 587.31 811.56 563.92 819.95 547.05 832.59 549.63 839.78 552.2 846.95 573.26 845.96 596.65 837.57Z" fill="#b9cfe1" opacity="1" stroke-width="2" stroke="#04051f"></path><path d="M656.57 912.81C665.93 912.35 672.14 884.54 670.44 850.72 668.75 816.89 659.79 789.85 650.45 790.32 641.09 790.79 634.88 818.59 636.58 852.41 638.27 886.24 647.23 913.28 656.57 912.81Z" fill="#4a8cc2" opacity="1" stroke-width="2" stroke="#04051f"></path><path d="M756.65 880.9C764.34 875.58 755.6 849.58 737.11 822.83 718.61 796.1 697.38 778.72 689.69 784.05 681.99 789.37 690.74 815.37 709.23 842.1 727.71 868.85 748.94 886.22 756.65 880.9Z" fill="#4a8cc2" opacity="1" stroke-width="2" stroke="#04051f"></path><path d="M760.17 782.58C784.9 780.1 804.39 772.52 803.71 765.63 803.02 758.74 782.41 755.16 757.69 757.62 732.95 760.1 713.46 767.69 714.15 774.58 714.84 781.46 735.45 785.05 760.17 782.58Z" fill="#4a8cc2" opacity="1" stroke-width="2" stroke="#04051f"></path><path d="M467.31 1012.43C467.33 1012.43 467.34 1012.43 467.35 1012.42 467.37 1012.42 467.38 1012.41 467.39 1012.4 467.4 1012.39 467.4 1012.37 467.41 1012.36 467.41 1012.35 467.41 1012.33 467.41 1012.32 464.39 993.73 460.58 967.27 458.55 941.27 458.54 941.25 458.55 941.23 458.56 941.21 463.05 933.33 473.59 922.47 498.16 919.17 498.58 919.11 498.98 918.97 499.35 918.76 499.72 918.55 500.04 918.26 500.3 917.93 500.55 917.59 500.74 917.2 500.85 916.79 500.96 916.38 500.99 915.95 500.93 915.53 500.87 915.11 500.74 914.7 500.52 914.34 500.31 913.97 500.02 913.65 499.69 913.39 499.35 913.13 498.96 912.94 498.55 912.84 498.14 912.73 497.71 912.7 497.29 912.76 476.68 915.52 464.83 923.23 458 930.85 457.99 930.86 457.97 930.87 457.95 930.88 457.93 930.88 457.91 930.88 457.9 930.87 457.88 930.87 457.86 930.85 457.85 930.84 457.84 930.82 457.83 930.8 457.83 930.78 456.88 914.68 456.77 899.18 458.12 886.34 463.68 833.4 479.16 785.48 479.32 785 479.61 784.11 479.72 783.18 479.65 782.24 479.58 781.31 479.32 780.4 478.9 779.57 478.47 778.74 477.89 778 477.18 777.4 476.47 776.79 475.65 776.33 474.76 776.04 473.87 775.75 472.93 775.64 472 775.71 471.07 775.78 470.16 776.04 469.33 776.46 468.49 776.88 467.75 777.47 467.14 778.17 466.55 778.88 466.08 779.7 465.79 780.59 465.14 782.59 449.68 830.37 443.97 884.86 443.37 890.54 443.04 896.68 442.93 903.11 442.93 903.13 442.92 903.14 442.91 903.16 442.9 903.18 442.89 903.19 442.87 903.2 442.86 903.2 442.84 903.21 442.82 903.21 442.8 903.2 442.79 903.2 442.77 903.19 435.19 897.88 424.9 892.37 410.91 887.02 410.11 886.71 409.22 886.74 408.43 887.09 407.65 887.44 407.04 888.08 406.73 888.89 406.42 889.69 406.45 890.58 406.8 891.36 407.15 892.15 407.79 892.76 408.59 893.06 424.86 899.29 435.67 905.56 442.86 911.31 442.87 911.32 442.88 911.33 442.89 911.35 442.89 911.36 442.9 911.38 442.9 911.39 443.2 945.56 448.7 985.97 452.97 1012.35 452.97 1012.37 452.98 1012.39 453 1012.41 453.02 1012.42 453.04 1012.43 453.07 1012.43L467.31 1012.43Z" fill="#869179" opacity="1" stroke-width="2" stroke="#04051f"></path><path d="M488.77 917.5C488.79 917.52 488.8 917.53 488.81 917.55 488.82 917.57 488.82 917.59 488.81 917.61 488.5 919.02 483.96 940.99 507.03 953.03 528.45 964.22 560.96 956.83 579.5 919.78 594.49 889.84 603.01 856.31 603.57 854.1 603.57 854.09 603.57 854.07 603.57 854.06 603.56 854.04 603.56 854.03 603.55 854.02 603.54 854.01 603.53 854 603.52 853.99 603.51 853.98 603.49 853.98 603.48 853.98 600.24 853.73 531.28 848.58 508.08 858.71 492.93 865.31 472.99 880.33 476.99 899.5 479.55 911.79 487.96 917.02 488.77 917.5Z" fill="#b7e57f" opacity="1" stroke-width="2" stroke="#04051f"></path><path d="M338.41 853.85C347.12 853.85 354.19 831.59 354.19 804.12 354.19 776.66 347.12 754.39 338.41 754.39 329.69 754.39 322.62 776.66 322.62 804.12 322.62 831.59 329.69 853.85 338.41 853.85Z" fill="#4a8cc2" opacity="1" stroke-width="2" stroke="#04051f"></path><path d="M337.3 854.18C344.66 849.52 338.73 826.92 324.04 803.71 309.36 780.49 291.49 765.45 284.12 770.11 276.77 774.77 282.69 797.37 297.38 820.57 312.06 843.79 329.93 858.84 337.3 854.18Z" fill="#4a8cc2" opacity="1" stroke-width="2" stroke="#04051f"></path><path d="M336.54 855.04C340.27 847.16 323.17 831.24 298.36 819.48 273.54 807.7 250.39 804.54 246.66 812.42 242.92 820.29 260.01 836.22 284.83 847.98 309.65 859.76 332.8 862.91 336.54 855.04Z" fill="#4a8cc2" opacity="1" stroke-width="2" stroke="#04051f"></path><path d="M288.89 877.86C316.15 874.54 337.4 864.83 336.35 856.18 335.3 847.53 312.34 843.2 285.07 846.53 257.81 849.85 236.56 859.56 237.6 868.2 238.66 876.86 261.62 881.18 288.89 877.86Z" fill="#4a8cc2" opacity="1" stroke-width="2" stroke="#04051f"></path><path d="M308.28 900.94C329.55 883.55 342.31 863.99 336.8 857.24 331.29 850.49 309.57 859.12 288.31 876.5 267.04 893.88 254.27 913.44 259.78 920.19 265.3 926.93 287.01 918.32 308.28 900.94Z" fill="#4a8cc2" opacity="1" stroke-width="2" stroke="#04051f"></path><path d="M337 910.07C345.68 884.01 346.02 860.66 337.76 857.9 329.48 855.15 315.75 874.04 307.06 900.1 298.38 926.15 298.05 949.51 306.31 952.26 314.58 955.02 328.32 936.13 337 910.07Z" fill="#4a8cc2" opacity="1" stroke-width="2" stroke="#04051f"></path><path d="M362.78 954.53C371.24 952.43 372.76 929.12 366.16 902.45 359.58 875.78 347.37 855.85 338.91 857.95 330.45 860.04 328.93 883.35 335.53 910.02 342.11 936.69 354.32 956.62 362.78 954.53Z" fill="#4a8cc2" opacity="1" stroke-width="2" stroke="#04051f"></path><path d="M411.7 926.21C417.73 919.92 406.55 899.41 386.72 880.4 366.9 861.38 345.94 851.07 339.91 857.37 333.88 863.65 345.05 884.16 364.88 903.17 384.7 922.19 405.66 932.5 411.7 926.21Z" fill="#4a8cc2" opacity="1" stroke-width="2" stroke="#04051f"></path><path d="M437.92 876.15C439.66 867.6 419.24 856.25 392.32 850.78 365.4 845.31 342.17 847.8 340.45 856.34 338.71 864.88 359.13 876.24 386.04 881.71 412.96 887.17 436.18 884.68 437.92 876.15Z" fill="#4a8cc2" opacity="1" stroke-width="2" stroke="#04051f"></path><path d="M392.44 852.25C418.12 842.48 436.41 827.96 433.31 819.81 430.21 811.68 406.89 812.99 381.22 822.75 355.55 832.53 337.25 847.04 340.35 855.19 343.44 863.33 366.77 862.02 392.44 852.25Z" fill="#4a8cc2" opacity="1" stroke-width="2" stroke="#04051f"></path><path d="M382.11 823.93C398.59 801.96 406.28 779.9 399.32 774.68 392.34 769.45 373.33 783.03 356.86 805.01 340.39 826.98 332.68 849.04 339.66 854.27 346.62 859.5 365.63 845.91 382.11 823.93Z" fill="#4a8cc2" opacity="1" stroke-width="2" stroke="#04051f"></path><path d="M338.41 893.02C358.89 893.02 375.5 876.41 375.5 855.93 375.5 835.45 358.89 818.85 338.41 818.85 317.93 818.85 301.32 835.45 301.32 855.93 301.32 876.41 317.93 893.02 338.41 893.02Z" fill="#cfe1b9" opacity="1" stroke-width="2" stroke="#04051f"></path><path d="M295.91 876.55C295.9 876.54 295.9 876.53 295.89 876.52 295.89 876.51 295.89 876.49 295.89 876.48 295.89 876.47 295.89 876.45 295.9 876.44 295.91 876.43 295.91 876.42 295.92 876.41 312.66 862.73 344.54 839.89 376.2 836.6 402.07 833.91 424.08 849.66 430.97 867.09 437.87 884.51 427.65 923.84 400.01 932.57 355.54 946.61 298.11 879.17 295.91 876.55Z" fill="#b7e57f" opacity="1" stroke-width="2" stroke="#04051f"></path><path d="M664.57 945.72C664.59 945.7 664.59 945.67 664.59 945.65 664.59 945.63 664.58 945.61 664.56 945.59 663.91 944.91 657.68 938.03 657.5 925.97 657.27 911.37 665.27 899.29 682.97 896.29 722.3 889.63 776.83 949.32 779.15 951.88 779.16 951.89 779.17 951.91 779.17 951.92 779.17 951.93 779.18 951.95 779.17 951.96 779.17 951.98 779.17 951.99 779.16 952 779.15 952.01 779.14 952.02 779.13 952.03 777.71 953.01 760.3 964.96 736.47 979.33 708.5 996.21 684.44 1000.78 667.44 987.9 647.57 972.84 663.63 947.19 664.57 945.72Z" fill="#cfe1b9" opacity="1" stroke-width="2" stroke="#04051f"></path><path d="M675.24 791.51C682.85 791.05 687.85 771.22 686.41 747.2 684.97 723.19 677.62 704.1 670.01 704.55 662.38 705.01 657.38 724.85 658.82 748.86 660.26 772.88 667.61 791.97 675.24 791.51Z" fill="#b9cfe1" opacity="1" stroke-width="2" stroke="#04051f"></path><path d="M640.07 809.58C643.34 802.68 627.79 788.46 605.34 777.81 582.88 767.16 562.02 764.12 558.75 771.02 555.48 777.91 571.04 792.14 593.49 802.79 615.94 813.44 636.8 816.48 640.07 809.58Z" fill="#4a8cc2" opacity="1" stroke-width="2" stroke="#04051f"></path><path d="M704.79 901.85C713.79 899.27 713.83 871.84 704.88 840.58 695.93 809.33 681.38 786.08 672.38 788.66 663.38 791.23 663.34 818.66 672.3 849.91 681.24 881.18 695.8 904.42 704.79 901.85Z" fill="#b9cfe1" opacity="1" stroke-width="2" stroke="#04051f"></path><path d="M797.8 823.51C801.13 815.72 781.86 800.01 754.78 788.44 727.69 776.87 703.03 773.81 699.7 781.6 696.37 789.4 715.63 805.1 742.71 816.68 769.81 828.25 794.47 831.31 797.8 823.51Z" fill="#b9cfe1" opacity="1" stroke-width="2" stroke="#04051f"></path><path d="M745.62 750.45C760.55 730.6 767.72 710.78 761.62 706.19 755.53 701.6 738.48 713.98 723.53 733.84 708.6 753.7 701.43 773.52 707.53 778.1 713.63 782.69 730.68 770.31 745.62 750.45Z" fill="#b9cfe1" opacity="1" stroke-width="2" stroke="#04051f"></path><path d="M660.33 794.31C667.41 791.43 665.79 771.03 656.73 748.74 647.67 726.45 634.59 710.72 627.52 713.59 620.45 716.46 622.06 736.86 631.13 759.15 640.18 781.44 653.27 797.18 660.33 794.31Z" fill="#4a8cc2" opacity="1" stroke-width="2" stroke="#04051f"></path><path d="M472.45 743.14C480.43 743.14 486.9 722.76 486.9 697.61 486.9 672.47 480.43 652.09 472.45 652.09 464.48 652.09 458.01 672.47 458.01 697.61 458.01 722.76 464.48 743.14 472.45 743.14Z" fill="#b9cfe1" opacity="1" stroke-width="2" stroke="#04051f"></path><path d="M507.71 705.48C515.47 681.57 515.61 660.18 508.03 657.71 500.44 655.25 488 672.65 480.23 696.56 472.46 720.47 472.31 741.86 479.9 744.32 487.49 746.79 499.94 729.4 507.71 705.48Z" fill="#e5eff7" opacity="1" stroke-width="2" stroke="#04051f"></path><path d="M537.27 737.98C557.61 723.19 570.3 705.97 565.6 699.52 560.91 693.07 540.62 699.82 520.28 714.62 499.94 729.4 487.26 746.62 491.95 753.08 496.64 759.52 516.93 752.77 537.27 737.98Z" fill="#e5eff7" opacity="1" stroke-width="2" stroke="#04051f"></path><path d="M543.16 759.41C567.08 751.62 584.46 739.15 581.98 731.57 579.51 723.98 558.12 724.14 534.2 731.94 510.29 739.73 492.91 752.21 495.38 759.79 497.86 767.38 519.25 767.21 543.16 759.41Z" fill="#b9cfe1" opacity="1" stroke-width="2" stroke="#04051f"></path><path d="M542.09 781.65C567.24 781.65 587.63 775.19 587.63 767.2 587.63 759.22 567.24 752.76 542.09 752.76 516.95 752.76 496.56 759.22 496.56 767.2 496.56 775.19 516.95 781.65 542.09 781.65Z" fill="#e5eff7" opacity="1" stroke-width="2" stroke="#04051f"></path><path d="M565.73 834.85C570.42 828.39 557.7 811.18 537.33 796.43 516.96 781.66 496.65 774.94 491.97 781.39 487.29 787.86 500.01 805.06 520.37 819.82 540.74 834.59 561.05 841.31 565.73 834.85Z" fill="#e5eff7" opacity="1" stroke-width="2" stroke="#04051f"></path><path d="M540.25 860.35C546.71 855.65 539.93 835.37 525.13 815.04 510.32 794.72 493.09 782.04 486.65 786.74 480.2 791.44 486.97 811.72 501.78 832.05 516.58 852.37 533.8 865.04 540.25 860.35Z" fill="#b9cfe1" opacity="1" stroke-width="2" stroke="#04051f"></path><path d="M508.17 876.77C515.75 874.3 515.58 852.91 507.79 828.99 500 805.08 487.53 787.7 479.94 790.18 472.35 792.65 472.52 814.04 480.32 837.95 488.11 861.86 500.58 879.25 508.17 876.77Z" fill="#e5eff7" opacity="1" stroke-width="2" stroke="#04051f"></path><path d="M464.79 837.96C472.51 814.03 472.63 792.65 465.05 790.19 457.45 787.74 445.03 805.14 437.29 829.07 429.56 853 429.44 874.39 437.04 876.84 444.63 879.3 457.05 861.88 464.79 837.96Z" fill="#e5eff7" opacity="1" stroke-width="2" stroke="#04051f"></path><path d="M424.7 819.97C445.02 805.16 457.68 787.93 452.98 781.48 448.28 775.04 428 781.82 407.68 796.63 387.36 811.44 374.7 828.67 379.41 835.12 384.1 841.56 404.39 834.78 424.7 819.97Z" fill="#e5eff7" opacity="1" stroke-width="2" stroke="#04051f"></path><path d="M402.85 781.84C427.99 781.79 448.36 775.29 448.34 767.3 448.33 759.32 427.93 752.91 402.79 752.96 377.64 753.01 357.27 759.51 357.29 767.5 357.31 775.48 377.7 781.9 402.85 781.84Z" fill="#e5eff7" opacity="1" stroke-width="2" stroke="#04051f"></path><path d="M452.92 753.13C457.59 746.67 444.86 729.48 424.49 714.76 404.11 700.02 383.79 693.32 379.12 699.78 374.45 706.25 387.17 723.43 407.55 738.16 427.93 752.9 448.24 759.59 452.92 753.13Z" fill="#e5eff7" opacity="1" stroke-width="2" stroke="#04051f"></path><path d="M458.26 747.83C464.71 743.12 457.9 722.83 443.07 702.51 428.23 682.2 410.98 669.55 404.53 674.25 398.09 678.95 404.88 699.24 419.73 719.56 434.56 739.88 451.81 752.54 458.26 747.83Z" fill="#b9cfe1" opacity="1" stroke-width="2" stroke="#04051f"></path><path d="M464.95 744.34C472.52 741.86 472.32 720.47 464.49 696.58 456.65 672.69 444.16 655.33 436.57 657.82 428.99 660.3 429.19 681.69 437.03 705.58 444.87 729.48 457.36 746.83 464.95 744.34Z" fill="#e5eff7" opacity="1" stroke-width="2" stroke="#04051f"></path><path d="M582.02 802.75C584.48 795.16 567.08 782.72 543.16 774.98 519.23 767.22 497.85 767.09 495.39 774.69 492.93 782.27 510.33 794.71 534.25 802.45 558.17 810.21 579.56 810.34 582.02 802.75Z" fill="#b9cfe1" opacity="1" stroke-width="2" stroke="#04051f"></path><path d="M472.58 882.42C480.56 882.41 487.01 862.02 486.98 836.88 486.96 811.74 480.47 791.36 472.49 791.37 464.51 791.38 458.06 811.77 458.09 836.91 458.12 862.05 464.61 882.43 472.58 882.42Z" fill="#b9cfe1" opacity="1" stroke-width="2" stroke="#04051f"></path><path d="M443.32 832.13C458.07 811.76 464.78 791.46 458.32 786.78 451.85 782.1 434.66 794.82 419.92 815.19 405.17 835.56 398.46 855.86 404.91 860.54 411.38 865.21 428.57 852.5 443.32 832.13Z" fill="#b9cfe1" opacity="1" stroke-width="2" stroke="#04051f"></path><path d="M410.76 802.63C434.66 794.82 452.02 782.33 449.54 774.75 447.06 767.17 425.67 767.36 401.78 775.18 377.88 782.99 360.52 795.48 362.99 803.06 365.47 810.64 386.86 810.45 410.76 802.63Z" fill="#b9cfe1" opacity="1" stroke-width="2" stroke="#04051f"></path><path d="M449.51 759.85C451.96 752.27 434.54 739.85 410.61 732.14 386.68 724.42 365.29 724.32 362.84 731.91 360.4 739.5 377.82 751.92 401.75 759.63 425.67 767.35 447.06 767.45 449.51 759.85Z" fill="#b9cfe1" opacity="1" stroke-width="2" stroke="#04051f"></path><path d="M525.08 719.41C539.86 699.07 546.62 678.77 540.16 674.08 533.7 669.4 516.49 682.08 501.7 702.42 486.92 722.77 480.16 743.06 486.62 747.75 493.07 752.45 510.28 739.75 525.08 719.41Z" fill="#b9cfe1" opacity="1" stroke-width="2" stroke="#04051f"></path><path d="M295.85 876.48C345.01 856.65 401.85 866.61 429.99 898.7" stroke="#000000" stroke-width="2" stroke-linecap="round" stroke-linejoin="round" opacity="1" fill="none"></path><path d="M488.83 917.54C494.97 913.33 500.46 904.56 508.06 899.81 520.65 891.91 535.53 888.62 549.96 886.09 571.96 882.23 587.85 867.8 603.59 853.99" stroke="#000000" stroke-width="2" stroke-linecap="round" stroke-linejoin="round" opacity="1" fill="none"></path><path d="M510.11 942.45C524.27 950.62 550.96 941.73 556.83 925.96" stroke="#000000" stroke-width="2" stroke-linecap="round" stroke-linejoin="round" opacity="1" fill="none"></path><path d="M337.69 903.97C344.28 914.39 373.61 929.03 385.08 924.58" stroke="#000000" stroke-width="2" stroke-linecap="round" stroke-linejoin="round" opacity="1" fill="none"></path><path d="M442.8 676.58L453.74 719.67" stroke="#000000" stroke-width="2" stroke-linecap="round" stroke-linejoin="round" opacity="1" fill="none"></path><path d="M498.43 727.27L525.53 690.85" stroke="#000000" stroke-width="2" stroke-linecap="round" stroke-linejoin="round" opacity="1" fill="none"></path><path d="M517.24 748.05L565.42 736.1" stroke="#000000" stroke-width="2" stroke-linecap="round" stroke-linejoin="round" opacity="1" fill="none"></path><path d="M513.53 778.46L559.24 794.29" stroke="#000000" stroke-width="2" stroke-linecap="round" stroke-linejoin="round" opacity="1" fill="none"></path><path d="M503.95 802.56L525.53 837.51" stroke="#000000" stroke-width="2" stroke-linecap="round" stroke-linejoin="round" opacity="1" fill="none"></path><path d="M472.45 809.21L472.66 859.33" stroke="#000000" stroke-width="2" stroke-linecap="round" stroke-linejoin="round" opacity="1" fill="none"></path><path d="M448.26 797.52L420.91 837.51" stroke="#000000" stroke-width="2" stroke-linecap="round" stroke-linejoin="round" opacity="1" fill="none"></path><path d="M382.97 794.29L433.05 778.46" stroke="#000000" stroke-width="2" stroke-linecap="round" stroke-linejoin="round" opacity="1" fill="none"></path><path d="M382.97 736.1L424.25 748.5" stroke="#000000" stroke-width="2" stroke-linecap="round" stroke-linejoin="round" opacity="1" fill="none"></path><path d="M472.45 822.84C503.16 822.84 528.05 797.96 528.05 767.25 528.05 736.55 503.16 711.67 472.45 711.67 441.76 711.67 416.87 736.55 416.87 767.25 416.87 797.96 441.76 822.84 472.45 822.84Z" fill="#b3b3b3" opacity="1" stroke-width="2" stroke="#04051f"></path><path d="M472.66 806.01C465.03 806.01 457.56 803.75 451.21 799.5 444.86 795.27 439.91 789.23 436.99 782.17 434.06 775.13 433.3 767.36 434.79 759.86 436.28 752.38 439.96 745.5 445.36 740.1 450.75 734.7 457.64 731.02 465.13 729.53 472.61 728.04 480.38 728.81 487.44 731.73 494.49 734.65 500.52 739.6 504.77 745.95 509 752.3 511.27 759.76 511.27 767.4 511.25 777.64 507.19 787.45 499.95 794.69 492.71 801.92 482.9 806 472.66 806.01ZM472.66 743.43C467.91 743.43 463.29 744.83 459.34 747.47 455.4 750.1 452.33 753.85 450.51 758.22 448.7 762.6 448.22 767.43 449.15 772.08 450.07 776.73 452.35 780.99 455.71 784.35 459.06 787.7 463.34 789.99 467.98 790.91 472.63 791.84 477.45 791.36 481.83 789.55 486.22 787.73 489.95 784.66 492.59 780.71 495.22 776.78 496.63 772.14 496.63 767.4 496.62 761.04 494.09 754.96 489.6 750.46 485.11 745.97 479.02 743.44 472.66 743.43V743.43Z" fill="#cfe1b9" opacity="1" stroke-width="2" stroke="#04051f"></path><path d="M664.62 945.65C680.86 937.29 699.6 932.76 717.79 936.2 737.94 940 758.31 953.07 779.22 951.96" stroke="#000000" stroke-width="2" stroke-linecap="round" stroke-linejoin="round" opacity="1" fill="none"></path><path d="M639.83 745.88L657.49 783.75" stroke="#000000" stroke-width="2" stroke-linecap="round" stroke-linejoin="round" opacity="1" fill="none"></path><path d="M703.28 732.23L694.24 770.11" stroke="#000000" stroke-width="2" stroke-linecap="round" stroke-linejoin="round" opacity="1" fill="none"></path><path d="M701.09 798.69L723.16 834.27" stroke="#000000" stroke-width="2" stroke-linecap="round" stroke-linejoin="round" opacity="1" fill="none"></path><path d="M648.66 816.48L653.52 859.33" stroke="#000000" stroke-width="2" stroke-linecap="round" stroke-linejoin="round" opacity="1" fill="none"></path><path d="M585.69 823.54L618.42 811.71" stroke="#000000" stroke-width="2" stroke-linecap="round" stroke-linejoin="round" opacity="1" fill="none"></path><path d="M678.1 812.95C711.33 801.01 735.26 782.98 731.55 772.68 727.85 762.36 697.91 763.68 664.69 775.62 631.47 787.55 607.54 805.58 611.24 815.89 614.94 826.2 644.88 824.88 678.1 812.95Z" fill="#cfe1b9" opacity="1" stroke-width="2" stroke="#04051f"></path><path d="M674.08 803.63C696.77 795.48 713.71 784.78 711.9 779.73 710.09 774.7 690.22 777.22 667.52 785.37 644.82 793.52 627.89 804.22 629.7 809.26 631.51 814.31 651.38 811.79 674.08 803.63Z" fill="#b3b3b3" opacity="1" stroke-width="2" stroke="#04051f"></path></g><g><path d="M1178.6 1004.33L1150.49 971.48C1147.05 967.52 1142.61 964.54 1137.65 962.84 1132.68 961.15 1127.35 960.8 1122.2 961.82L1083.03 970.07C1078.38 971.13 1073.53 970.95 1068.98 969.54L1045.44 962.87C1040.44 961.45 1035.15 961.38 1030.12 962.68 1025.09 963.97 1020.49 966.59 1016.81 970.25L983.25 1003.28C982.47 1004.01 981.96 1004.96 981.72 1006 981.5 1007.03 981.59 1008.12 982 1009.1 982.4 1010.08 983.07 1010.92 983.96 1011.52 984.84 1012.1 985.88 1012.42 986.94 1012.41H1174.9C1175.85 1012.41 1176.77 1012.15 1177.55 1011.65 1178.34 1011.13 1178.98 1010.42 1179.36 1009.57 1179.75 1008.71 1179.88 1007.76 1179.75 1006.83 1179.61 1005.91 1179.21 1005.03 1178.6 1004.33V1004.33Z" fill="#cfe1b9" opacity="1" stroke-width="2" stroke="#04051f"></path><path d="M1047.72 978.67L1023.47 998.17" stroke="#000000" stroke-width="2" stroke-linecap="round" stroke-linejoin="round" opacity="1" fill="none"></path><path d="M1088.48 940.9V973.41C1088.47 974 1088.22 974.59 1087.79 975.01 1087.37 975.43 1086.8 975.67 1086.19 975.68H1068.63C1067.92 975.68 1067.75 974.81 1068.45 974.64L1073.19 973.05C1075.34 972.3 1077.2 970.9 1078.53 969.05 1079.85 967.19 1080.56 964.96 1080.56 962.69V941.08C1080.36 931.38 1088.26 931.2 1088.48 940.9Z" fill="#dd8387" opacity="1" stroke-width="2" stroke="#04051f"></path><path d="M1195.63 928.61L1183.68 925.09C1174.97 922.61 1166.55 919.2 1158.57 914.9 1144.69 907.53 1130.64 899.45 1117.64 894.52 1109.73 891.54 1076 882.22 1073.01 880.12 1069.49 877.66 1065.81 876.78 1064.58 870.64 1063.88 867.47 1063.53 851.83 1062.65 846.57 1060.89 836.03 1057.03 831.82 1049.47 829.71 1044.73 828.48 1034.01 830.41 1032.43 835.68 1032.03 837.35 1031.2 838.89 1030.04 840.14 1028.86 841.4 1027.39 842.34 1025.76 842.87 1024.53 843.35 1023.29 843.78 1022.01 844.14L1019.71 849.64C1019.64 849.8 1019.61 849.97 1019.63 850.15 1019.64 850.33 1019.69 850.5 1019.78 850.64 1019.87 850.8 1020 850.93 1020.14 851.02 1020.3 851.11 1020.47 851.18 1020.64 851.19 1044.99 853.15 1026.13 880.61 1029.28 901.03 1032.43 920 1041.39 928.78 1049.82 934.75 1057.73 940.2 1073.01 943.19 1106.22 939.15 1114.82 938.1 1141.87 933.36 1157.17 935.12L1185.27 938.1C1185.75 938.19 1186.26 938.09 1186.66 937.83 1187.07 937.56 1187.37 937.15 1187.47 936.67 1187.59 936.2 1187.51 935.7 1187.27 935.29 1187.02 934.86 1186.62 934.55 1186.15 934.41L1182.12 933.01C1181.74 932.89 1181.43 932.63 1181.24 932.3 1181.05 931.96 1180.99 931.56 1181.07 931.19 1181.16 930.81 1181.39 930.47 1181.72 930.25 1182.04 930.05 1182.43 929.96 1182.82 930.02L1195.3 931.07C1196.86 931.59 1197.56 929.13 1195.63 928.61Z" fill="#b9cfe1" opacity="1" stroke-width="2" stroke="#04051f"></path><path d="M1045.43 893.66C1045.96 888.38 1052.46 879.43 1070.2 879.07 1102.63 878.73 1162.16 915.9 1166.72 918.77 1166.74 918.78 1166.76 918.81 1166.77 918.84 1166.78 918.85 1166.78 918.87 1166.78 918.9 1166.78 918.93 1166.77 918.95 1166.74 918.98 1166.73 918.99 1166.7 919 1166.68 919 1118.54 928 1039.97 942.38 1045.43 893.66Z" fill="#b6b6b6" opacity="1" stroke-width="2" stroke="#04051f"></path><path d="M1001.86 845.16C1007.48 842.7 1019.6 843.58 1023.65 843.23H1023.65C1024.35 843.2 1025.03 843.08 1025.71 842.89 1025.73 842.87 1025.77 842.89 1025.8 842.9 1028.19 843.96 1030.34 845.51 1032.08 847.45V847.45C1033.63 849.02 1034.87 850.86 1035.72 852.91 1035.73 852.92 1035.73 852.95 1035.73 852.96 1035.73 852.99 1035.72 853 1035.7 853.02 1035.69 853.04 1035.68 853.05 1035.66 853.06 1035.64 853.06 1035.62 853.08 1035.6 853.08 1031.42 853.18 998.85 851.29 996.23 851.15 996.21 851.15 996.19 851.14 996.17 851.12 996.16 851.12 996.14 851.11 996.13 851.08 996.12 851.07 996.12 851.06 996.12 851.03 996.1 851.01 996.1 850.99 996.12 850.97 996.63 849.66 997.41 848.49 998.39 847.48 999.39 846.48 1000.57 845.69 1001.86 845.16Z" fill="#dd8387" opacity="1" stroke-width="2" stroke="#04051f"></path><path d="M1045.43 843.05C1043.88 843.05 1042.62 841.8 1042.62 840.25 1042.62 838.7 1043.88 837.43 1045.43 837.43 1046.98 837.43 1048.25 838.7 1048.25 840.25 1048.25 841.8 1046.98 843.05 1045.43 843.05Z" fill="#000000" opacity="1" stroke-width="2" stroke="#04051f"></path><path d="M1128.71 906.85L1088.48 892.79" stroke="#000000" stroke-width="2" stroke-linecap="round" stroke-linejoin="round" opacity="1" fill="none"></path></g></svg>