<svg xmlns="http://www.w3.org/2000/svg" height="1200" width="1600" version="1.1" xmlns:xlink="http://www.w3.org/1999/xlink" xmlns:svgjs="http://svgjs.com/svgjs"><rect fill="#ffffff" width="1600" height="1200"></rect><g><path d="M101.18 592.19L278.5 538.44" stroke="#000000" stroke-width="1.5" stroke-linecap="round" stroke-linejoin="round" opacity="1" fill="none"></path><path d="M216.91 653.78L163.17 476.46" stroke="#000000" stroke-width="1.5" stroke-linecap="round" stroke-linejoin="round" opacity="1" fill="none"></path><path d="M271.83 609.06L108.24 521.57" stroke="#000000" stroke-width="1.5" stroke-linecap="round" stroke-linejoin="round" opacity="1" fill="none"></path><path d="M233.78 483.52L146.3 647.11" stroke="#000000" stroke-width="1.5" stroke-linecap="round" stroke-linejoin="round" opacity="1" fill="none"></path><path d="M1357.72 720.08L1486.01 681.24" stroke="#000000" stroke-width="1.5" stroke-linecap="round" stroke-linejoin="round" opacity="1" fill="none"></path><path d="M1441.28 764.8L1402.45 636.52" stroke="#000000" stroke-width="1.5" stroke-linecap="round" stroke-linejoin="round" opacity="1" fill="none"></path><path d="M1480.91 732.24L1362.82 669.08" stroke="#000000" stroke-width="1.5" stroke-linecap="round" stroke-linejoin="round" opacity="1" fill="none"></path><path d="M1453.45 641.62L1390.28 759.7" stroke="#000000" stroke-width="1.5" stroke-linecap="round" stroke-linejoin="round" opacity="1" fill="none"></path></g><g><path d="M905.36 982.21C893.46 983.7 882.31 974.77 880.82 962.13 880.08 955.44 882.31 948.75 887.52 943.54 909.08 923.47 925.44 898.19 935.85 870.67 938.82 863.24 941.05 855.06 940.31 846.88 938.08 830.52 915.77 820.11 895.7 818.62 882.31 818.62 868.93 819.37 856.29 821.6 840.67 823.83 824.31 824.57 808.7 824.57 793.83 824.57 778.96 820.11 766.31 811.93 724.67 783.68 732.85 722.7 761.85 679.58 807.21 611.91 874.13 564.32 939.57 518.22 1017.64 463.2 1090.51 411.15 1123.97 330.84 1132.15 311.51 1134.38 295.9 1132.15 283.26 1126.94 260.21 1103.15 245.33 1081.59 240.13 1054.82 234.18 1025.08 238.64 996.82 244.59 791.6 285.49 598.27 373.23 431.78 499.63 422.12 507.07 407.99 505.58 400.55 495.17 393.12 485.51 394.6 471.38 405.01 463.94 576.7 333.07 775.98 243.1 987.9 199.98 1019.13 194.03 1055.56 188.08 1091.25 195.51 1134.38 205.18 1167.1 235.67 1175.28 272.85 1179.74 294.41 1176.76 318.95 1164.87 347.2 1126.2 440.15 1044.41 498.15 964.85 553.91 903.13 597.78 839.18 643.14 798.29 703.37 783.42 725.68 773.01 762.11 790.85 774.01 796.8 777.73 804.24 779.22 810.93 779.22 824.31 779.22 837.7 778.47 851.08 776.98 866.7 774.75 882.31 774.01 897.93 774.01 936.59 776.24 978.97 799.29 984.92 840.19 986.41 855.8 984.18 871.42 978.23 886.29 965.59 920.49 945.51 950.98 918.75 976.26 915.03 979.24 910.57 981.47 905.36 982.21Z" fill="#cfe1b9" opacity="1" stroke-width="1.5" stroke="#000000"></path></g><g><path d="M1021.28 660.84L1014.4 637.54C1009.72 621.49 992.9 612.36 976.91 617.21 960.86 621.89 951.73 638.71 956.58 654.7L963.46 678.01" stroke="#000000" stroke-width="1.5" stroke-linecap="round" stroke-linejoin="round" opacity="1" fill="none"></path><path d="M1108.31 829.12L1085.51 849.53C1084.95 850.06 1083.46 850.51 1083.43 849.8L1055.49 650.11C1055.35 649.07 1057.86 654.97 1058.33 655.91L1139.26 831.44C1139.63 832.05 1138.95 832.79 1138.24 832.83L1108.97 828.92C1108.75 828.8 1108.42 828.9 1108.31 829.12Z" fill="#505050" opacity="1" stroke-width="1.5" stroke="#000000"></path><path d="M1055.44 649.95L1084.52 849.83 965.41 885.22 936.17 685.38 1055.44 649.95Z" fill="#cfe1b9" opacity="1" stroke-width="1.5" stroke="#000000"></path><path d="M975.61 785.79C967.8 790.32 962.22 798.67 960.55 808 959.92 811.25 964.79 812.48 965.26 809.27 966.74 801.08 971.5 794.24 978.38 790.17 979.43 789.49 979.8 787.76 979.07 786.54 978.18 785.37 976.66 785.11 975.61 785.79Z" fill="#505050" opacity="1" stroke-width="1.5" stroke="#000000"></path><path d="M1017.65 821.12C1028.63 832.38 1047.76 834.33 1060.71 825.36 1065.32 822.16 1060.78 814.89 1056.17 818.09 1046.33 824.85 1032.08 823.59 1023.66 814.8 1022.07 813.12 1019.06 813.31 1017.6 815.02 1015.8 816.82 1016.06 819.45 1017.65 821.12Z" fill="#505050" opacity="1" stroke-width="1.5" stroke="#000000"></path><path d="M1062.68 735.63C1055.8 724.21 1042.34 717.84 1029.12 718.79 1026.83 718.94 1025.29 721.57 1025.56 723.65 1025.93 726.06 1028.13 727.37 1030.42 727.22 1040.59 726.3 1050.52 731.75 1055.78 740.78 1057.09 742.72 1060.19 742.86 1061.76 741.49 1063.82 739.96 1063.78 737.45 1062.68 735.63Z" fill="#505050" opacity="1" stroke-width="1.5" stroke="#000000"></path><path d="M995.46 714.05C995.18 714.31 994.73 714.63 994.5 715.06 994.95 714.74 994.22 715.32 994.06 715.37 993.33 715.95 992.72 716.32 991.95 716.73 991.95 716.73 990.68 717.3 991.34 717.1 991.01 717.2 990.68 717.3 990.23 717.61 989.41 717.86 988.58 718.11 987.76 718.36 987.26 718.51 986.93 718.61 986.39 718.6 986.88 718.45 986.23 718.65 985.85 718.58 984.97 718.67 984.1 718.75 983.34 718.62 982.08 718.64 980.73 718.33 978.94 717.79 978.35 717.61 978.94 717.79 978.51 717.56 978.13 717.5 977.87 717.22 977.49 717.15 976.68 716.86 975.98 716.35 975.12 715.89 975.55 716.12 974.91 715.77 974.7 715.66 974.43 715.38 974.17 715.1 973.79 715.03 973.09 714.52 972.51 713.8 971.93 713.07 971.4 712.51 971.93 713.07 971.67 712.79 971.4 712.51 971.3 712.18 971.04 711.9 970.67 711.29 970.09 710.57 969.84 709.75 969.79 709.58 969.38 708.81 969.74 709.42 969.59 708.92 969.49 708.59 969.18 708.15 968.93 707.32 968.68 706.5 968.43 705.67 967.94 703.48 965.2 702.15 963.05 702.8 960.75 703.5 959.65 705.81 960.18 708.17 962.02 716.62 968.64 723.61 976.81 726.18 985.4 728.98 995.18 726.2 1001.4 719.99 1003.08 718.4 1002.89 715.4 1001.18 713.93 999.71 712.04 997.08 712.29 995.46 714.05Z" fill="#505050" opacity="1" stroke-width="1.5" stroke="#000000"></path><path d="M1034.82 701.93C1035.02 700.79 1035.26 699.82 1035.46 698.68L1035.88 697.11 1036.47 695.49C1036.58 695.28 1037.22 693.82 1037.45 693.39 1037.86 692.37 1039.88 688.33 1042.62 686.07 1045.69 683.15 1046.6 681.98 1046.83 681.55 1048.57 679.58 1049.76 678.14 1048.23 676.08 1046.97 674.3 1044.16 673.35 1042.27 674.83 1033.98 680.76 1028.12 689.92 1026.48 699.96 1026.09 702.24 1027.22 704.78 1029.66 705.12 1031.78 705.56 1034.43 704.21 1034.82 701.93Z" fill="#505050" opacity="1" stroke-width="1.5" stroke="#000000"></path><path d="M1060.81 774.01C1060.82 773.46 1060.76 773.84 1060.81 774.01 1060.91 774.34 1060.8 774.55 1060.73 774.93 1060.67 775.31 1060.7 776.02 1060.47 776.45 1060.44 777.54 1060.03 778.57 1059.79 779.54 1059.72 779.92 1059.38 780.56 1059.36 781.11 1059.13 781.54 1059.23 781.87 1059.25 781.32 1059.13 781.54 1059.18 781.7 1059.07 781.92 1058.66 782.94 1058.08 784.02 1057.67 785.04 1057.21 785.9 1056.64 786.98 1056.01 787.89 1055.9 788.1 1055.62 788.37 1055.67 788.53 1055.27 789.01 1056.23 788 1055.5 788.58 1055.11 789.06 1054.88 789.49 1054.43 789.81 1053.14 791.46 1051.51 793.21 1049.94 794.59 1048.26 796.18 1048.67 799.3 1050.37 800.76 1052.46 802.29 1054.65 801.8 1056.54 800.33 1064.25 793.67 1068.78 783.66 1069.49 773.54 1069.72 771.31 1067.15 769.38 1065.02 769.49 1062.23 769.79 1060.98 771.61 1060.81 774.01Z" fill="#505050" opacity="1" stroke-width="1.5" stroke="#000000"></path><path d="M1035.48 864.52C1035.83 863.87 1041.67 855.8 1043.05 855.02 1043.5 854.71 1044.06 854.18 1044.5 853.86 1046.28 852.6 1047.28 849.96 1045.75 847.9 1044.49 846.12 1041.69 845.17 1039.79 846.65 1032.73 851.85 1027.4 859.23 1024.93 867.72L1035.48 864.52Z" fill="#505050" opacity="1" stroke-width="1.5" stroke="#000000"></path><path d="M995.36 876.5C994.9 873.22 995.27 869.68 996.35 866.11 997.92 860.6 1001.56 855.35 1006.38 852.27 1008.33 850.96 1008.95 848.25 1007.64 846.31 1006.33 844.36 1003.62 843.74 1001.67 845.05 990.73 852.33 984.85 866.18 986.95 879.05L995.36 876.5Z" fill="#505050" opacity="1" stroke-width="1.5" stroke="#000000"></path><path d="M982.77 818.91C980.44 818.36 978.21 819.93 977.61 822.1 977.21 822.58 977.26 822.74 977.08 823.34 976.9 823.93 976.56 824.58 976.21 825.22 975.69 826.46 974.95 827.58 974.21 828.71 974.1 828.92 972.68 830.79 972.12 831.32 971.17 832.33 966.87 835.98 966.26 836.34 965.21 837.02 963.99 837.75 962.72 838.32 962.72 838.32 958.81 839.68 958.64 839.73L959.94 848.16C971.96 845.06 981.86 836.12 985.57 824.01 986.55 821.91 984.93 819.52 982.77 818.91Z" fill="#505050" opacity="1" stroke-width="1.5" stroke="#000000"></path><path d="M963.26 745.05C957.1 743.14 950.72 742.91 944.64 744.22L945.93 752.65C946.26 752.55 948.79 751.96 949.33 751.98 953.87 751.5 957.07 751.97 961.4 753.18 963.56 753.79 966.12 752.11 966.56 750 966.78 747.77 965.47 745.82 963.26 745.05Z" fill="#505050" opacity="1" stroke-width="1.5" stroke="#000000"></path><path d="M990.85 669.16L977.82 673.11C977.82 673.11 978.42 673.29 978.63 673.41 978.63 673.41 985.43 676.21 986.29 676.67 986.72 676.9 988.11 677.92 988.49 677.98 990.14 679.28 991.84 680.75 993.38 682.26 993.7 682.71 994.13 682.94 994.44 683.38 994.66 683.5 994.76 683.83 994.97 683.94 995.6 684.83 996.23 685.72 996.91 686.77 998.06 688.77 1000.98 689.5 1002.87 688.03 1004.82 686.72 1005.49 684.17 1004.13 682.07 1000.94 676.91 996.33 672.37 990.85 669.16Z" fill="#505050" opacity="1" stroke-width="1.5" stroke="#000000"></path><path d="M1018.89 799.68C1036.19 794.43 1045.97 776.15 1040.73 758.85 1035.48 741.55 1017.2 731.77 999.9 737.01 982.6 742.25 972.82 760.54 978.06 777.84 983.3 795.14 1001.59 804.92 1018.89 799.68Z" stroke="#000000" stroke-width="1.5" stroke-linecap="round" stroke-linejoin="round" opacity="1" fill="none"></path><path d="M994.22 778.89C994.55 778.79 993.93 779.7 993.66 779.42 993.4 779.14 993.46 778.76 993.53 778.38 995.63 773.42 998.53 768.76 1002.02 764.82 1003.37 763.33 1004.94 761.95 1006.91 761.35 1008.89 760.75 1011.27 761.47 1012.04 763.4 1013.02 765.45 1011.52 768.24 1012.83 770.18 1015.79 765.69 1020.52 762.27 1025.85 760.84 1026.34 760.69 1027.31 760.93 1026.92 761.41" stroke="#000000" stroke-width="1.5" stroke-linecap="round" stroke-linejoin="round" opacity="1" fill="none"></path></g><g><path d="M832.12 563.95L924.55 584.12 948.3 573.4 961.57 592.29 1053.75 612.21C1057.84 612.98 1061.67 610.17 1062.69 605.57L1103.28 419.43C1104.31 414.83 1102.01 410.75 1097.92 409.73L876.29 361.47C872.21 360.7 868.38 363.51 867.35 368.11L826.76 554.25C826.24 559.1 828.54 563.18 832.12 563.95Z" fill="#b9cfe1" opacity="1" stroke-width="1.5" stroke="#000000"></path><path d="M852.29 439.6L951.36 461.31 968.98 380.87 1005.75 388.79 988.38 469.22 1087.71 490.92 1078.77 532.54 979.19 510.84 961.57 592.29 924.55 584.12 942.42 502.67 843.1 480.97 852.29 439.6Z" fill="#808c96" opacity="1" stroke-width="1.5" stroke="#000000"></path><path d="M909.48 322.4C919.95 306.83 941.4 302.74 956.72 313.47 961.32 316.79 964.89 320.36 967.19 324.96L991.45 366.83 1031.02 338.74C1035.37 335.68 1040.22 333.64 1045.32 332.87 1063.96 329.81 1081.33 342.32 1084.39 360.7 1087.45 379.34 1074.94 396.71 1056.56 399.77 1051.2 400.79 1046.09 400.28 1040.98 398.49L1005.75 390.83 987.11 386.75 968.47 382.66 933.23 375C928.12 374.49 923.02 372.45 918.68 369.64 903.1 359.43 899.02 338.23 909.48 322.4ZM1052.22 387.26C1063.71 385.22 1071.37 374.49 1069.33 363.26 1067.28 351.77 1056.56 344.11 1045.32 346.15 1042 346.66 1039.2 348.19 1036.64 349.72L998.34 377.04 1042.51 386.75C1045.83 387.51 1048.9 388.02 1052.22 387.26ZM928.12 360.19C930.93 362.24 934 363.26 937.06 363.51L981.23 373.21 957.74 332.62C956.21 329.81 954.17 327.51 951.36 325.72 941.66 319.34 928.89 321.64 922.25 331.34 916.12 340.79 918.68 353.81 928.12 360.19Z" fill="#808c96" opacity="1" stroke-width="1.5" stroke="#000000"></path></g></svg>