<svg xmlns="http://www.w3.org/2000/svg" height="1200" width="1600" version="1.1" xmlns:xlink="http://www.w3.org/1999/xlink" xmlns:svgjs="http://svgjs.com/svgjs"><rect fill="#f3f4fb" width="1600" height="1200"></rect><g><path d="M1191.24 484.36C1176.22 463.59 1159.33 444.08 1141.69 426.07 1048.65 330.11 930.19 267.56 793.8 278.32 683.19 287.06 562.49 329.36 469.9 390.42 404.95 433.32 355.18 496.25 351.82 576.81 349.05 641.23 374.09 705.06 414 755.73 463.4 818.28 537.46 865.96 610.55 895.86 647.84 911.1 688.12 921.87 728.41 925.75 849.4 937.41 973.09 901.61 1080.93 848.92 1175.62 802.74 1263.07 727.7 1246.32 611.34 1239.67 564.41 1218.67 522.25 1191.24 484.36Z" fill="#ffffff" opacity="1" stroke-width="3" stroke="none"></path></g><g><path d="M1239.81 691.32L1206.94 724.18 1239.81 757.05 1272.67 724.18 1239.81 691.32Z" fill="#cfe1b9" stroke-linejoin="round" opacity="1" stroke-width="3" stroke="none"></path></g><g><path d="M513.19 279.73C513.19 285.96 511.37 292.02 507.91 297.2L506.59 299.18 506.26 299.51 454.18 372.69 400.44 301.48V301.15L397.47 297.2C395.13 293.57 393.55 289.55 392.82 285.3 392.07 281.08 392.2 276.73 393.15 272.54 394.11 268.35 395.89 264.4 398.4 260.9 400.93 257.41 404.1 254.44 407.79 252.2 411.45 249.96 415.54 248.47 419.79 247.85 424.04 247.19 428.36 247.42 432.55 248.47 436.7 249.53 440.63 251.41 444.05 254.01 447.48 256.58 450.35 259.85 452.53 263.57 455.39 258.69 459.48 254.6 464.39 251.8 469.31 248.97 474.88 247.45 480.55 247.42 484.8 247.35 489.05 248.18 493.01 249.76 496.97 251.37 500.59 253.75 503.63 256.75 506.66 259.75 509.06 263.34 510.71 267.26 512.36 271.22 513.19 275.44 513.19 279.73V279.73Z" fill="#cfe1b9" opacity="1" stroke-width="3" stroke="none"></path></g><g><path d="M373.6 394.14C372.65 395.59 371.28 396.71 369.67 397.34 368.05 397.97 366.28 398.07 364.61 397.64 356.93 395.6 351.12 404.59 356.19 410.76 357.28 412.1 357.92 413.75 358.03 415.47 358.13 417.2 357.69 418.91 356.77 420.37V420.37C352.48 427.06 359.22 435.32 366.65 432.45 368.26 431.81 370.02 431.7 371.7 432.15 373.37 432.59 374.86 433.55 375.95 434.9V434.9C380.97 441.07 390.95 437.2 390.48 429.26 390.37 427.53 390.82 425.81 391.76 424.35 392.7 422.89 394.08 421.77 395.7 421.16V421.16C403.12 418.28 402.5 407.62 394.82 405.58 393.13 405.14 391.64 404.18 390.54 402.84 389.44 401.5 388.79 399.84 388.7 398.11V398.11C388.23 390.17 377.88 387.45 373.6 394.14Z" fill="#cfe1b9" opacity="1" stroke-width="3" stroke="none"></path></g><g><path d="M902.36 571.65H801.36V708.47H902.36V571.65Z" fill="#cfe1b9" stroke-linejoin="round" opacity="1" stroke-width="3" stroke="none"></path><path d="M838.25 571.65H801.36V708.47H838.25V571.65Z" fill="#c5dbab" opacity="1" stroke-width="3" stroke="none"></path><path d="M848.31 555.45C872.44 555.45 891.99 535.9 891.99 511.77 891.99 487.65 872.44 468.09 848.31 468.09 824.19 468.09 804.63 487.65 804.63 511.77 804.63 535.9 824.19 555.45 848.31 555.45Z" fill="#e3e9ee" opacity="1" stroke-width="3" stroke="none"></path><path d="M862.84 540.92C862.84 532.9 848.3 504 848.3 504 848.3 504 833.76 532.88 833.76 540.92 833.76 544.78 835.29 548.48 838.02 551.19 840.74 553.93 844.44 555.46 848.3 555.46 852.15 555.46 855.85 553.93 858.57 551.19 861.3 548.48 862.84 544.78 862.84 540.92V540.92Z" fill="#ffffff" stroke-linejoin="round" opacity="1" stroke-width="3" stroke="none"></path><path d="M783.83 640.05H682.83V708.47H783.83V640.05Z" fill="#cfe1b9" stroke-linejoin="round" opacity="1" stroke-width="3" stroke="none"></path><path d="M719.72 640.05H682.83V708.47H719.72V640.05Z" fill="#c5dbab" opacity="1" stroke-width="3" stroke="none"></path><path d="M733.33 623.44C757.45 623.44 777 603.89 777 579.77 777 555.64 757.45 536.09 733.33 536.09 709.2 536.09 689.65 555.64 689.65 579.77 689.65 603.89 709.2 623.44 733.33 623.44Z" fill="#e3e9ee" opacity="1" stroke-width="3" stroke="none"></path><path d="M747.87 608.9C747.87 600.88 733.33 571.98 733.33 571.98 733.33 571.98 718.79 600.87 718.79 608.9 718.79 612.76 720.32 616.46 723.05 619.19 725.77 621.91 729.47 623.44 733.33 623.44 737.19 623.44 740.89 621.91 743.6 619.19 746.33 616.46 747.87 612.76 747.87 608.9V608.9Z" fill="#ffffff" stroke-linejoin="round" opacity="1" stroke-width="3" stroke="none"></path></g><g><path d="M650.9 969.78C653.17 969.78 655.41 969.6 657.65 969.23 663.68 968.26 669.44 965.94 674.47 962.48 679.5 959 683.7 954.45 686.77 949.16L715.29 900.04C716.41 898.1 718.01 896.49 719.92 895.36 721.84 894.21 724.02 893.59 726.25 893.53L729.36 893.45C733.64 893.28 737.67 891.44 740.6 888.32 743.52 885.19 745.11 881.04 744.99 876.75 744.87 872.48 743.07 868.41 739.98 865.46 736.88 862.5 732.75 860.88 728.47 860.95L725.36 861.03C717.58 861.22 709.98 863.4 703.29 867.37 696.61 871.34 691.05 876.97 687.16 883.71L658.64 932.83C657.99 933.96 657.08 934.94 655.99 935.69 654.92 936.44 653.69 936.93 652.39 937.14 651.09 937.36 649.77 937.27 648.5 936.9 647.24 936.55 646.08 935.9 645.09 935.04 643.5 933.62 641.62 932.55 639.59 931.86 637.57 931.18 635.44 930.9 633.32 931.04 631.18 931.18 629.11 931.73 627.18 932.68 625.27 933.62 623.56 934.92 622.15 936.54 620.74 938.13 619.66 940 618.98 942.02 618.29 944.04 618.01 946.19 618.15 948.31 618.29 950.45 618.84 952.52 619.79 954.45 620.74 956.35 622.05 958.07 623.65 959.48 631.18 966.11 640.87 969.77 650.9 969.78V969.78Z" fill="#e5a2a4" opacity="1" stroke-width="3" stroke="none"></path><path d="M454.27 971.24C464.31 971.23 473.99 967.56 481.52 960.93 484.76 958.09 486.74 954.08 487.02 949.77 487.31 945.47 485.86 941.23 483.02 937.99 480.18 934.75 476.17 932.78 471.87 932.49 467.56 932.21 463.32 933.65 460.08 936.49 459.09 937.37 457.93 938.01 456.67 938.37 455.4 938.74 454.07 938.83 452.77 938.61 451.47 938.4 450.24 937.91 449.15 937.16 448.08 936.42 447.17 935.43 446.51 934.3L417.98 885.18C414.1 878.44 408.54 872.81 401.85 868.84 395.17 864.87 387.56 862.69 379.79 862.5L376.68 862.42C372.39 862.35 368.27 863.97 365.17 866.93 362.07 869.88 360.28 873.96 360.17 878.22 360.04 882.51 361.62 886.66 364.55 889.79 367.47 892.91 371.5 894.75 375.79 894.92L378.9 895C381.13 895.06 383.31 895.68 385.23 896.83 387.14 897.96 388.73 899.57 389.85 901.51L418.38 950.63C421.45 955.92 425.64 960.47 430.68 963.95 435.72 967.41 441.46 969.73 447.5 970.7 449.75 971.06 452.01 971.24 454.27 971.24V971.24Z" fill="#e5a2a4" opacity="1" stroke-width="3" stroke="none"></path><path d="M504.26 807.63C504.26 807.63 476.83 830.22 478.56 835.17 481.58 843.76 487 851.31 494.16 856.94 501.34 862.55 509.97 866 519.04 866.87 528.1 867.75 537.24 866.01 545.35 861.87 553.46 857.73 560.23 851.35 564.84 843.49 569.45 835.63 571.71 826.61 571.36 817.51 571.02 808.41 568.08 799.58 562.88 792.09 557.69 784.61 550.47 778.76 542.06 775.26 533.64 771.74 524.41 770.69 515.44 772.26 506.47 784.46 504.26 807.63 504.26 807.63Z" fill="#e5a2a4" opacity="1" stroke-width="3" stroke="none"></path><path d="M515.44 772.26C517.26 778.82 517.74 785.66 516.86 792.4 515.99 799.16 513.75 805.65 510.32 811.52 506.88 817.4 502.29 822.5 496.83 826.57 491.38 830.63 485.17 833.55 478.56 835.17 476.27 828.62 475.43 821.65 476.11 814.75 476.79 807.84 478.95 801.17 482.46 795.19 485.96 789.21 490.73 784.05 496.42 780.09 502.12 776.13 508.61 773.46 515.44 772.26V772.26ZM448.18 744.1C452.87 744.1 457.46 745.49 461.37 748.1 465.27 750.7 468.31 754.42 470.1 758.75 471.9 763.09 472.38 767.86 471.46 772.47 470.54 777.07 468.28 781.29 464.96 784.61 461.63 787.94 457.41 790.2 452.81 791.12 448.21 792.02 443.43 791.56 439.1 789.76 434.76 787.96 431.06 784.93 428.44 781.02 425.84 777.12 424.44 772.53 424.44 767.83 424.44 761.54 426.94 755.51 431.4 751.06 435.85 746.6 441.89 744.1 448.18 744.1V744.1Z" fill="#000000" opacity="1" stroke-width="3" stroke="none"></path><path d="M546.88 802.02C547.57 802.02 548.25 802.21 548.81 802.61 549.39 802.99 549.84 803.53 550.1 804.16 550.37 804.82 550.44 805.51 550.3 806.19 550.17 806.86 549.83 807.49 549.35 807.98 548.85 808.46 548.23 808.8 547.55 808.93 546.88 809.07 546.18 809 545.55 808.73 544.9 808.46 544.36 808.02 543.98 807.44 543.6 806.88 543.38 806.2 543.38 805.51 543.38 805.04 543.47 804.59 543.65 804.16 543.82 803.74 544.08 803.36 544.4 803.03 544.73 802.71 545.12 802.45 545.55 802.28 545.97 802.1 546.42 802.02 546.88 802.02V802.02ZM528.77 807.63C529.46 807.63 530.14 807.83 530.7 808.22 531.28 808.6 531.74 809.14 531.99 809.78 532.26 810.43 532.33 811.12 532.19 811.8 532.06 812.48 531.72 813.1 531.24 813.59 530.75 814.07 530.12 814.41 529.45 814.54 528.77 814.68 528.07 814.61 527.44 814.34 526.79 814.07 526.25 813.64 525.87 813.06 525.49 812.49 525.28 811.81 525.28 811.12 525.28 810.19 525.64 809.31 526.29 808.65 526.96 808 527.85 807.63 528.77 807.63Z" fill="#17171e" opacity="1" stroke-width="3" stroke="none"></path><path d="M529.93 837.46C529.93 837.46 529.59 828.54 535.99 826.36 540.1 824.96 544.16 826.39 547.26 831.62L529.93 837.46Z" fill="#bf2b2f" stroke-linejoin="round" opacity="1" stroke-width="3" stroke="none"></path><path d="M623.64 959.46L619.28 955.65 608.37 946.09C608.37 946.08 608.37 946.08 608.37 946.08 608.35 946.08 608.35 946.08 608.35 946.08 608.35 946.09 608.34 946.09 608.34 946.09 608.34 946.09 608.34 946.11 608.34 946.11L610.26 988.8H495.72L497.64 946.97C497.65 946.95 497.64 946.94 497.64 946.93 497.63 946.91 497.63 946.91 497.61 946.9 497.6 946.9 497.58 946.9 497.57 946.9 497.55 946.9 497.54 946.9 497.53 946.91L486.71 956.38 481.54 960.92H481.51L460.09 936.51V936.49L486.13 913.65C491.9 908.59 498.19 904.14 504.89 900.39 507.53 898.89 545.94 891.98 553.21 891.98 553.25 891.98 597.98 898 601.53 899.99 608.18 903.74 614.43 908.16 620.19 913.2L645.08 935.02V935.05L623.65 959.46 623.64 959.46Z" fill="#cfe1b9" stroke-linejoin="round" opacity="1" stroke-width="3" stroke="none"></path><path d="M553.11 946.09C551.7 946.09 550.33 945.67 549.15 944.89 547.96 944.1 547.06 942.98 546.52 941.68 545.97 940.38 545.83 938.94 546.11 937.55 546.38 936.17 547.06 934.9 548.06 933.91 549.07 932.9 550.34 932.22 551.72 931.96 553.11 931.67 554.54 931.81 555.84 932.35 557.15 932.9 558.26 933.81 559.05 934.98 559.82 936.15 560.25 937.54 560.25 938.95 560.25 940.85 559.5 942.66 558.16 944 556.81 945.34 555 946.09 553.11 946.09ZM553.11 964.28C554.52 964.28 555.91 964.71 557.08 965.49 558.26 966.28 559.16 967.38 559.71 968.7 560.25 970 560.39 971.44 560.11 972.81 559.84 974.19 559.16 975.47 558.16 976.47 557.17 977.47 555.89 978.15 554.51 978.42 553.12 978.7 551.68 978.56 550.38 978.03 549.08 977.47 547.96 976.57 547.17 975.4 546.4 974.21 545.97 972.84 545.97 971.42 545.97 969.53 546.72 967.72 548.06 966.38 549.41 965.03 551.22 964.28 553.11 964.28Z" fill="#101b57" opacity="1" stroke-width="3" stroke="none"></path><path d="M513.03 896.25L515.06 895.33C518.9 893.05 522.97 891.19 527.2 889.77L527.27 889.75V889.76C533.93 887.53 540.9 886.39 547.92 886.39H558C566.43 886.38 574.77 888.01 582.56 891.19L584.29 891.92 590.57 894.61C594.32 896.21 597.98 898 601.53 899.99 601.2 900.79 600.82 901.56 600.42 902.31 598.11 906.62 594.66 910.2 590.44 912.67 586.22 915.15 581.41 916.42 576.52 916.34 571.63 916.25 566.86 914.82 562.74 912.19 558.59 909.58 555.27 905.87 553.11 901.49 550.95 905.89 547.6 909.61 543.45 912.24 539.3 914.85 534.51 916.28 529.6 916.34 524.7 916.41 519.86 915.11 515.65 912.6 511.44 910.09 508 906.45 505.71 902.11 505.41 901.56 505.13 900.98 504.89 900.4 507.53 898.91 510.25 897.52 513.03 896.25Z" fill="#ffffff" stroke-linejoin="round" opacity="1" stroke-width="3" stroke="none"></path><path d="M578.77 988.8C598.12 980.67 608.06 947.1 608.34 946.12 608.34 946.12 608.34 946.12 608.34 946.13L610.26 988.8H578.77Z" fill="#b7e282" stroke-linejoin="round" opacity="1" stroke-width="3" stroke="none"></path></g><g><path d="M789.28 1032.82C793.03 1032.73 796.76 1031.91 800.18 1030.4 932.46 966.83 966.05 826.68 967.27 820.63 970.29 807.31 970.29 794.9 956.97 791.87 943.65 788.85 914.54 818.36 911.21 831.98 910.9 833.49 888.26 932.63 778.38 985.3 772.45 988.17 767.88 993.29 765.67 999.52 763.46 1005.76 763.79 1012.6 766.58 1018.59 768.67 1022.83 771.91 1026.4 775.93 1028.91 779.93 1031.43 784.56 1032.76 789.28 1032.82Z" fill="#e5a2a4" opacity="1" stroke-width="3" stroke="none"></path><path d="M1166.44 855.74C1166.44 889.67 1152.94 922.24 1128.93 946.25 1104.93 970.28 1072.36 983.75 1038.4 983.78L1037.49 786.73C1100.03 786.73 1121.85 770.14 1163.47 831.44 1163.62 831.68 1163.74 831.98 1163.78 832.25 1165.29 840 1166.17 847.84 1166.44 855.74V855.74Z" fill="#e5a2a4" opacity="1" stroke-width="3" stroke="none"></path><path d="M984.82 638.71C983.58 645.76 983.76 653.03 985.34 660.02 986.88 667.04 989.82 673.67 993.96 679.54 998.08 685.42 1003.35 690.44 1009.4 694.28 1015.48 698.13 1022.23 700.73 1029.32 701.97 1042.64 704.33 1056.35 701.64 1067.76 694.41 1068.06 694.41 1068.67 695.01 1068.97 694.71 1081.38 686.84 1095 675.34 1097.73 659.9L1088.95 654.75C1093.49 625.39 1075.02 614.19 1045.66 609.05 1037.79 607.83 1032.95 590.58 1025.69 592.4 1019.33 593.91 1012.97 598.45 1007.83 601.78V602.54C995.72 611.1 987.45 624.09 984.82 638.71V638.71Z" fill="#e5a2a4" opacity="1" stroke-width="3" stroke="none"></path><path d="M1115.59 869.06C1125.79 879.2 1133.9 891.28 1139.41 904.6 1144.89 917.89 1147.7 932.14 1147.67 946.55L1146.16 986.81 925.49 986.81 928.82 937.17 929.43 932.93C932.46 908.11 943.35 883.59 960.61 869.06 949.71 861.19 944.26 846.66 944.26 831.83L911.21 831.98C916.78 802.59 932.42 776.04 955.46 756.94 978.5 737.87 1007.46 727.4 1037.4 727.4 1067.31 727.37 1096.3 737.78 1119.37 756.85 1142.4 775.92 1158.11 802.44 1163.71 831.83H1131.33C1131.6 838.79 1130.33 845.75 1127.6 852.2 1124.88 858.62 1120.79 864.37 1115.59 869.06V869.06Z" fill="#cfe1b9" opacity="1" stroke-width="3" stroke="none"></path><path d="M1028.02 576.2C1031.59 577.32 1034.71 579.56 1036.92 582.56 1039.09 585.59 1040.28 589.25 1040.21 593V593.31C1042.85 593.34 1045.48 593.55 1048.08 593.91 1060.53 595.97 1071.88 602.24 1080.23 611.65 1088.62 621.06 1093.52 633.08 1094.09 645.67L1094.16 645.73C1098.57 645.46 1102.99 646.07 1107.14 647.58 1111.29 649.06 1115.1 651.39 1118.31 654.39 1121.55 657.42 1124.12 661.05 1125.88 665.1 1127.63 669.16 1128.57 673.52 1128.57 677.94 1128.6 682.33 1127.69 686.72 1125.97 690.77 1124.24 694.83 1121.7 698.49 1118.49 701.52 1115.28 704.58 1111.5 706.94 1107.35 708.45 1103.24 709.96 1098.82 710.63 1094.4 710.39 1088.98 710.09 1083.68 708.42 1079.08 705.51 1074.48 702.61 1070.7 698.58 1068.06 693.8 1080.17 686.23 1087.62 677.82 1090.64 662.68L1089.43 662.2C1088.8 661.96 1079.11 656.96 1078.51 656.66L1073.39 654.66C1043.73 649.52 1023.63 629.75 1024.84 600.39L1024.87 600C1024.93 599.36 1024.84 598.72 1024.57 598.15 1024.32 597.57 1023.93 597.09 1023.42 596.7 1022.9 596.33 1022.3 596.06 1021.69 596 1021.05 595.91 1020.42 595.97 1019.81 596.21 1015.58 597.79 1011.55 599.9 1007.86 602.54 1005.8 599.48 1004.74 595.88 1004.83 592.22 1004.95 588.52 1006.19 584.98 1008.43 582.08 1010.67 579.17 1013.76 577.02 1017.3 575.96 1020.81 574.9 1024.57 574.99 1028.05 576.2H1028.02Z" fill="#000000" opacity="1" stroke-width="3" stroke="none"></path><path d="M1121.03 803.38C1121.03 803.29 1121.06 803.19 1121.13 803.16 1121.19 803.1 1121.25 803.07 1121.34 803.07 1126.18 808.52 1145.55 840.91 1116.19 869.06V869.36C1136.59 889.86 1148.03 917.61 1147.97 946.55L1145.86 986.81C1141.92 987.11 1137.99 987.11 1134.35 987.11 1124.06 915.37 1100.45 869.97 1060.8 869.06 1095.91 869.06 1127.39 848.78 1121.03 803.38Z" fill="#b7e282" opacity="1" stroke-width="3" stroke="none"></path><path d="M1000.56 638.71C998.9 638.71 997.53 637.35 997.53 635.68 997.53 634.02 998.9 632.66 1000.56 632.66 1002.23 632.66 1003.59 634.02 1003.59 635.68 1003.59 637.35 1002.23 638.71 1000.56 638.71Z" fill="#00003d" opacity="1" stroke-width="3" stroke="none"></path><path d="M1022.96 642.64C1021.3 642.64 1019.93 641.28 1019.93 639.62 1019.93 637.92 1021.3 636.59 1022.96 636.59 1024.63 636.59 1025.99 637.92 1025.99 639.62 1025.99 641.28 1024.63 642.64 1022.96 642.64Z" fill="#00003d" opacity="1" stroke-width="3" stroke="none"></path><path d="M1091.98 669.58C1089.13 669.58 1086.83 667.28 1086.83 664.44 1086.83 661.59 1089.13 659.29 1091.98 659.29 1094.82 659.29 1097.12 661.59 1097.12 664.44 1097.12 667.28 1094.82 669.58 1091.98 669.58Z" fill="#ffffff" opacity="1" stroke-width="3" stroke="none"></path><path d="M1024.57 766.87C1022.93 761.94 1025.56 756.64 1030.5 755.01 1035.4 753.34 1040.73 756 1042.36 760.94 1044 765.84 1041.33 771.17 1036.43 772.8 1031.5 774.44 1026.2 771.77 1024.57 766.87Z" fill="#ffffff" opacity="1" stroke-width="3" stroke="none"></path><path d="M1024.54 808.61C1022.9 803.71 1025.53 798.38 1030.47 796.75 1035.37 795.11 1040.7 797.78 1042.33 802.68 1043.97 807.58 1041.3 812.91 1036.4 814.55 1031.47 816.18 1026.17 813.52 1024.54 808.61Z" fill="#ffffff" opacity="1" stroke-width="3" stroke="none"></path><path d="M1022.96 660.2C1022.66 660.2 1013.58 666.26 1008.13 661.41" stroke="#bf2b2f" stroke-width="3" stroke-linecap="round" stroke-linejoin="round" opacity="1" fill="none"></path></g></svg>