<svg xmlns="http://www.w3.org/2000/svg" height="1200" width="1600" version="1.1" xmlns:xlink="http://www.w3.org/1999/xlink" xmlns:svgjs="http://svgjs.com/svgjs"><rect fill="#ffffff" width="1600" height="1200"></rect><g><path d="M308.54 746.59C308.54 746.59 309.85 749.84 309.69 752.14 309.53 754.43 308.54 758.02 308.54 760.13 308.65 762.59 308.92 765.05 309.36 767.47 309.69 769.59 308.38 775.81 308.38 777.43 308.38 779.06 308.87 783.47 309.02 785.42 309.19 787.38 308.2 791.95 308.38 794.57 308.54 797.18 309.69 800.92 309.36 804.68 309.04 808.45 308.06 810.73 308.72 813.34 309.38 815.95 309.2 820.52 309.2 820.52H277.21C277.21 820.52 276.06 817.58 277.04 813.01 278.03 808.45 277.21 806.15 277.21 801.58 277.21 797.02 278.68 793.09 278.35 788.2 278.18 785.61 277.78 783.78 277.61 782.08 277.44 780.41 277.52 778.73 277.87 777.09 278.5 774.31 278.88 771.46 279.02 768.6 279.17 765.5 277.23 764.68 278.03 760.44 278.84 756.19 278.86 747.05 278.86 747.05L308.54 746.59Z" fill="#8f583d" opacity="1" stroke-width="3" stroke="none"></path><path d="M302.83 783.57C304.46 783.57 306.43 782.71 308.66 781.02 308.54 779.27 308.46 778.09 308.46 777.43 308.54 776.31 308.67 775.18 308.87 774.06 309.21 771.71 309.64 768.78 309.45 767.46 309 765.04 308.73 762.59 308.62 760.13 308.71 758.67 308.9 757.21 309.21 755.78 309.46 754.57 309.64 753.37 309.76 752.14 309.93 749.86 308.63 746.59 308.62 746.56 308.61 746.55 308.6 746.53 308.59 746.52 308.58 746.52 308.56 746.51 308.55 746.51L278.84 746.99C278.82 746.99 278.81 747 278.79 747.01 278.78 747.03 278.77 747.05 278.77 747.07 278.77 747.16 278.76 756.24 277.95 760.44 277.57 762.13 277.72 763.89 278.37 765.5 278.78 766.49 278.97 767.55 278.93 768.62 278.77 771.47 278.4 774.3 277.8 777.09 277.48 778.71 277.41 780.38 277.58 782.03 277.58 782.04 277.59 782.06 277.61 782.08 277.62 782.09 277.63 782.1 277.65 782.1V782.1C279.22 782 280.77 781.69 282.26 781.18 282.84 780.97 283.44 780.83 284.05 780.75 284.11 780.75 284.16 780.75 284.2 780.77 284.46 780.88 284.71 781.02 284.94 781.17 286.08 781.91 287.32 782.48 288.62 782.88 289.06 783.05 289.52 783.14 289.99 783.14 290.51 783.11 291.02 782.97 291.47 782.72 291.93 782.47 292.33 782.12 292.63 781.7 293.01 781.29 293.34 780.94 293.69 780.94 294.43 781.07 295.15 781.31 295.82 781.64 297.89 782.59 300.09 783.23 302.34 783.55 302.5 783.57 302.66 783.58 302.83 783.57V783.57Z" fill="#783e21" opacity="1" stroke-width="3" stroke="none"></path><path d="M294.34 458.97C296.91 459.55 337.42 542.71 338.41 545.16 338.51 545.42 338.53 545.71 338.47 545.97 338.03 548 333.25 549.8 332.6 550.03 332.6 550.03 332.59 550.04 332.58 550.05 332.58 550.05 332.57 550.06 332.56 550.07 332.56 550.08 332.56 550.09 332.56 550.1 332.56 550.11 332.56 550.12 332.56 550.13 333 551.18 338.11 563.65 342.34 572.09 346.74 580.91 355.56 599.52 356.04 602.94 356.49 606.16 350.49 608.51 349.76 608.78 349.75 608.78 349.74 608.79 349.73 608.8 349.72 608.8 349.72 608.81 349.71 608.82 349.71 608.83 349.71 608.84 349.71 608.85 349.71 608.86 349.71 608.87 349.71 608.88 350.74 611.11 375.17 664.25 376.61 668.56 377.99 672.71 372.92 675.1 372.32 675.37 372.3 675.37 372.28 675.39 372.28 675.41 372.27 675.42 372.27 675.44 372.28 675.45 372.82 677.32 385.48 720.62 388.36 726.83 391.3 733.19 396.19 748.87 394.72 750.34 393.4 751.66 390.09 752.99 389.44 753.24 389.43 753.24 389.42 753.25 389.41 753.26 389.4 753.27 389.39 753.28 389.39 753.29 389.39 753.31 389.39 753.32 389.39 753.33 389.4 753.34 389.41 753.35 389.41 753.36 389.92 753.85 392.37 756.5 388.84 759.16 384.92 762.09 363.38 761.11 359.46 760.63 355.54 760.14 352.6 766.02 346.24 766.02 340.14 766.02 332.69 761.52 332.07 761.15 332.06 761.14 332.05 761.14 332.03 761.14 332.02 761.14 332.01 761.14 332 761.15 331.35 761.57 322.92 767.04 315.39 767.99 307.56 768.97 297.76 761.63 293.84 761.63 289.92 761.63 280.62 765.05 274.74 764.08 269.06 763.13 259.25 758.97 258.62 758.7 258.61 758.69 258.6 758.69 258.58 758.69 258.57 758.69 258.56 758.69 258.55 758.7 257.83 759.09 245.1 766.02 236.06 765.54 226.76 765.06 227.73 760.15 223.82 759.18 219.9 758.2 208.15 761.14 203.26 761.14 198.36 761.14 190.04 756.73 190.04 754.78 190.04 752.82 202.27 712.66 202.77 710.71 203.26 708.75 198.85 706.3 198.85 702.38 198.85 698.46 213.05 670.06 214.02 667.6 215.01 665.15 209.62 663.2 209.62 658.79 209.62 654.39 230.18 622.07 230.67 620.11 231.15 618.16 228.22 607.87 230.18 603.47 232.14 599.06 246.83 563.32 248.3 558.91 249.76 554.51 244.38 556.96 244.38 552.55 244.38 548.22 271.32 499.46 272.26 497.76 272.27 497.74 272.27 497.73 272.27 497.72 272.27 497.7 272.26 497.68 272.25 497.68 271.93 497.3 269.4 494.34 270.82 492.32 288.95 466.45 289.93 458 294.34 458.97Z" fill="#cfe1b9" opacity="1" stroke-width="3" stroke="none"></path><path d="M372.3 675.5C372.31 675.48 372.32 675.47 372.32 675.45 372.32 675.43 372.32 675.41 372.31 675.4 372.3 675.39 372.28 675.38 372.27 675.37 372.25 675.37 372.23 675.37 372.21 675.37 370.28 676.11 360.3 679.81 355.3 679.95 349.74 680.11 339.96 678.96 338.31 679.47 336.68 679.95 327.55 682.72 323.79 682.89 320.03 683.05 316.44 681.9 315.95 681.9 315.47 681.9 321.01 685.99 324.93 685.83 328.86 685.66 337.33 682.41 339.78 682.57 342.23 682.73 357.74 683.21 362.14 682.24 366.02 681.38 371.11 676.64 372.3 675.5Z" fill="#bbd0a2" opacity="1" stroke-width="3" stroke="none"></path><path d="M236.13 621.32C236.61 621.32 237.09 621.26 237.55 621.12 240.47 620.28 243.47 619.83 246.5 619.79 246.89 619.79 247.28 619.8 247.65 619.82 247.84 619.83 248.03 619.83 248.23 619.83 251.37 619.83 256.32 618.6 257.65 617.86 257.77 617.79 257.81 617.72 257.79 617.64 257.62 616.91 248.23 616.49 246.35 616.41 246.17 616.41 246 616.4 245.83 616.4 244.73 616.43 243.63 616.51 242.54 616.67 241.5 616.82 240.47 616.91 239.42 616.93 237.91 616.98 236.41 616.58 235.12 615.77 232.87 614.26 231.02 612.23 229.71 609.86 229.7 609.84 229.69 609.83 229.67 609.83 229.65 609.82 229.64 609.82 229.62 609.82 229.61 609.83 229.59 609.84 229.58 609.85 229.57 609.86 229.57 609.88 229.57 609.9V609.9C229.65 611.82 230.17 615.59 230.69 618.92 230.69 618.94 230.7 618.96 230.71 618.96 230.94 619.2 233.34 621.32 236.13 621.32Z" fill="#bbd0a2" opacity="1" stroke-width="3" stroke="none"></path><path d="M349.73 608.88C349.75 608.87 349.76 608.86 349.77 608.84 349.78 608.82 349.78 608.8 349.77 608.78 349.76 608.76 349.75 608.75 349.73 608.74 349.71 608.74 349.69 608.74 349.67 608.74 347.66 609.37 340.43 611.53 337.63 611.67 334.35 611.84 326.7 609.72 323.92 609.88 321.58 610.02 314.86 611.55 312.78 612.03 312.77 612.03 312.75 612.04 312.74 612.05 312.73 612.07 312.72 612.09 312.73 612.11 312.73 612.13 312.74 612.14 312.75 612.16 312.76 612.17 312.78 612.17 312.81 612.17H321.81C326.05 612.17 334.21 616.26 338.79 614.63 342.66 613.26 348.12 609.9 349.73 608.88Z" fill="#bbd0a2" opacity="1" stroke-width="3" stroke="none"></path><path d="M285.74 558.75C289.79 558.75 293.42 555.65 293.45 555.62 293.47 555.61 293.47 555.6 293.47 555.58 293.48 555.56 293.48 555.55 293.47 555.54 293.47 555.52 293.46 555.51 293.45 555.5 293.43 555.5 293.42 555.49 293.41 555.49 293.4 555.49 293.39 555.49 293.39 555.49 290.94 556.11 288.43 556.44 285.9 556.47 282.11 556.47 272.86 553.07 272.4 552.9 272.39 552.9 272.37 552.9 272.36 552.9 271.75 552.99 257.57 555.18 254.56 555.34 254.33 555.35 254.07 555.36 253.81 555.36 250.9 555.25 247.99 554.97 245.12 554.52H245.1C245.09 554.52 245.07 554.53 245.06 554.53 245.05 554.54 245.04 554.55 245.03 554.57 245.03 554.58 245.03 554.59 245.03 554.61 245.03 554.62 245.04 554.63 245.05 554.65 245.09 554.68 248.71 557.93 252.93 557.93 254.85 557.93 258.53 557.27 262.44 556.57 266.86 555.78 271.42 554.96 274.1 554.96 274.36 554.96 274.59 554.97 274.8 554.99 277.06 555.14 278.75 556.07 280.4 556.96 282.08 557.89 283.67 558.75 285.74 558.75Z" fill="#bbd0a2" opacity="1" stroke-width="3" stroke="none"></path><path d="M338.45 546.08C338.45 546.07 338.45 546.06 338.45 546.04 338.44 546.03 338.43 546.02 338.43 546.01 338.42 546 338.41 545.99 338.4 545.99 338.39 545.99 338.37 545.99 338.37 545.99 337.44 546.12 330.49 547.14 327.3 547.29 324.04 547.45 318.68 545.82 318.2 545.67 318.19 545.67 318.17 545.67 318.16 545.67 318.15 545.67 318.14 545.68 318.13 545.68 317.76 545.96 313.95 548.74 311.64 548.27 309.45 547.84 308.57 545.72 308.41 545.26 308.4 545.25 308.39 545.24 308.39 545.23 308.38 545.23 308.37 545.22 308.36 545.21 308.35 545.21 308.34 545.21 308.33 545.21 308.32 545.21 308.31 545.22 308.3 545.23 307.7 545.59 303.87 547.96 302.66 548.11 301.73 548.19 300.78 548.15 299.86 547.98 299.85 547.98 299.83 547.98 299.82 547.98 299.81 547.99 299.8 548 299.79 548 299.78 548.02 299.78 548.03 299.77 548.04 299.77 548.06 299.78 548.07 299.79 548.08 299.96 548.4 300.56 549.16 302.5 549.42 304.82 549.73 308.57 548.3 308.98 548.13 309 548.13 309.01 548.13 309.02 548.13 309.03 548.13 309.04 548.13 309.05 548.14 309.36 548.36 311.81 550.03 316.52 549.42 321.58 548.78 322.57 547.47 326.33 548.44 328.31 548.95 330.19 550.08 332.26 550.04 334.07 550 337.98 548.11 338.45 546.08Z" fill="#bbd0a2" opacity="1" stroke-width="3" stroke="none"></path><path d="M287.41 499.79C290.68 499.79 294.12 496.84 294.15 496.81 294.16 496.8 294.17 496.79 294.17 496.77 294.18 496.76 294.18 496.75 294.17 496.73 294.17 496.72 294.16 496.7 294.15 496.7 294.13 496.69 294.12 496.68 294.11 496.68 294.1 496.68 294.09 496.68 294.09 496.68 292.02 497.23 289.9 497.52 287.78 497.56 287.31 497.56 286.86 497.54 286.44 497.51 284.41 497.36 282.48 496.56 280.93 495.23 280.93 495.23 280.92 495.22 280.91 495.22 280.9 495.21 280.89 495.21 280.88 495.21H280.88C280.86 495.21 280.86 495.22 280.84 495.23 280.84 495.23 280.83 495.24 280.82 495.25 280.81 495.26 279.84 496.68 278.43 496.68 277.02 496.68 276.05 495.25 276.04 495.25 276.03 495.23 276.02 495.23 276.01 495.22 276 495.22 275.99 495.21 275.98 495.21 275.97 495.21 275.96 495.21 275.96 495.22 275.09 495.46 274.21 495.59 273.31 495.61 272.83 495.64 272.35 495.59 271.89 495.44 271.44 495.29 271.02 495.06 270.65 494.75 270.64 494.74 270.64 494.74 270.63 494.73 270.62 494.73 270.61 494.73 270.6 494.73 270.59 494.73 270.57 494.73 270.56 494.74 270.55 494.74 270.53 494.76 270.53 494.77 270.53 494.79 270.52 494.8 270.53 494.82 271.23 497.49 272.52 498.44 275.45 498.44 276.18 498.43 276.91 498.38 277.63 498.3 278.16 498.24 278.69 498.21 279.22 498.2 280.71 498.22 282.18 498.49 283.57 499 284.65 499.38 285.77 499.64 286.91 499.77 287.07 499.79 287.24 499.79 287.41 499.79Z" fill="#bbd0a2" opacity="1" stroke-width="3" stroke="none"></path><path d="M256.66 670.68C259.93 670.74 263.14 669.77 265.82 667.89 265.84 667.87 265.86 667.85 265.87 667.81 265.88 667.79 265.88 667.75 265.86 667.72 265.86 667.7 265.84 667.67 265.82 667.66 265.8 667.64 265.77 667.63 265.74 667.63H265.72C262.9 668.04 260.06 668.25 257.21 668.27 256.76 668.27 256.31 668.26 255.86 668.25 254.43 668.23 253.04 667.85 251.79 667.14 250.55 666.43 249.51 665.44 248.75 664.22 248.73 664.2 248.71 664.19 248.69 664.17 248.67 664.17 248.65 664.17 248.64 664.17 248.09 664.29 242.51 665.5 240.33 665.96 240.14 666.01 239.94 666.03 239.75 666.03 238.13 666.03 237.32 664.43 237.17 664.11 237.17 664.09 237.15 664.07 237.13 664.06 237.11 664.05 237.09 664.03 237.07 664.03 237.05 664.03 237.04 664.03 237.03 664.03 236.37 664.26 231.53 665.99 229.5 665.99 229.37 665.99 229.24 665.99 229.1 665.97 227.43 665.66 225.47 664.07 225.25 663.89 225.23 663.88 225.21 663.87 225.18 663.86 225.17 663.86 225.15 663.86 225.14 663.86 224.56 664.07 220.57 665.48 217.03 665.48 216.86 665.48 216.69 665.48 216.52 665.48 213.74 665.36 212.46 664.17 211.94 663.47L211.94 663.47 211.82 663.27 211.81 663.26C211.77 663.15 211.58 663.22 211.67 663.33L211.68 663.35C211.72 663.4 211.76 663.48 211.82 663.55V663.55C212.6 664.87 213.72 665.97 215.06 666.71 216.41 667.45 217.93 667.81 219.46 667.75 220.55 667.73 221.64 667.62 222.72 667.43 223.21 667.34 223.7 667.28 224.2 667.25 225.41 667.25 226.42 667.64 228.09 668.27 229.34 668.74 230.88 669.33 233.16 670.02 234.24 670.36 235.36 670.55 236.5 670.55 238.04 670.51 239.55 670.18 240.97 669.58 242.03 669.16 243.15 668.86 244.29 668.72 244.55 668.69 244.8 668.68 245.05 668.68 246.4 668.74 247.73 668.99 249 669.43 251.33 670.19 253.75 670.61 256.2 670.67 256.36 670.68 256.51 670.68 256.66 670.68Z" fill="#bbd0a2" opacity="1" stroke-width="3" stroke="none"></path><path d="M257.5 710.95C257.52 710.93 257.52 710.92 257.52 710.9 257.53 710.88 257.52 710.86 257.52 710.85 257.5 710.84 257.49 710.82 257.48 710.82 257.45 710.82 257.44 710.82 257.42 710.82 254.35 712.05 251.11 712.83 247.81 713.13 242.76 713.46 236.22 710.03 234.59 709.87 232.96 709.71 228.72 711.5 223.32 710.86 218.16 710.23 213.15 707.35 212.75 707.11 212.73 707.1 212.73 707.1 212.72 707.1 212.71 707.1 212.7 707.1 212.69 707.1 212.29 707.21 208 708.37 204.89 707.74 202.95 707.33 201.15 706.43 199.67 705.12 199.65 705.11 199.64 705.1 199.63 705.1 199.61 705.1 199.59 705.1 199.58 705.12 199.57 705.12 199.55 705.14 199.55 705.15 199.55 705.16 199.54 705.18 199.55 705.19 199.78 706.23 200.96 710.44 204.38 711 208.31 711.64 214.02 709.53 214.99 710.02 215.98 710.5 218.25 713.78 224.45 714.26 230.66 714.75 235.22 711.81 237.19 712.15 239.16 712.49 242.75 715.73 247.96 715.57 252.45 715.43 256.45 711.94 257.5 710.95Z" fill="#bbd0a2" opacity="1" stroke-width="3" stroke="none"></path><path d="M332.8 698.18C332.81 698.17 332.81 698.15 332.82 698.13 332.82 698.12 332.81 698.1 332.81 698.08 332.8 698.07 332.79 698.06 332.77 698.06 332.75 698.05 332.73 698.05 332.72 698.06 331.28 698.6 325.01 700.88 321.27 700.88 317.02 700.88 311.47 697.62 309.19 698.27 306.9 698.91 301.68 701.85 296.79 700.88 293.77 700.24 290.81 699.31 287.97 698.08 287.96 698.08 287.94 698.08 287.92 698.08 287.9 698.08 287.89 698.09 287.88 698.1 287.87 698.12 287.86 698.14 287.87 698.15 287.87 698.17 287.88 698.19 287.88 698.2 289.1 699.54 294.91 705.71 298.1 705.13 301.69 704.48 307.9 701.55 309.85 701.55 311.81 701.55 316.05 705.13 320.96 705.46 325.33 705.74 331.56 699.48 332.8 698.18Z" fill="#bbd0a2" opacity="1" stroke-width="3" stroke="none"></path><path d="M372 750.62C372.02 750.62 372.04 750.62 372.06 750.62 372.07 750.63 372.09 750.64 372.09 750.66 372.1 750.68 372.11 750.69 372.1 750.71 372.1 750.73 372.09 750.75 372.07 750.75 370.24 752.08 363.14 756.94 357.51 756.94 350.98 756.94 345.43 754.01 343.46 754.01 341.49 754.01 338.23 757.27 332.69 756.62 329.64 756.33 326.74 755.14 324.37 753.19 324.36 753.18 324.35 753.17 324.34 753.16 324.34 753.14 324.34 753.12 324.35 753.11 324.36 753.09 324.37 753.08 324.38 753.07 324.4 753.07 324.41 753.06 324.42 753.06 327.93 753.43 331.45 753.54 334.97 753.36 340.51 753.04 342.15 751.73 343.78 751.4 345.41 751.09 351.95 753.03 359.12 753.03 363.52 752.97 367.88 752.15 372 750.62V750.62Z" fill="#bbd0a2" opacity="1" stroke-width="3" stroke="none"></path><path d="M266.86 820.63C266.87 820.64 266.88 820.66 266.89 820.68 266.9 820.69 266.92 820.7 266.94 820.7H426.61C426.63 820.7 426.64 820.69 426.66 820.68 426.67 820.66 426.68 820.65 426.68 820.64 427.22 815.44 426.49 810.2 424.56 805.36 421.29 797.04 414.27 796.71 412.64 794.25 411.01 791.8 413.79 786.09 409.38 781.85 404.97 777.62 400.73 780.22 396.32 777.13 391.91 774.03 390.93 770.76 383.1 770.27 375.27 769.78 373.14 774.35 368.41 773.85 363.68 773.36 360.74 769.28 354.36 769.76 348 770.25 347.18 776.12 342.93 775.64 338.69 775.16 338.2 770.42 327.59 771.72 316.99 773.02 318.13 780.05 312.09 780.21 306.04 780.37 303.59 775.81 296.25 779.06 288.9 782.33 291.36 789.03 286.95 792.45 282.54 795.87 280.09 792.28 276.18 796.21 272.26 800.13 275.54 804.86 272.42 808.45 269.33 812.03 266.56 813.98 266.86 820.63Z" fill="#bbd0a2" opacity="1" stroke-width="3" stroke="none"></path><path d="M567.93 820.65C567.93 820.66 567.93 820.67 567.93 820.68 567.93 820.69 567.92 820.7 567.91 820.7 567.91 820.71 567.9 820.72 567.88 820.72 567.88 820.72 567.86 820.73 567.86 820.72H391.23C391.21 820.72 391.2 820.72 391.18 820.71 391.17 820.7 391.16 820.68 391.16 820.66 391.1 819.82 390.7 811.52 397.36 807.18 404.39 802.61 408.47 806.54 412.21 797.06 415.96 787.59 416.94 786.14 424.61 784.66 432.28 783.19 430.97 775.2 439.95 772.09 448.93 768.98 451.54 774.7 460.84 771.92 470.14 769.15 468.19 765.73 480.42 764.58 492.66 763.43 492.34 771.44 499.36 771.44 506.39 771.44 510.29 768.66 515.68 769.81 521.07 770.96 521.72 778.14 525.64 779.11 529.56 780.08 532.01 777.8 537.23 780.58 542.47 783.35 542.29 790.04 545.07 793.32 547.84 796.57 552.25 793.15 557.14 797.24 562.03 801.33 562.69 805.4 562.37 809.48 562.04 813.52 567.72 815.48 567.93 820.65Z" fill="#cfe1b9" opacity="1" stroke-width="3" stroke="none"></path></g><g><path d="M1176.48 728.19C1176.55 728.22 1176.62 728.26 1176.69 728.26 1176.76 728.26 1176.8 728.22 1176.87 728.19 1176.94 728.15 1176.97 728.08 1176.97 728.01 1177.01 727.94 1177.01 727.87 1177.01 727.8 1155 636.65 1227.34 521.9 1229.91 748.09 1229.91 748.16 1229.91 748.23 1229.95 748.26 1230.02 748.33 1230.05 748.37 1230.12 748.4 1230.16 748.4 1230.19 748.4 1230.19 748.4 1230.23 748.4 1230.26 748.4 1230.26 748.4 1230.3 748.37 1230.33 748.37 1230.33 748.33 1230.33 748.3 1230.37 748.3 1230.37 748.26 1244.32 616.89 1365.19 642.92 1277 783.59 1276.97 783.62 1276.93 783.66 1276.97 783.73 1276.97 783.77 1277 783.8 1277.04 783.84 1277.07 783.84 1277.11 783.87 1277.14 783.87 1277.18 783.84 1277.25 783.84 1277.25 783.8 1344.66 705.82 1367.38 755.03 1333.78 792.36 1333.74 792.39 1333.71 792.47 1333.71 792.54 1333.71 792.64 1333.71 792.71 1333.74 792.75 1333.78 792.82 1333.85 792.89 1333.92 792.89 1333.99 792.92 1334.06 792.92 1334.13 792.92 1368.05 782.43 1395.41 809.41 1357.16 821.63 1357.13 821.63 1357.09 821.63 1357.06 821.63H1074.48C1021.19 817.37 1025.6 718.99 1120.87 775.1 1120.94 775.14 1121.01 775.14 1121.08 775.14 1121.15 775.14 1121.22 775.1 1121.29 775.07 1121.33 775.03 1121.36 774.96 1121.4 774.93 1121.43 774.85 1121.43 774.78 1121.4 774.71L1121.22 773.94C1121.22 773.87 1121.18 773.83 1121.15 773.8 1044.51 688.78 1121.4 647.43 1175.6 727.66 1175.64 727.69 1175.67 727.73 1175.71 727.76L1176.48 728.19Z" fill="#cfe1b9" opacity="1" stroke-width="3" stroke="none"></path></g><g><path d="M1094.88 549.81C1094.88 549.81 1091.63 554.36 1090.98 555.34 1090.33 556.32 1090.17 559.24 1089.68 560.38 1089.19 561.53 1085.6 563.64 1084.79 564.13 1083.98 564.62 1084.63 566.73 1087.07 568.85 1087.07 568.85 1086.58 571.78 1086.09 574.71 1085.6 577.63 1086.25 578.45 1089.03 579.26 1090.31 579.66 1091.61 579.99 1092.93 580.24L1090.17 589.03 1111.98 592.61C1111.98 592.61 1112.79 583.17 1112.96 580.4 1113.13 577.63 1118 574.22 1120.77 569.01 1123.54 563.81 1124.19 556.15 1119.96 552.09 1115.73 548.02 1099.45 543.3 1094.88 549.81Z" fill="#dd8387" opacity="1" stroke-width="3" stroke="none"></path><path d="M1096.66 551.23C1096.66 551.23 1098.22 557.54 1098.51 558.42 1098.8 559.29 1098.41 560.06 1098.12 561.13 1097.82 562.2 1096.47 565.6 1096.47 565.6L1087.07 568.85C1086.52 569.15 1086.08 569.61 1085.79 570.16 1085.07 572.23 1084.65 574.39 1084.53 576.57 1084.53 578.9 1085.79 579.87 1087.73 580.36 1089.66 580.85 1093.64 581.13 1094.81 580.26 1095.98 579.39 1098.98 566.77 1099.66 564.15 1100.34 561.53 1100.83 560.27 1102.38 560.08 1103 560.04 1103.63 560.13 1104.21 560.35 1104.79 560.57 1105.33 560.91 1105.76 561.35 1106.21 561.79 1106.55 562.33 1106.77 562.91 1106.99 563.5 1107.08 564.12 1107.04 564.74 1107.02 566.04 1106.63 567.32 1105.9 568.4 1105.18 569.48 1104.16 570.34 1102.97 570.86 1101.41 571.44 1101.8 577.94 1107.14 579.69 1112.48 581.44 1115.97 578.62 1118.59 575.9 1119.92 574.54 1121.12 573.06 1122.18 571.48 1123.99 568.91 1124.98 565.85 1125 562.7 1124.9 556.88 1124.7 550.38 1116.16 546.11 1110.77 543.29 1104.58 542.36 1098.6 543.49 1096.95 543.88 1097.33 546.59 1097.33 546.59 1097.33 546.59 1095.68 545.71 1095.68 546.69 1095.91 548.22 1096.24 549.74 1096.66 551.23Z" fill="#333333" opacity="1" stroke-width="3" stroke="none"></path><path d="M1096.66 551.23C1096.73 551.58 1096.82 552.02 1097.25 553.61L1122.18 571.48C1124.05 568.93 1125.03 565.85 1125 562.68 1125.01 560.76 1124.87 558.83 1124.59 556.93L1095.83 547.74C1096.1 549.16 1096.66 551.23 1096.66 551.23Z" fill="#161616" opacity="1" stroke-width="3" stroke="none"></path><path d="M1062.91 638.39C1062.91 638.39 1061.88 653.89 1061.88 657.41 1061.88 660.94 1063.32 664.86 1070.98 664.24 1078.63 663.63 1101.38 658.87 1101.38 658.87L1081.74 634.88 1062.91 638.39Z" fill="#dd8387" opacity="1" stroke-width="3" stroke="none"></path><path d="M1085.88 590.87C1085.88 590.87 1072.48 609.4 1069.73 620.84 1068.05 628.02 1067.88 635.48 1069.23 642.74 1069.23 642.74 1065.9 658.44 1065.9 661.05 1065.9 663.66 1071.14 667.72 1071.14 667.72L1116.33 669.38C1116.33 669.38 1120.37 663.9 1120.6 659.38 1120.83 654.87 1121.79 642.25 1121.79 642.25L1114.41 595.62 1113.7 590.95C1113.63 590.51 1113.44 590.1 1113.14 589.77 1112.84 589.45 1112.46 589.21 1112.03 589.1 1108.51 588.21 1099.55 585.96 1096.33 585.39 1092.28 584.68 1088 585.15 1087.29 587.06 1086.59 588.97 1085.88 590.87 1085.88 590.87Z" fill="#b9cfe1" opacity="1" stroke-width="3" stroke="none"></path><path d="M1148 635.56L1149.25 636.88C1149.25 636.88 1168.57 617.87 1169.22 617.23 1169.87 616.59 1173.61 602.98 1174.68 600.51 1175.75 598.04 1176.72 597.93 1178.12 597.51 1179.51 597.08 1185.62 595.79 1187.22 595.47 1188.83 595.15 1188.72 596.44 1188.72 596.44 1188.72 596.44 1190.43 597.72 1188.72 599.55 1187.01 601.37 1184.01 606.73 1184.01 606.73 1184.01 606.73 1183.58 612.73 1183.04 615.94 1182.53 618.76 1181.39 621.44 1179.72 623.77 1178.44 625.59 1162.25 648.21 1159.89 651.43 1157.53 654.64 1154.64 658.18 1151.85 658.82 1149.06 659.46 1147.35 659.04 1145.64 657.86 1143.93 656.68 1131.71 646.28 1131.71 646.28L1145.32 634.71 1148 635.56Z" fill="#dd8387" stroke-linejoin="round" opacity="1" stroke-width="3" stroke="none"></path><path d="M1128.7 648.91C1129.8 650.01 1131.21 650.76 1132.74 651.05L1148.68 634.88C1148.32 633 1147.59 631.23 1146.54 629.64 1144.87 627.26 1129.89 607.04 1127.74 605.14 1127.04 604.52 1125.36 603.28 1123.43 601.89 1113.86 596.82 1106.25 596.51 1106.25 606.98 1106.25 606.98 1106.25 622.41 1110.02 627.84 1113.8 633.28 1121.8 642.25 1121.8 642.25 1121.8 642.25 1127.27 647.25 1128.7 648.91Z" fill="#b9cfe1" opacity="1" stroke-width="3" stroke="none"></path><path d="M1125.47 567.38C1125.43 567.51 1125.36 567.64 1125.27 567.75 1125.18 567.85 1125.07 567.93 1124.93 567.99 1124.81 568.04 1124.67 568.07 1124.53 568.06 1124.39 568.05 1124.26 568.01 1124.13 567.94 1117.52 564.23 1081 543.71 1079.92 543.28 1078.72 542.81 1082.54 538.75 1087.3 540.42 1092.06 542.09 1095.87 543.75 1095.87 543.75 1095.87 543.75 1101.58 538.04 1106.82 539.23 1112.07 540.41 1119.92 545.89 1124.2 550.65 1128.18 555.07 1126.82 562.35 1125.47 567.38Z" fill="#b9cfe1" opacity="1" stroke-width="3" stroke="none"></path><path d="M1089.47 571.15C1090.64 571.15 1091.77 570.71 1092.63 569.9" stroke="#dd8387" stroke-width="3" stroke-linecap="round" stroke-linejoin="round" opacity="1" fill="none"></path><path d="M1102.37 566.77C1103.05 565.8 1103.32 564.63 1103.16 563.47" stroke="#c43940" stroke-width="3" stroke-linecap="round" stroke-linejoin="round" opacity="1" fill="none"></path><path d="M1180.54 601.16L1188.72 596.44" stroke="#c43940" stroke-width="3" stroke-linecap="round" stroke-linejoin="round" opacity="1" fill="none"></path><path d="M1091.58 562.83C1092.06 562.83 1092.44 562.08 1092.44 561.15 1092.44 560.22 1092.06 559.48 1091.58 559.48 1091.09 559.48 1090.71 560.22 1090.71 561.15 1090.71 562.08 1091.09 562.83 1091.58 562.83Z" fill="#010001" opacity="1" stroke-width="3" stroke="none"></path><path d="M1091.49 554.05C1091.47 554.04 1091.45 554.04 1091.44 554.05 1091.42 554.05 1091.41 554.06 1091.4 554.07 1091.14 554.33 1090.94 554.65 1090.82 555 1090.69 555.35 1090.65 555.71 1090.68 556.08 1090.68 556.09 1090.68 556.1 1090.68 556.1 1090.68 556.11 1090.69 556.12 1090.7 556.12 1091 556.26 1094.34 557.81 1094.77 557.93 1095.21 558.06 1096.02 556.68 1094.89 555.67 1093.87 554.92 1092.71 554.37 1091.49 554.05V554.05Z" fill="#333333" opacity="1" stroke-width="3" stroke="none"></path><path d="M1095.02 551.62C1094.9 551.62 1094.79 551.6 1094.69 551.54 1087.77 547.68 1080.35 543.55 1079.88 543.36 1079.78 543.33 1079.7 543.25 1079.64 543.14 1079.6 543.04 1079.59 542.93 1079.61 542.82 1079.81 541.83 1082.05 539.93 1084.98 539.93 1085.78 539.93 1086.57 540.07 1087.32 540.34 1092.04 541.98 1095.86 543.66 1095.91 543.67 1095.92 543.68 1095.93 543.69 1095.94 543.71 1095.95 543.73 1095.96 543.75 1095.96 543.76L1095.67 551C1095.66 551.17 1095.59 551.33 1095.47 551.45 1095.35 551.56 1095.18 551.62 1095.02 551.62V551.62Z" fill="#b9cfe1" opacity="1" stroke-width="3" stroke="none"></path><path d="M1071.38 627.35L1110.02 627.84C1110.02 627.84 1108.81 610.72 1111.39 606.75 1113.96 602.77 1118.95 601.84 1123.43 601.9 1119.47 599.06 1114.43 595.63 1114.43 595.63 1114.43 595.63 1105.14 592.47 1099.96 591.03 1094.78 589.58 1085.89 590.87 1085.89 590.87 1085.89 590.87 1078.98 597.91 1074.44 603.7 1072.88 611.51 1071.86 619.41 1071.38 627.35V627.35Z" fill="#ffffff" opacity="1" stroke-width="3" stroke="none"></path><path d="M1070.66 609.66C1069.23 614.42 1061.85 633.69 1061.14 635.12 1060.43 636.54 1060.67 639.16 1060.67 639.16L1069.23 642.73C1069.93 638.05 1070.68 632.63 1071.38 627.35 1073.01 615.16 1074.44 603.7 1074.44 603.7 1072.56 606.09 1071.07 608.27 1070.66 609.66Z" fill="#b9cfe1" opacity="1" stroke-width="3" stroke="none"></path><path d="M1015.46 507.52H1012C1011.41 507.52 1010.86 507.28 1010.45 506.87 1010.04 506.46 1009.8 505.91 1009.8 505.32V402.3C1009.8 401.87 1009.9 401.44 1010.1 401.06 1010.29 400.67 1010.57 400.34 1010.92 400.09 1011.27 399.84 1011.66 399.67 1012.09 399.6 1012.5 399.52 1012.94 399.56 1013.35 399.68 1025.67 403.5 1067.8 416.72 1103.05 430.29 1144.85 446.37 1177.19 466.97 1188.11 479.37 1198.55 491.24 1200.31 508.34 1200.44 509.8 1200.44 509.81 1200.44 509.82 1200.44 509.83 1200.43 509.84 1200.42 509.86 1200.41 509.87 1200.41 509.88 1200.4 509.88 1200.39 509.89 1200.38 509.9 1200.36 509.9 1200.35 509.9L1015.46 507.52Z" fill="#ffffff" opacity="1" stroke-width="3" stroke="none"></path><path d="M1013.31 509.31C1012.35 509.3 1011.44 508.92 1010.78 508.25 1010.11 507.58 1009.72 506.67 1009.72 505.72L1009.79 411.11C1009.79 411.04 1009.83 411.01 1009.89 411.02 1025.71 414.49 1067.87 425.1 1118.04 448.74 1179.77 477.82 1186.37 488.57 1188.41 509.74 1188.41 509.74 1188.41 509.76 1188.4 509.77 1188.4 509.78 1188.39 509.79 1188.38 509.8 1188.37 509.82 1188.36 509.82 1188.36 509.82 1188.35 509.82 1188.33 509.83 1188.32 509.83L1013.31 509.31Z" fill="#b9cfe1" opacity="1" stroke-width="3" stroke="none"></path><path d="M450.7 700.12H317.55C316.12 700.12 314.75 699.55 313.73 698.55 312.72 697.53 312.15 696.16 312.15 694.73V431.5C312.15 430.08 312.72 428.7 313.73 427.69 314.75 426.68 316.12 426.11 317.55 426.11H450.7C452.12 426.11 453.5 426.68 454.51 427.69 455.52 428.7 456.09 430.08 456.09 431.5V694.73C456.09 695.44 455.96 696.14 455.68 696.8 455.41 697.45 455.01 698.05 454.51 698.55 454.01 699.04 453.42 699.45 452.77 699.71 452.11 699.99 451.4 700.12 450.7 700.12V700.12Z" fill="#b9cfe1" opacity="1" stroke-width="3" stroke="none"></path><path d="M471.04 728.03L482.01 772.68C482.44 774.42 483.43 775.97 484.84 777.07 486.25 778.18 488 778.78 489.79 778.78H529.8C531.08 778.78 532.35 779.1 533.49 779.68 534.63 780.27 535.61 781.13 536.35 782.18L542.57 790.99C543.31 792.04 544.29 792.89 545.43 793.48 546.57 794.07 547.84 794.38 549.12 794.38H1014.85C1016.97 794.38 1019.01 793.53 1020.52 792.04 1022.01 790.53 1022.86 788.49 1022.86 786.37V678.56C1022.86 676.44 1022.01 674.4 1020.52 672.9 1019.01 671.4 1016.97 670.55 1014.85 670.55H485.83C483.91 670.55 482.05 671.25 480.59 672.5 479.14 673.76 478.18 675.5 477.9 677.4L470.88 724.95C470.73 725.98 470.79 727.02 471.04 728.03V728.03Z" fill="#2a2c45" opacity="1" stroke-width="3" stroke="none"></path><path d="M480.13 764.83C480.11 764.83 480.08 764.82 480.07 764.81 480.06 764.8 480.05 764.78 480.04 764.76L470.94 728.05C470.69 727.03 470.64 725.97 470.8 724.93L477.81 677.37C478.1 675.45 479.07 673.7 480.54 672.43 482.01 671.17 483.89 670.46 485.83 670.45H1014.84C1016.99 670.45 1019.05 671.31 1020.57 672.83 1022.08 674.35 1022.94 676.42 1022.94 678.56V764.74C1022.94 764.76 1022.93 764.78 1022.91 764.8 1022.9 764.82 1022.87 764.83 1022.85 764.83L480.13 764.83Z" fill="#10111d" opacity="1" stroke-width="3" stroke="none"></path><path d="M1022.85 764.83H480.88" stroke="#10111d" stroke-width="3" stroke-linecap="round" stroke-linejoin="round" opacity="1" fill="none"></path><path d="M1010.93 795.19C1010.94 796.9 1011.63 798.53 1012.84 799.75 1014.05 800.95 1015.69 801.63 1017.41 801.63H1210.9C1212.27 801.63 1213.6 801.2 1214.69 800.41 1215.8 799.6 1216.63 798.48 1217.05 797.19 1217.48 795.9 1217.49 794.51 1217.08 793.2 1216.67 791.91 1215.86 790.77 1214.77 789.96L1066.05 679.05C1065.08 678.32 1063.92 677.89 1062.71 677.79 1061.5 677.69 1060.28 677.93 1059.21 678.49L1013.91 701.89C1012.85 702.43 1011.96 703.27 1011.35 704.29 1010.72 705.31 1010.4 706.49 1010.41 707.68L1010.93 795.19Z" fill="#1f2032" opacity="1" stroke-width="3" stroke="none"></path><path d="M1101.93 846.64C1129.34 846.64 1151.55 824.43 1151.55 797.03 1151.55 769.62 1129.34 747.41 1101.93 747.41 1074.53 747.41 1052.32 769.62 1052.32 797.03 1052.32 824.43 1074.53 846.64 1101.93 846.64Z" fill="#000000" opacity="1" stroke-width="3" stroke="none"></path><path d="M1101.93 841.23C1126.34 841.23 1146.14 821.44 1146.14 797.03 1146.14 772.62 1126.34 752.82 1101.93 752.82 1077.52 752.82 1057.73 772.62 1057.73 797.03 1057.73 821.44 1077.52 841.23 1101.93 841.23Z" fill="#1c1d2b" opacity="1" stroke-width="3" stroke="none"></path><path d="M1101.93 819.53C1114.36 819.53 1124.44 809.45 1124.44 797.03 1124.44 784.6 1114.36 774.52 1101.93 774.52 1089.5 774.52 1079.43 784.6 1079.43 797.03 1079.43 809.45 1089.5 819.53 1101.93 819.53Z" fill="#656785" opacity="1" stroke-width="3" stroke="none"></path><path d="M1101.93 802.11C1104.74 802.11 1107.01 799.84 1107.01 797.03 1107.01 794.22 1104.74 791.95 1101.93 791.95 1099.12 791.95 1096.85 794.22 1096.85 797.03 1096.85 799.84 1099.12 802.11 1101.93 802.11Z" fill="#b6b8c8" opacity="1" stroke-width="3" stroke="none"></path><path d="M1101.93 786.47C1104.01 786.47 1105.68 784.78 1105.68 782.71 1105.68 780.64 1104.01 778.96 1101.93 778.96 1099.86 778.96 1098.18 780.64 1098.18 782.71 1098.18 784.78 1099.86 786.47 1101.93 786.47Z" fill="#b6b8c8" opacity="1" stroke-width="3" stroke="none"></path><path d="M1093.9 813.27C1095.98 813.27 1097.65 811.58 1097.65 809.51 1097.65 807.44 1095.98 805.76 1093.9 805.76 1091.83 805.76 1090.15 807.44 1090.15 809.51 1090.15 811.58 1091.83 813.27 1093.9 813.27Z" fill="#b6b8c8" opacity="1" stroke-width="3" stroke="none"></path><path d="M1110.67 813.27C1112.75 813.27 1114.43 811.58 1114.43 809.51 1114.43 807.44 1112.75 805.76 1110.67 805.76 1108.6 805.76 1106.92 807.44 1106.92 809.51 1106.92 811.58 1108.6 813.27 1110.67 813.27Z" fill="#b6b8c8" opacity="1" stroke-width="3" stroke="none"></path><path d="M1088.63 796.65C1090.71 796.65 1092.39 794.96 1092.39 792.89 1092.39 790.82 1090.71 789.14 1088.63 789.14 1086.56 789.14 1084.88 790.82 1084.88 792.89 1084.88 794.96 1086.56 796.65 1088.63 796.65Z" fill="#b6b8c8" opacity="1" stroke-width="3" stroke="none"></path><path d="M1115.18 796.65C1117.25 796.65 1118.93 794.96 1118.93 792.89 1118.93 790.82 1117.25 789.14 1115.18 789.14 1113.11 789.14 1111.42 790.82 1111.42 792.89 1111.42 794.96 1113.11 796.65 1115.18 796.65Z" fill="#b6b8c8" opacity="1" stroke-width="3" stroke="none"></path><path d="M598.93 846.64C626.34 846.64 648.55 824.43 648.55 797.03 648.55 769.62 626.34 747.41 598.93 747.41 571.52 747.41 549.31 769.62 549.31 797.03 549.31 824.43 571.52 846.64 598.93 846.64Z" fill="#000000" opacity="1" stroke-width="3" stroke="none"></path><path d="M598.93 841.23C623.34 841.23 643.14 821.44 643.14 797.03 643.14 772.62 623.34 752.82 598.93 752.82 574.52 752.82 554.72 772.62 554.72 797.03 554.72 821.44 574.52 841.23 598.93 841.23Z" fill="#1c1d2b" opacity="1" stroke-width="3" stroke="none"></path><path d="M598.93 819.53C611.35 819.53 621.43 809.45 621.43 797.03 621.43 784.6 611.35 774.52 598.93 774.52 586.5 774.52 576.43 784.6 576.43 797.03 576.43 809.45 586.5 819.53 598.93 819.53Z" fill="#656785" opacity="1" stroke-width="3" stroke="none"></path><path d="M598.93 802.11C601.74 802.11 604.01 799.84 604.01 797.03 604.01 794.22 601.74 791.95 598.93 791.95 596.12 791.95 593.85 794.22 593.85 797.03 593.85 799.84 596.12 802.11 598.93 802.11Z" fill="#b6b8c8" opacity="1" stroke-width="3" stroke="none"></path><path d="M598.93 786.47C601 786.47 602.68 784.78 602.68 782.71 602.68 780.64 601 778.96 598.93 778.96 596.85 778.96 595.18 780.64 595.18 782.71 595.18 784.78 596.85 786.47 598.93 786.47Z" fill="#b6b8c8" opacity="1" stroke-width="3" stroke="none"></path><path d="M590.89 813.27C592.96 813.27 594.64 811.58 594.64 809.51 594.64 807.44 592.96 805.76 590.89 805.76 588.81 805.76 587.14 807.44 587.14 809.51 587.14 811.58 588.81 813.27 590.89 813.27Z" fill="#b6b8c8" opacity="1" stroke-width="3" stroke="none"></path><path d="M607.67 813.27C609.74 813.27 611.43 811.58 611.43 809.51 611.43 807.44 609.74 805.76 607.67 805.76 605.6 805.76 603.92 807.44 603.92 809.51 603.92 811.58 605.6 813.27 607.67 813.27Z" fill="#b6b8c8" opacity="1" stroke-width="3" stroke="none"></path><path d="M585.63 796.65C587.7 796.65 589.39 794.96 589.39 792.89 589.39 790.82 587.7 789.14 585.63 789.14 583.56 789.14 581.88 790.82 581.88 792.89 581.88 794.96 583.56 796.65 585.63 796.65Z" fill="#b6b8c8" opacity="1" stroke-width="3" stroke="none"></path><path d="M612.17 796.65C614.23 796.65 615.92 794.96 615.92 792.89 615.92 790.82 614.23 789.14 612.17 789.14 610.09 789.14 608.41 790.82 608.41 792.89 608.41 794.96 610.09 796.65 612.17 796.65Z" fill="#b6b8c8" opacity="1" stroke-width="3" stroke="none"></path><path d="M1044.06 548.03H1050.16C1051.83 548.03 1053.43 548.61 1054.71 549.68 1055.99 550.74 1056.85 552.22 1057.15 553.86L1063.5 588.8C1063.69 589.82 1063.64 590.87 1063.38 591.88 1063.12 592.88 1062.64 593.82 1061.97 594.62 1061.3 595.41 1060.46 596.06 1059.53 596.5 1058.58 596.93 1057.56 597.17 1056.51 597.17H1042.34L1044.06 548.03Z" fill="#777777" opacity="1" stroke-width="3" stroke="none"></path><path d="M1043.38 600.61H1052.65C1058.15 600.61 1063.31 605.76 1065.03 613.66 1066.75 621.57 1074.64 654.21 1074.64 654.21H1043.03L1043.38 600.61Z" fill="#777777" opacity="1" stroke-width="3" stroke="none"></path><path d="M1201.62 625.19L1195.37 605.42 1174.77 646.42 1193.92 641.63 1201.62 625.19Z" fill="#4e5287" opacity="1" stroke-width="3" stroke="none"></path><path d="M1201.62 625.19L1195.37 605.42 1174.77 646.42 1193.92 641.63 1201.62 625.19Z" fill="#626262" opacity="1" stroke-width="3" stroke="none"></path><path d="M1171.61 651.22C1171.34 651.1 1171.11 650.91 1170.91 650.69 1170.72 650.47 1170.57 650.21 1170.47 649.94 1170.38 649.66 1170.33 649.37 1170.35 649.07 1170.37 648.78 1170.45 648.49 1170.58 648.23L1193.86 600.39C1194.12 599.86 1194.59 599.45 1195.15 599.25 1195.71 599.06 1196.32 599.1 1196.86 599.36 1197.39 599.62 1197.8 600.08 1198 600.64 1198.19 601.2 1198.15 601.82 1197.89 602.35L1174.6 650.19C1174.48 650.45 1174.29 650.69 1174.08 650.88 1173.86 651.08 1173.6 651.23 1173.32 651.33 1173.04 651.42 1172.75 651.46 1172.46 651.44 1172.16 651.43 1171.88 651.35 1171.61 651.22V651.22Z" fill="#777777" opacity="1" stroke-width="3" stroke="none"></path><path d="M1248.15 605.42L1208.88 614.14C1207.62 614.42 1206.46 614.98 1205.45 615.78 1204.44 616.58 1203.64 617.6 1203.09 618.76L1174.62 678.6 1244.02 705.4 1264.3 679.63 1248.15 605.42Z" fill="#777777" opacity="1" stroke-width="3" stroke="none"></path><path d="M1293.56 784.49C1293.56 784.48 1293.56 784.48 1293.56 784.47 1293.59 772.91 1293.66 754.62 1293.69 743.08V743.06C1294.87 734.85 1286.54 729.84 1278.75 729.8 1278.72 729.8 1278.7 729.79 1278.68 729.77 1278.67 729.76 1278.66 729.74 1278.66 729.71V694.61C1278.66 684.41 1275.88 668.15 1271.04 649.64 1271.04 649.63 1271.04 649.63 1271.03 649.63 1257.98 629.22 1234.93 554.41 1229.1 530.95 1229.1 530.94 1229.1 530.94 1229.1 530.93 1222.72 518.66 1214.45 509.37 1200.46 509.37 1182.5 509.37 1043.92 507.4 1015.38 506.99 1014.71 506.98 1014.05 507.11 1013.42 507.36 1012.8 507.61 1012.24 507.98 1011.76 508.44 1011.28 508.92 1010.9 509.48 1010.65 510.1 1010.39 510.72 1010.26 511.38 1010.26 512.05V752.91C1010.26 754.13 1010.61 755.33 1011.25 756.36 1011.9 757.4 1012.82 758.23 1013.92 758.77L1037.14 770.08C1038.26 770.62 1039.54 770.7 1040.72 770.29 1041.9 769.89 1042.87 769.03 1043.41 767.92 1049.88 754.69 1060.64 744.04 1073.94 737.72 1087.23 731.39 1102.28 729.75 1116.62 733.06 1130.97 736.38 1143.77 744.46 1152.94 755.99 1162.1 767.51 1167.09 781.81 1167.09 796.53V796.93C1167.09 797.55 1167.21 798.16 1167.44 798.74 1167.68 799.31 1168.02 799.83 1168.45 800.27 1168.89 800.71 1169.42 801.06 1169.99 801.3 1170.56 801.53 1171.17 801.65 1171.79 801.65H1283.06C1290.28 801.65 1294.98 792.83 1293.56 784.49ZM1241.31 659.65C1241.31 659.66 1241.31 659.66 1241.3 659.67 1241.3 659.68 1241.3 659.68 1241.29 659.68 1241.29 660.08 1241.19 660.47 1240.99 660.83 1240.8 661.18 1240.51 661.47 1240.17 661.68L1228.38 669.05C1227.15 669.82 1225.78 670.31 1224.34 670.5 1222.91 670.68 1221.45 670.55 1220.07 670.11V670.11L1051.59 617.28C1050.2 616.85 1048.98 615.98 1048.12 614.8 1047.25 613.63 1046.78 612.21 1046.78 610.75L1046.52 534.05C1046.52 533.74 1046.59 533.42 1046.7 533.14 1046.82 532.85 1047 532.59 1047.22 532.37 1047.43 532.15 1047.7 531.97 1047.98 531.86 1048.27 531.74 1048.58 531.68 1048.89 531.68H1203.36C1203.86 531.64 1204.35 531.76 1204.79 532.01 1205.22 532.26 1205.57 532.63 1205.78 533.08L1240.51 634.95C1241.05 636.51 1241.31 638.15 1241.31 639.79V659.65Z" fill="#b9cfe1" opacity="1" stroke-width="3" stroke="none"></path><path d="M1255.89 649.5L1271.04 649.63C1269.15 642.41 1266.95 634.85 1264.48 627.16V627.15C1255.68 599.79 1244.45 567.52 1236.63 547.98L1236.62 547.97C1234.26 542.08 1231.87 536.23 1229.11 530.94H1214.45L1255.89 649.5Z" fill="#ffffff" opacity="1" stroke-width="3" stroke="none"></path><path d="M1232.21 610.57C1232.22 610.63 1232.23 610.7 1232.23 610.75V654.02C1232.23 660.71 1224.72 662.95 1220.75 663.66 1220.46 663.72 1220.16 663.71 1219.87 663.63 1219.59 663.55 1219.32 663.41 1219.09 663.23 1218.86 663.03 1218.68 662.8 1218.55 662.52 1218.43 662.25 1218.36 661.96 1218.36 661.67V598.82C1218.36 598.49 1218.44 598.18 1218.58 597.9 1218.72 597.61 1218.93 597.37 1219.18 597.18 1219.44 596.99 1219.74 596.86 1220.06 596.81 1220.37 596.77 1220.69 596.78 1220.99 596.88 1223.93 597.74 1226.65 599.21 1228.99 601.19 1229 601.19 1229.01 601.21 1229.01 601.22L1232.21 610.57Z" fill="#b9cfe1" opacity="1" stroke-width="3" stroke="none"></path><path d="M317.55 700.21C316.09 700.21 314.7 699.63 313.67 698.61 312.64 697.57 312.06 696.18 312.06 694.73V431.5C312.06 430.05 312.64 428.66 313.67 427.62 314.7 426.6 316.09 426.02 317.55 426.02H450.7C452.15 426.02 453.54 426.6 454.58 427.62 455.6 428.66 456.18 430.05 456.18 431.5V694.73C456.18 695.45 456.04 696.17 455.76 696.83 455.49 697.49 455.08 698.1 454.58 698.61 454.07 699.12 453.46 699.53 452.79 699.79 452.13 700.07 451.42 700.21 450.7 700.21H317.55Z" fill="#9bb8d0" opacity="1" stroke-width="3" stroke="none"></path><path d="M996.35 738.56H444.98C443.09 738.56 441.27 737.81 439.93 736.48 438.6 735.14 437.85 733.32 437.85 731.43V402.5C437.85 400.61 438.6 398.79 439.93 397.46 441.27 396.12 443.09 395.37 444.98 395.37H996.35C998.24 395.37 1000.06 396.12 1001.4 397.46 1002.74 398.79 1003.48 400.61 1003.48 402.5V731.44C1003.48 733.33 1002.73 735.14 1001.39 736.48 1000.05 737.81 998.24 738.56 996.35 738.56V738.56Z" fill="#b9cfe1" opacity="1" stroke-width="3" stroke="none"></path><path d="M437.85 700.12V426.02" stroke="#ffffff" stroke-width="3" stroke-linecap="round" stroke-linejoin="round" opacity="1" fill="none"></path><path d="M447.42 401.15H996.5" stroke="#ffffff" stroke-width="3" stroke-linecap="round" stroke-linejoin="round" opacity="1" fill="none"></path><path d="M1281.86 727.36H1276.5C1276.34 727.36 1276.18 727.32 1276.03 727.26 1275.88 727.2 1275.74 727.11 1275.63 726.99 1275.51 726.88 1275.41 726.74 1275.36 726.59 1275.3 726.44 1275.26 726.28 1275.26 726.12V690.89C1275.26 690.73 1275.3 690.57 1275.36 690.42 1275.41 690.27 1275.51 690.12 1275.63 690.02 1275.74 689.9 1275.88 689.8 1276.03 689.74 1276.18 689.68 1276.34 689.65 1276.5 689.65H1281.86C1282.02 689.65 1282.18 689.68 1282.33 689.74 1282.48 689.8 1282.61 689.9 1282.73 690.02 1282.85 690.12 1282.94 690.27 1283.01 690.42 1283.06 690.57 1283.1 690.73 1283.1 690.89V726.12C1283.1 726.28 1283.07 726.44 1283.01 726.59 1282.94 726.74 1282.85 726.89 1282.74 727 1282.62 727.11 1282.48 727.21 1282.33 727.27 1282.18 727.33 1282.02 727.36 1281.86 727.36Z" fill="#ffffff" opacity="1" stroke-width="3" stroke="none"></path><path d="M1092.52 662.68C1092.52 662.71 1092.51 662.73 1092.49 662.74 1092.48 662.76 1092.46 662.77 1092.43 662.77H1056.48C1056.45 662.77 1056.43 662.76 1056.42 662.74 1056.4 662.73 1056.39 662.71 1056.39 662.68V658.89C1056.39 658.16 1056.53 657.44 1056.81 656.76 1057.09 656.09 1057.5 655.48 1058.02 654.96 1058.54 654.45 1059.14 654.04 1059.82 653.75 1060.5 653.48 1061.22 653.33 1061.95 653.33H1086.96C1087.69 653.33 1088.41 653.48 1089.09 653.75 1089.77 654.04 1090.37 654.45 1090.89 654.96 1091.41 655.48 1091.82 656.09 1092.1 656.76 1092.38 657.44 1092.52 658.16 1092.52 658.89V662.68Z" fill="#2d2d2d" opacity="1" stroke-width="3" stroke="none"></path><path d="M965.98 424.37H468.24V707.93H965.98V424.37Z" stroke="#737373" stroke-width="3" stroke-linecap="round" stroke-linejoin="round" opacity="1" fill="none"></path><path d="M468.99 452.07H965.98" stroke="#737373" stroke-width="3" stroke-linecap="round" stroke-linejoin="round" opacity="1" fill="none"></path><path d="M468.99 481.55H965.98" stroke="#737373" stroke-width="3" stroke-linecap="round" stroke-linejoin="round" opacity="1" fill="none"></path><path d="M468.99 509.3H965.98" stroke="#737373" stroke-width="3" stroke-linecap="round" stroke-linejoin="round" opacity="1" fill="none"></path><path d="M468.99 538.78H965.98" stroke="#737373" stroke-width="3" stroke-linecap="round" stroke-linejoin="round" opacity="1" fill="none"></path><path d="M468.99 569.14H965.98" stroke="#737373" stroke-width="3" stroke-linecap="round" stroke-linejoin="round" opacity="1" fill="none"></path><path d="M468.99 598.62H965.98" stroke="#737373" stroke-width="3" stroke-linecap="round" stroke-linejoin="round" opacity="1" fill="none"></path><path d="M468.99 626.36H965.98" stroke="#737373" stroke-width="3" stroke-linecap="round" stroke-linejoin="round" opacity="1" fill="none"></path><path d="M468.99 655.85H965.98" stroke="#737373" stroke-width="3" stroke-linecap="round" stroke-linejoin="round" opacity="1" fill="none"></path><path d="M468.99 683.6H965.98" stroke="#737373" stroke-width="3" stroke-linecap="round" stroke-linejoin="round" opacity="1" fill="none"></path><path d="M1014.03 512.53L1200.44 514.56" stroke="#eff4f8" stroke-width="3" stroke-linecap="round" stroke-linejoin="round" opacity="1" fill="none"></path><path d="M1050.1 622.36L1217.51 675.12" stroke="#eff4f8" stroke-width="3" stroke-linecap="round" stroke-linejoin="round" opacity="1" fill="none"></path><path d="M1241.31 729.8V639.79C1241.31 638.15 1241.05 636.51 1240.51 634.95L1232.23 610.66 1229.01 601.2 1205.78 533.08 1203.99 527.81C1203.64 526.78 1202.97 525.88 1202.08 525.24 1201.2 524.61 1200.13 524.27 1199.04 524.27H1029.74C1028.35 524.27 1027.02 524.82 1026.04 525.8 1025.06 526.78 1024.51 528.11 1024.51 529.5V696.17C1024.51 698.56 1025.46 700.86 1027.16 702.56 1028.85 704.25 1031.15 705.2 1033.55 705.2H1075.6" stroke="#7992a7" stroke-width="3" stroke-linecap="round" stroke-linejoin="round" opacity="1" fill="none"></path><path d="M1171.78 801.75C1169.4 801.75 1166.99 799.96 1166.99 796.54 1166.99 781.83 1162.01 767.55 1152.87 756.05 1143.71 744.53 1130.93 736.47 1116.6 733.15 1102.27 729.84 1087.24 731.48 1073.97 737.8 1060.69 744.12 1049.95 754.76 1043.49 767.96 1043.22 768.54 1042.83 769.03 1042.36 769.45 1041.89 769.86 1041.34 770.18 1040.75 770.39 1040.16 770.59 1039.53 770.67 1038.9 770.64 1038.28 770.59 1037.66 770.43 1037.1 770.16L1014.65 759.22C1014.61 759.2 1014.58 759.17 1014.56 759.12 1014.54 759.08 1014.54 759.03 1014.56 758.99 1022.18 741.44 1034.9 726.58 1051.07 716.35 1067.24 706.12 1086.11 701 1105.24 701.63 1124.36 702.26 1142.85 708.63 1158.3 719.92 1173.76 731.19 1185.47 746.86 1191.9 764.88H1238.27C1239.01 764.89 1239.71 764.62 1240.26 764.14 1240.81 763.65 1241.14 762.98 1241.22 762.25V729.89C1241.22 729.86 1241.22 729.85 1241.23 729.82 1241.24 729.8 1241.26 729.78 1241.28 729.77 1241.29 729.75 1241.31 729.73 1241.33 729.72 1241.35 729.71 1241.38 729.71 1241.4 729.71H1278.66C1283.7 729.71 1288.59 731.72 1291.38 734.95 1292.36 736.04 1293.08 737.34 1293.49 738.74 1293.91 740.15 1294 741.63 1293.78 743.08 1293.76 749.17 1293.7 767.24 1293.7 767.24 1293.69 767.88 1293.69 768.53 1293.69 769.17 1293.69 769.17 1293.66 780.3 1293.64 784.48 1294.48 789.46 1293.19 794.7 1290.27 798.16 1289.41 799.26 1288.32 800.16 1287.07 800.77 1285.82 801.4 1284.44 801.73 1283.05 801.75H1171.78Z" fill="#000000" opacity="1" stroke-width="3" stroke="none"></path><path d="M1014.57 758.99C1022.18 741.44 1034.9 726.58 1051.08 716.35 1067.24 706.12 1086.11 701 1105.24 701.63 1124.36 702.26 1142.85 708.63 1158.3 719.92 1173.77 731.19 1185.47 746.86 1191.9 764.88H1238.27C1239.01 764.89 1239.72 764.62 1240.26 764.14 1240.81 763.65 1241.15 762.98 1241.22 762.25V729.89C1241.22 729.86 1241.23 729.85 1241.24 729.82 1241.25 729.8 1241.26 729.78 1241.28 729.77 1241.3 729.75 1241.31 729.73 1241.33 729.72 1241.36 729.71 1241.38 729.71 1241.4 729.71H1278.66" stroke="#7992a7" stroke-width="3" stroke-linecap="round" stroke-linejoin="round" opacity="1" fill="none"></path></g></svg>